<svg width="31" height="32" viewBox="0 0 31 32" fill="none" xmlns="http://www.w3.org/2000/svg">
<path d="M15.1762 0C6.81409 0 0 7.1013 0 15.8511C0 24.5851 6.81409 31.7022 15.1762 31.7022C23.5534 31.7022 30.3523 24.5851 30.3523 15.8511C30.3523 7.2496 23.7819 0.241196 15.6007 0.0060935L15.1762 0Z" fill="white"/>
<path opacity="0.5" d="M18.1653 20.5116C18.6205 20.9713 18.6205 21.7163 18.1804 22.1918C17.9528 22.4296 17.6644 22.5406 17.3609 22.5406C17.0726 22.5406 16.7842 22.4296 16.5718 22.1918L11.2753 16.6915C11.0628 16.4696 10.9414 16.1684 10.9414 15.8514C10.9414 15.5344 11.0628 15.2332 11.2753 15.0113L16.5718 9.51095C17.0119 9.03541 17.7251 9.03541 18.1804 9.51095C18.6205 9.97063 18.6205 10.7315 18.1653 11.1912L13.6883 15.8514L18.1653 20.5116Z" fill="#030229"/>
</svg>
