<svg width="648" height="432" viewBox="0 0 648 432" fill="none" xmlns="http://www.w3.org/2000/svg">
<path d="M484.427 104.09C488.831 85.4007 477.251 66.6794 458.561 62.2752C439.872 57.8709 421.15 69.4515 416.746 88.141C412.342 106.831 423.922 125.552 442.612 129.956C461.301 134.36 480.023 122.78 484.427 104.09Z" fill="#31B997"/>
<path d="M466.405 97.2001C465.999 97.2646 465.589 97.2935 465.178 97.2865L461.791 97.347C458.931 97.347 454.931 97.4161 450.421 97.4248H450.196V94.9451C450.196 89.908 450.196 85.3461 450.265 82.0542C450.265 80.4558 450.317 79.1425 450.335 78.1403C450.327 77.6607 450.356 77.1813 450.421 76.7061C450.491 77.1807 450.52 77.6606 450.507 78.1403C450.507 79.1425 450.551 80.4558 450.585 82.0542C450.585 85.3461 450.646 89.908 450.646 94.9451V97.2001L450.421 96.9755C454.931 96.9755 458.931 96.9755 461.791 97.0533L465.178 97.1224C465.588 97.1161 465.999 97.1421 466.405 97.2001Z" fill="#FAFAFA"/>
<path d="M450.524 67.0723C450.756 68.0273 450.835 69.0129 450.758 69.9926C450.835 70.9722 450.756 71.9579 450.524 72.9129C450.304 71.9562 450.228 70.9718 450.3 69.9926C450.228 69.0134 450.304 68.0289 450.524 67.0723Z" fill="#FAFAFA"/>
<path d="M466.37 71.7637C465.861 72.5864 465.228 73.3264 464.495 73.9582C463.864 74.6913 463.123 75.3235 462.301 75.8331C462.81 75.0104 463.443 74.2704 464.176 73.6386C464.807 72.9055 465.548 72.2733 466.37 71.7637Z" fill="#FAFAFA"/>
<path d="M475.632 81.8813C474.901 82.5084 474.098 83.0451 473.239 83.4798C472.456 84.0423 471.609 84.5093 470.716 84.8708C472.11 83.5185 473.79 82.4969 475.632 81.8813Z" fill="#FAFAFA"/>
<path d="M481.067 96.8975C478.42 97.197 475.747 97.197 473.101 96.8975C475.747 96.598 478.42 96.598 481.067 96.8975Z" fill="#FAFAFA"/>
<path d="M425.831 96.3706C423.335 96.6701 420.811 96.6701 418.314 96.3706C420.811 96.0711 423.335 96.0711 425.831 96.3706Z" fill="#FAFAFA"/>
<path d="M429.746 107.551C428.901 108.521 427.947 109.391 426.903 110.143C425.952 111.006 424.902 111.754 423.775 112.372C424.617 111.399 425.571 110.529 426.618 109.78C427.567 108.913 428.617 108.165 429.746 107.551Z" fill="#FAFAFA"/>
<path d="M439.378 116.191C438.821 117.357 438.174 118.478 437.443 119.543C436.849 120.692 436.161 121.79 435.387 122.826C435.763 121.58 436.325 120.397 437.054 119.319C437.664 118.163 438.448 117.108 439.378 116.191Z" fill="#FAFAFA"/>
<path d="M450.525 127.345C450.303 126.03 450.228 124.694 450.3 123.362C450.228 122.03 450.303 120.694 450.525 119.379C450.757 120.693 450.836 122.03 450.758 123.362C450.836 124.694 450.757 126.031 450.525 127.345Z" fill="#FAFAFA"/>
<path d="M467.692 122.04C466.479 121.479 465.369 120.716 464.409 119.785C463.356 118.967 462.452 117.974 461.739 116.847C462.776 117.657 463.768 118.522 464.711 119.439C465.754 120.249 466.749 121.117 467.692 122.04Z" fill="#FAFAFA"/>
<path d="M475.753 113.366C474.795 112.703 473.924 111.922 473.161 111.041C472.277 110.265 471.496 109.38 470.837 108.406C471.811 109.065 472.699 109.843 473.481 110.722C474.347 111.504 475.11 112.392 475.753 113.366Z" fill="#FAFAFA"/>
<path d="M429.409 85.6571C428.542 85.1041 427.759 84.429 427.084 83.6526C426.305 82.9757 425.627 82.1901 425.071 81.3198C425.942 81.8753 426.727 82.5533 427.404 83.3329C428.18 84.0073 428.856 84.7901 429.409 85.6571Z" fill="#FAFAFA"/>
<path d="M439.318 75.168C438.462 74.6318 437.69 73.9707 437.029 73.2067C436.26 72.5504 435.596 71.7813 435.059 70.9258C435.913 71.4654 436.684 72.126 437.348 72.8871C438.112 73.5479 438.775 74.3163 439.318 75.168Z" fill="#FAFAFA"/>
<path d="M50.4665 177.682H51.0195H52.6006L58.5795 177.613L79.8685 177.423L79.687 177.613C79.6352 167.003 79.566 154.233 79.4969 140.461L79.7216 140.685H75.7731H71.8851H64.3251H50.3196L50.5184 140.478C50.5184 151.468 50.5184 160.721 50.5184 167.262C50.5184 170.519 50.5184 173.094 50.5184 174.882C50.5184 175.746 50.5184 176.42 50.5184 176.904C50.5184 177.129 50.5184 177.293 50.5184 177.431C50.5269 177.494 50.5269 177.558 50.5184 177.621C50.5144 177.567 50.5144 177.512 50.5184 177.457C50.5184 177.328 50.5184 177.163 50.5184 176.956C50.5184 176.481 50.5184 175.816 50.5184 174.969C50.5184 173.189 50.4752 170.649 50.4406 167.4C50.3888 160.834 50.311 151.537 50.2246 140.504V140.296H50.4233L64.4374 140.219H71.9974H75.8854H79.8252C79.6265 140.02 80.1104 140.495 80.0585 140.452C80.0585 154.19 80.1363 166.96 80.1708 177.604V177.794H58.5708H52.6438H51.0972L50.4665 177.682Z" fill="#E0E0E0"/>
<path d="M66.6669 177.06H62.5889V178.053H66.6669V177.06Z" fill="#EBEBEB"/>
<path d="M69.0854 153.757H60.1689V166.64H69.0854V153.757Z" fill="#E0E0E0"/>
<path d="M67.8066 139.989L63.7285 140.005L63.7319 140.852L67.81 140.835L67.8066 139.989Z" fill="#EBEBEB"/>
<path d="M555.931 75.4472L525.783 78.3076L527.711 98.6241L557.859 95.7636L555.931 75.4472Z" fill="white"/>
<path d="M557.85 95.7828C557.824 95.6575 557.807 95.5304 557.798 95.4026C557.798 95.1262 557.721 94.7719 557.669 94.314C557.574 93.3463 557.427 91.9639 557.237 90.2186C556.883 86.6676 556.373 81.5786 555.742 75.4788L555.941 75.643L525.805 78.546L526.003 78.3041V78.451V78.6238V78.9607L526.064 79.6346L526.193 80.9825C526.271 81.8465 526.358 82.7623 526.444 83.6436C526.611 85.4062 526.772 87.1342 526.928 88.8276C527.247 92.2318 527.558 95.4977 527.844 98.5994L527.619 98.4094L549.297 96.4567L555.526 95.921L557.194 95.7914H557.626C557.729 95.7914 557.781 95.7914 557.781 95.7914C557.605 95.8303 557.426 95.8563 557.246 95.8692L555.621 96.042L549.452 96.6814L527.662 98.8586H527.455V98.6513C527.152 95.5582 526.841 92.2836 526.513 88.8881C526.346 87.1601 526.179 85.4321 526.012 83.7041C525.934 82.8401 525.848 81.9761 525.761 81.043L525.632 79.6951L525.571 79.0212V78.6842V78.5114V78.3646L525.779 78.114L555.924 75.2974H556.105V75.4702C556.649 81.665 557.099 86.7626 557.418 90.3396C557.565 92.0676 557.678 93.4414 557.755 94.409C557.755 94.8497 557.816 95.1953 557.842 95.4631C557.851 95.5694 557.854 95.6762 557.85 95.7828Z" fill="#E0E0E0"/>
<path d="M555.924 75.4619C555.654 75.8721 555.347 76.2568 555.008 76.611L552.364 79.6523C550.117 82.2443 546.981 85.7003 543.465 89.6402L543.344 89.7784L543.18 89.6747L542.376 89.165C537.762 86.2274 533.598 83.5403 530.591 81.579L527.04 79.2376L526.09 78.581C525.874 78.4254 525.761 78.339 525.77 78.3218C525.898 78.3665 526.02 78.4275 526.133 78.5032L527.135 79.0907L530.755 81.3112C533.797 83.2034 537.996 85.8472 542.609 88.7848L543.413 89.3032H543.128C546.653 85.4325 549.832 81.9419 552.096 79.4882L554.844 76.5419C555.177 76.1563 555.538 75.7954 555.924 75.4619Z" fill="#E0E0E0"/>
<path d="M387.305 71.7552C387.574 71.7151 387.83 71.6178 388.057 71.4701C388.315 71.2702 388.501 70.9908 388.584 70.6752C388.636 70.2279 388.65 69.777 388.627 69.3273C388.627 67.2192 388.627 64.2384 388.679 60.5664C388.679 59.6419 388.679 58.6742 388.679 57.6633C388.679 57.1622 388.679 56.6438 388.679 56.1168C388.701 55.8667 388.701 55.6152 388.679 55.3651C388.626 55.1351 388.513 54.9234 388.351 54.7517C388.184 54.5832 387.97 54.4689 387.737 54.4233C387.473 54.4097 387.207 54.4097 386.943 54.4233H381.655H365.749C365.454 54.4376 365.174 54.56 364.964 54.7672C364.754 54.9744 364.627 55.2519 364.608 55.5465C364.608 56.2377 364.608 56.9289 364.608 57.6115C364.608 58.9853 364.608 60.3331 364.548 61.6637C364.504 64.3248 364.461 66.8477 364.418 69.336C364.418 69.647 364.418 69.9494 364.418 70.2518C364.397 70.5126 364.46 70.7733 364.6 70.9949C364.727 71.2146 364.925 71.385 365.161 71.4787C365.419 71.5512 365.689 71.5775 365.956 71.5565H369.326H375.374L384.135 71.6256H386.519H387.133H387.349H387.133H386.519L384.135 71.6688L375.374 71.7379H369.326H365.956C365.641 71.7604 365.325 71.7253 365.023 71.6342C364.703 71.5121 364.432 71.2873 364.254 70.9949C364.077 70.704 363.99 70.3674 364.003 70.0272C364.003 69.7248 364.003 69.4224 364.003 69.1632C364.003 66.7094 364.072 64.1433 364.107 61.4909C364.107 60.1603 364.107 58.8038 364.159 57.4301C364.159 56.7389 364.159 56.039 364.159 55.3392C364.191 54.9302 364.374 54.5479 364.673 54.2668C364.972 53.9857 365.364 53.8259 365.775 53.8185H381.681H386.968C387.256 53.7981 387.545 53.7981 387.832 53.8185C388.139 53.8804 388.419 54.0341 388.636 54.2592C388.85 54.4803 388.995 54.7599 389.051 55.0627C389.083 55.3498 389.083 55.6396 389.051 55.9267C389.051 56.4537 389.051 56.9635 389.051 57.4733C389.051 58.4755 389.008 59.4432 388.99 60.3763C388.912 64.0397 388.843 67.0205 388.8 69.1286C388.807 69.5912 388.775 70.0536 388.705 70.511C388.614 70.8626 388.4 71.1695 388.1 71.375C387.921 71.4931 387.717 71.5671 387.504 71.591C387.45 71.6588 387.382 71.7147 387.305 71.7552Z" fill="#E0E0E0"/>
<path d="M377.465 61.4906L380.411 63.2791L377.395 65.0503L374.389 66.8129L374.449 63.2618L374.51 59.7021L377.465 61.4906Z" fill="#E0E0E0"/>
<path d="M131.942 52.9805H89.1396V108.786L131.942 109.858V52.9805Z" fill="#EBEBEB"/>
<path d="M128.866 54.9678H91.4199V105.581L128.866 106.842V54.9678Z" fill="#FAFAFA"/>
<path d="M122.567 64.1605L97.71 63.2188V98.5909H122.567V64.1605Z" fill="#E0E0E0"/>
<path d="M97.71 98.5909L122.567 80.421L97.71 63.2188V98.5909Z" fill="#F5F5F5"/>
<path d="M450.853 350.948C435.189 340.01 431.638 319.697 432.26 301.441C432.364 298.391 432.027 295.177 433.478 292.507C434.93 289.837 438.308 288.006 441.038 289.284C443.302 290.356 444.287 292.982 445.557 295.16C447.244 298.065 449.722 300.432 452.702 301.985C454.646 302.996 457.022 303.61 458.958 302.556C461.55 301.104 461.895 297.475 461.878 294.443L461.774 277.491C461.774 274.467 461.774 271.365 462.69 268.488C463.606 265.611 465.714 262.941 468.6 262.138C471.486 261.334 475.045 263.002 475.659 265.956C475.77 267.212 475.799 268.473 475.745 269.732C475.823 270.985 476.41 272.385 477.603 272.73C478.795 273.076 480.031 272.229 480.938 271.339C484.065 268.281 486.191 264.341 488.169 260.418C490.148 256.496 492.083 252.478 494.917 249.143C497.751 245.808 501.682 243.164 506.028 242.914C510.374 242.663 514.988 245.35 516.085 249.61C517.183 253.869 514.694 258.25 511.981 261.706C507.957 266.835 503.213 271.357 497.898 275.132C496.86 275.701 496.033 276.589 495.539 277.664C494.883 279.685 496.792 281.69 498.788 282.355C501.052 283.107 503.505 282.874 505.864 283.15C508.223 283.427 510.789 284.472 511.679 286.71C512.923 289.803 510.331 293.052 507.782 295.177C502.677 299.439 496.876 302.789 490.632 305.078C488.403 305.899 486.053 306.616 484.255 308.18C482.458 309.744 485.249 315.291 486.338 317.425C487.426 319.559 486.338 317.425 488.671 316.993C491.003 316.561 493.094 315.265 495.323 314.453C499.488 312.88 504.827 313.165 507.532 316.768C509.26 319.136 509.441 322.428 508.551 325.253C507.538 328.031 505.978 330.579 503.963 332.744C497.359 340.672 488.769 346.706 479.071 350.231C469.412 353.583 460.461 354.491 450.853 350.974" fill="#EBEBEB"/>
<path d="M450.619 364.487C451.465 356.019 453.123 347.651 455.57 339.5C458.601 329.556 462.201 319.794 466.353 310.263C467.433 307.722 468.513 305.217 469.567 302.746C470.621 300.275 471.683 297.83 472.858 295.505C475.128 291.045 477.64 286.713 480.384 282.528C482.976 278.519 485.568 274.804 488.056 271.348C490.545 267.892 492.895 264.712 495.176 261.913C498.756 257.474 502.682 253.325 506.917 249.506C508.412 248.158 509.604 247.147 510.425 246.473L511.358 245.713C511.463 245.622 511.576 245.541 511.695 245.471C511.602 245.574 511.501 245.669 511.393 245.756L510.529 246.56C509.734 247.26 508.568 248.288 507.073 249.67C502.908 253.54 499.038 257.716 495.495 262.164C493.24 264.98 490.89 268.16 488.436 271.616C485.983 275.072 483.399 278.804 480.816 282.848C478.093 287.03 475.598 291.356 473.342 295.808C472.176 298.123 471.131 300.543 470.068 303.022C469.005 305.502 467.934 307.999 466.854 310.539C462.708 320.051 459.102 329.789 456.054 339.708C453.597 347.802 451.907 356.11 451.008 364.522" fill="#E0E0E0"/>
<path d="M473.023 295.488C472.881 295.07 472.782 294.639 472.73 294.2C472.565 293.336 472.375 292.144 472.168 290.632C471.736 287.617 471.304 283.426 470.811 278.804C470.319 274.182 469.818 270.017 469.351 267.01C469.118 265.507 468.919 264.297 468.764 263.459C468.66 263.029 468.604 262.589 468.6 262.146C468.768 262.556 468.895 262.981 468.98 263.416C469.196 264.237 469.455 265.446 469.731 266.941C470.31 269.939 470.881 274.121 471.364 278.743C471.848 283.366 472.228 287.427 472.557 290.58C472.704 292.006 472.833 293.172 472.937 294.166C473.014 294.602 473.043 295.045 473.023 295.488Z" fill="#E0E0E0"/>
<path d="M511.989 288.196C511.478 288.31 510.957 288.373 510.434 288.386C509.44 288.472 507.989 288.593 506.209 288.801C502.641 289.189 497.724 289.889 492.385 290.909C487.045 291.928 482.112 293.069 478.656 293.985C476.928 294.434 475.52 294.849 474.552 295.108C474.059 295.284 473.55 295.408 473.031 295.479C473.497 295.244 473.983 295.05 474.483 294.901C475.433 294.564 476.824 294.106 478.552 293.605C482.008 292.576 486.847 291.384 492.247 290.347C496.854 289.465 501.502 288.817 506.174 288.403C507.971 288.248 509.432 288.187 510.434 288.17C510.952 288.134 511.472 288.143 511.989 288.196Z" fill="#E0E0E0"/>
<path d="M456.045 338.783C455.937 338.636 455.847 338.476 455.777 338.308L455.112 336.899C454.542 335.673 453.756 333.875 452.823 331.646C450.939 327.179 448.503 320.933 445.98 314.003C443.457 307.074 441.072 300.802 439.292 296.309C438.428 294.123 437.694 292.326 437.158 290.987L436.588 289.535C436.512 289.37 436.457 289.196 436.424 289.017C436.536 289.161 436.626 289.321 436.692 289.492C436.873 289.872 437.098 290.356 437.357 290.9C437.936 292.127 438.713 293.924 439.655 296.153C441.539 300.62 443.975 306.867 446.498 313.805C449.021 320.743 451.397 326.998 453.185 331.491L455.311 336.813C455.544 337.392 455.726 337.876 455.881 338.265C455.961 338.428 456.017 338.603 456.045 338.783Z" fill="#E0E0E0"/>
<path d="M507.834 322.099C507.669 322.187 507.495 322.257 507.315 322.306L505.812 322.816L500.257 324.613C495.574 326.125 489.137 328.303 482.018 330.705C474.898 333.107 468.436 335.232 463.718 336.658C461.359 337.366 459.45 337.919 458.119 338.282L456.581 338.679C456.407 338.743 456.223 338.778 456.037 338.783C456.202 338.695 456.375 338.625 456.555 338.576L458.059 338.074L463.597 336.277C468.28 334.757 474.725 332.579 481.845 330.178C488.964 327.776 495.427 325.65 500.144 324.225C502.503 323.516 504.412 322.963 505.743 322.6L507.281 322.203C507.458 322.138 507.645 322.103 507.834 322.099Z" fill="#E0E0E0"/>
<path d="M50.3193 384.765C50.3193 384.636 177.008 384.541 333.253 384.541C489.499 384.541 616.213 384.636 616.213 384.765C616.213 384.895 489.551 384.99 333.253 384.99C176.956 384.99 50.3193 384.886 50.3193 384.765Z" fill="#263238"/>
<path d="M150.474 151.667C150.474 151.667 134.291 326.376 168.013 382.545L467.942 386.087C467.942 386.087 418.262 234.645 422.565 147.096L150.474 151.667Z" fill="#E0E0E0"/>
<path d="M150.474 151.667C150.474 151.667 131.466 331.819 190.694 370.319H479.753C479.753 370.319 428.449 282.372 424.406 151.667H150.474Z" fill="#EBEBEB"/>
<path d="M430.22 109.538H149.005V154.63H430.22V109.538Z" fill="#263238"/>
<path d="M174.139 109.892C174.139 109.892 176.973 99.7056 187.306 99.7056C196.11 99.7056 200.473 106.773 200.473 113.253C200.473 119.733 196.473 126.585 187.306 127.077" stroke="#E0E0E0" stroke-width="3" stroke-linecap="round" stroke-linejoin="round"/>
<path d="M183.833 109.382H169.957V115.577H183.833V109.382Z" fill="#263238"/>
<path d="M227.561 109.892C227.561 109.892 230.394 99.7056 240.728 99.7056C249.532 99.7056 253.895 106.773 253.895 113.253C253.895 119.733 249.895 126.585 240.728 127.077" stroke="#E0E0E0" stroke-width="3" stroke-linecap="round" stroke-linejoin="round"/>
<path d="M237.263 109.382H223.387V115.577H237.263V109.382Z" fill="#263238"/>
<path d="M280.99 109.892C280.99 109.892 283.824 99.7056 294.158 99.7056C302.962 99.7056 307.325 106.773 307.325 113.253C307.325 119.733 303.325 126.585 294.158 127.077" stroke="#E0E0E0" stroke-width="3" stroke-linecap="round" stroke-linejoin="round"/>
<path d="M290.684 109.382H276.809V115.577H290.684V109.382Z" fill="#263238"/>
<path d="M334.411 109.892C334.411 109.892 337.245 99.7056 347.579 99.7056C356.383 99.7056 360.746 106.773 360.746 113.253C360.746 119.733 356.746 126.585 347.579 127.077" stroke="#E0E0E0" stroke-width="3" stroke-linecap="round" stroke-linejoin="round"/>
<path d="M344.114 109.382H330.238V115.577H344.114V109.382Z" fill="#263238"/>
<path d="M387.841 109.892C387.841 109.892 390.675 99.7056 401.008 99.7056C409.812 99.7056 414.176 106.773 414.176 113.253C414.176 119.733 410.175 126.585 401.008 127.077" stroke="#E0E0E0" stroke-width="3" stroke-linecap="round" stroke-linejoin="round"/>
<path d="M397.535 109.382H383.659V115.577H397.535V109.382Z" fill="#263238"/>
<path d="M149.031 156.306C149.031 156.306 145.921 357.074 210.998 357.074L478.311 357.169C478.311 357.169 440.104 318.185 428.786 156.306H149.031Z" fill="#F5F5F5"/>
<path d="M440.173 332.294C440.112 332.121 439.827 331.309 439.197 329.547C438.566 327.784 437.589 325.088 436.423 321.546C434.03 314.504 430.686 304.093 426.859 290.641C419.16 263.753 409.881 224.571 402.667 176.282L402.848 176.437H176.195H174.035L174.26 176.178C178.338 205.243 182.528 233.573 189.31 260.107C192.559 273.078 196.667 285.818 201.605 298.244C206.292 310.019 211.975 321.373 218.591 332.182L218.419 332.087L440.164 332.294L218.419 332.493H218.306L218.246 332.398C211.607 321.584 205.901 310.225 201.19 298.443C196.245 286.002 192.129 273.247 188.87 260.262C182.07 233.694 177.88 205.355 173.793 176.282V176.022H176.212L402.865 176.066H403.021V176.221C410.201 224.51 419.437 263.693 427.057 290.58C430.859 304.041 434.159 314.461 436.561 321.511C438.963 328.562 440.06 331.94 440.173 332.294Z" fill="#263238"/>
<path d="M416.162 254.154C416.162 254.284 365.117 254.379 302.166 254.379C239.215 254.379 188.118 254.284 188.118 254.154C188.118 254.025 239.155 253.93 302.166 253.93C365.178 253.93 416.162 254.016 416.162 254.154Z" fill="#263238"/>
<path d="M428.449 295.859C428.449 295.98 377.386 296.084 314.401 296.084C251.415 296.084 200.353 295.98 200.353 295.859C200.353 295.738 251.398 295.635 314.401 295.635C377.403 295.635 428.449 295.73 428.449 295.859Z" fill="#263238"/>
<path d="M408.447 213.97C408.447 214.091 357.402 214.194 294.451 214.194C231.5 214.194 180.403 214.091 180.403 213.97C180.403 213.849 231.44 213.745 294.451 213.745C357.463 213.745 408.447 213.84 408.447 213.97Z" fill="#263238"/>
<path d="M255.571 332.294C255.571 332.294 255.519 332.165 255.433 331.906C255.346 331.646 255.217 331.24 255.061 330.748C254.733 329.702 254.266 328.199 253.662 326.281C252.452 322.402 250.759 316.777 248.711 309.805C244.641 295.86 239.25 276.523 234.023 254.975C231.431 244.201 229.107 233.893 227.111 224.493C225.115 215.093 223.482 206.6 222.212 199.437C221.547 195.86 221.002 192.62 220.484 189.778C219.966 186.935 219.62 184.481 219.292 182.477C218.963 180.472 218.747 178.926 218.583 177.854C218.514 177.336 218.454 176.939 218.41 176.645C218.367 176.351 218.367 176.239 218.367 176.239C218.407 176.369 218.438 176.502 218.462 176.636C218.514 176.93 218.583 177.327 218.678 177.837L219.464 182.442C219.793 184.447 220.225 186.901 220.735 189.734C221.244 192.568 221.806 195.782 222.463 199.377C223.776 206.522 225.487 214.998 227.456 224.433C229.426 233.868 231.776 244.123 234.368 254.897C239.552 276.437 244.918 295.782 248.91 309.744C250.914 316.717 252.556 322.358 253.722 326.255C254.284 328.19 254.724 329.711 255.035 330.739L255.364 331.914C255.545 332.156 255.571 332.294 255.571 332.294Z" fill="#263238"/>
<path d="M299.808 332.294C299.808 332.294 299.756 332.165 299.67 331.897L299.307 330.739L297.942 326.264C296.758 322.384 295.099 316.76 293.078 309.77C289.069 295.808 283.643 276.48 278.39 254.949C273.137 233.418 268.963 213.762 266.406 199.463C265.749 195.895 265.179 192.655 264.73 189.803C264.281 186.952 263.866 184.507 263.563 182.494C263.261 180.481 263.045 178.952 262.89 177.872C262.82 177.353 262.769 176.956 262.725 176.662C262.682 176.368 262.656 176.256 262.656 176.256C262.656 176.256 262.656 176.385 262.743 176.662L262.95 177.854C263.131 178.934 263.382 180.446 263.71 182.468C264.039 184.49 264.453 186.926 264.946 189.769C265.438 192.611 266.017 195.817 266.674 199.411C269.309 213.684 273.465 233.323 278.77 254.845C284.075 276.368 289.414 295.695 293.346 309.675L298.08 326.22C298.633 328.156 299.057 329.676 299.359 330.713L299.679 331.888C299.732 332.02 299.775 332.156 299.808 332.294Z" fill="#263238"/>
<path d="M346.032 332.295C345.977 332.168 345.928 332.038 345.885 331.906C345.799 331.621 345.669 331.24 345.505 330.748L344.097 326.281C342.861 322.41 341.142 316.777 339.042 309.865C334.895 295.937 329.288 276.653 323.931 255.131C318.574 233.608 314.496 213.892 312.146 199.584C311.55 196.007 311.023 192.759 310.625 189.899C310.228 187.039 309.848 184.585 309.615 182.563C309.381 180.542 309.183 179.004 309.053 177.915C308.993 177.405 308.949 176.999 308.915 176.705C308.88 176.412 308.915 176.299 308.915 176.299C308.915 176.299 308.915 176.429 308.984 176.705L309.165 177.906C309.321 178.986 309.537 180.498 309.813 182.537C310.09 184.576 310.461 187.013 310.902 189.864C311.343 192.715 311.87 195.955 312.483 199.532C314.92 213.857 318.998 233.522 324.389 255.027C329.78 276.532 335.301 295.834 339.379 309.779C341.444 316.734 343.121 322.359 344.287 326.272C344.857 328.208 345.306 329.728 345.617 330.765C345.761 331.261 345.874 331.649 345.954 331.932C346.006 332.156 346.032 332.295 346.032 332.295Z" fill="#263238"/>
<path d="M392.256 332.294C392.2 332.167 392.151 332.037 392.109 331.905L391.72 330.748C391.374 329.711 390.856 328.216 390.26 326.298C388.998 322.436 387.218 316.794 385.076 309.882C380.756 295.989 375.001 276.739 369.524 255.234C366.759 244.486 364.34 234.187 362.439 224.761C361.419 220.061 360.616 215.559 359.847 211.36C359.484 209.252 359.136 207.219 358.801 205.26C358.464 203.308 358.153 201.424 357.937 199.627C355.639 185.241 355.104 176.256 355.104 176.256C355.104 176.256 355.104 176.394 355.164 176.662C355.224 176.93 355.25 177.353 355.311 177.872C355.432 178.96 355.596 180.524 355.821 182.528C356.045 184.533 356.365 187.013 356.736 189.872C357.108 192.732 357.6 195.99 358.145 199.575C358.404 201.372 358.732 203.256 359.078 205.208C359.424 207.161 359.778 209.192 360.141 211.3C360.961 215.49 361.782 219.983 362.802 224.674C364.763 234.083 367.165 244.382 369.921 255.13C375.408 276.618 381.153 295.877 385.352 309.787L390.415 326.246C391.011 328.173 391.478 329.702 391.798 330.722C391.944 331.223 392.057 331.586 392.143 331.888C392.23 332.191 392.256 332.294 392.256 332.294Z" fill="#263238"/>
<path d="M225.348 191.704C225.348 191.704 227.292 210.635 234.809 222.454H279.072C279.072 222.454 268.315 203.308 266.976 190.002L266.008 182.546H224.64L225.348 191.704Z" fill="#455A64"/>
<path d="M262.086 195.022C262.086 195.152 255.787 195.247 248.011 195.247C240.235 195.247 233.937 195.152 233.937 195.022C233.937 194.892 240.235 194.797 248.011 194.797C255.787 194.797 262.086 194.901 262.086 195.022Z" fill="#FAFAFA"/>
<path d="M263.52 199.809C263.52 199.938 257.222 200.033 249.446 200.033C241.67 200.033 235.371 199.938 235.371 199.809C235.371 199.679 241.67 199.584 249.446 199.584C257.222 199.584 263.52 199.688 263.52 199.809Z" fill="#FAFAFA"/>
<path d="M264.902 204.595C264.902 204.716 258.603 204.82 250.827 204.82C243.051 204.82 236.735 204.716 236.735 204.595C236.735 204.474 243.034 204.371 250.81 204.371C258.586 204.371 264.902 204.474 264.902 204.595Z" fill="#FAFAFA"/>
<path d="M266.31 209.382C266.31 209.503 260.012 209.607 252.236 209.607C244.46 209.607 238.161 209.503 238.161 209.382C238.161 209.261 244.46 209.157 252.236 209.157C260.012 209.157 266.31 209.252 266.31 209.382Z" fill="#FAFAFA"/>
<path d="M377.248 238.369C377.248 238.369 379.192 257.299 386.709 269.11H430.954C430.954 269.11 420.197 249.973 418.858 236.667L417.891 229.202H376.505L377.248 238.369Z" fill="#263238"/>
<path d="M413.985 240.736C413.985 240.866 407.686 240.961 399.91 240.961C392.134 240.961 385.836 240.866 385.836 240.736C385.836 240.607 392.143 240.512 399.91 240.512C407.678 240.512 413.985 240.615 413.985 240.736Z" fill="#E0E0E0"/>
<path d="M415.393 245.523C415.393 245.644 409.095 245.748 401.319 245.748C393.543 245.748 387.244 245.644 387.244 245.523C387.244 245.402 393.543 245.298 401.319 245.298C409.095 245.298 415.393 245.376 415.393 245.523Z" fill="#E0E0E0"/>
<path d="M416.802 250.31C416.802 250.431 410.504 250.534 402.728 250.534C394.952 250.534 388.653 250.431 388.653 250.31C388.653 250.189 394.952 250.085 402.728 250.085C410.504 250.085 416.802 250.189 416.802 250.31Z" fill="#E0E0E0"/>
<path d="M418.175 255.096C418.175 255.217 411.877 255.32 404.101 255.32C396.325 255.32 390.026 255.217 390.026 255.096C390.026 254.975 396.325 254.871 404.101 254.871C411.877 254.871 418.175 254.966 418.175 255.096Z" fill="#E0E0E0"/>
<path d="M348.693 179.79C349.151 180.161 343.422 187.79 334.765 195.687C326.108 203.584 318.038 208.647 317.71 208.172C317.381 207.697 324.734 201.848 333.262 194.028C341.789 186.209 348.192 179.366 348.693 179.79Z" fill="#EE628F"/>
<path d="M357.083 208.889C356.72 209.399 347.051 203.109 335.146 195.342C323.24 187.574 313.606 181.241 313.926 180.654C314.245 180.066 324.432 185.604 336.39 193.415C348.347 201.225 357.437 208.388 357.083 208.889Z" fill="#EE628F"/>
<path d="M273.594 205.373C273.214 204.88 279.582 199.403 287.807 193.139C296.032 186.875 303.005 182.2 303.359 182.693C303.713 183.185 297.372 188.663 289.146 194.927C280.921 201.191 273.966 205.865 273.594 205.373Z" fill="#EE628F"/>
<path d="M308.543 208.043C308.145 208.561 299.678 202.591 288.921 195.731C278.164 188.87 269.222 183.635 269.516 183.09C269.81 182.546 279.305 186.892 290.14 193.838C300.974 200.785 308.914 207.576 308.543 208.043Z" fill="#EE628F"/>
<path d="M310.979 258.466C310.979 258.397 311.42 258.293 312.284 258.232C313.557 258.191 314.829 258.319 316.068 258.613C318.05 259.072 319.934 259.879 321.632 260.997C323.922 262.479 325.835 264.473 327.223 266.821C328.894 269.709 329.773 272.987 329.771 276.325C329.785 278.173 329.553 280.015 329.08 281.802C328.558 283.703 327.761 285.516 326.713 287.185C324.336 290.884 320.916 293.796 316.886 295.553C312.856 297.311 308.395 297.835 304.067 297.061C299.574 296.293 295.418 294.185 292.144 291.013C289.119 288.009 287.104 284.137 286.381 279.936C285.7 276.167 286.058 272.284 287.418 268.704C288.608 265.59 290.635 262.866 293.276 260.833C295.419 259.171 297.885 257.974 300.516 257.317C302.488 256.803 304.534 256.633 306.564 256.815C306.956 256.836 307.346 256.885 307.731 256.962C308.094 257.023 308.431 257.066 308.742 257.144C309.355 257.317 309.873 257.437 310.279 257.602C311.083 257.93 311.489 258.137 311.463 258.206C311.394 258.422 309.735 257.705 306.521 257.688C304.607 257.683 302.704 257.974 300.879 258.552C298.469 259.284 296.231 260.492 294.295 262.103C291.966 264.025 290.202 266.542 289.189 269.387C288.031 272.657 287.775 276.178 288.446 279.582C289.136 283.328 290.965 286.771 293.682 289.44C296.653 292.276 300.406 294.157 304.456 294.84C308.494 295.58 312.661 295.065 316.397 293.363C319.884 291.784 322.855 289.254 324.967 286.062C325.929 284.581 326.671 282.969 327.171 281.275C327.631 279.664 327.878 278 327.905 276.325C327.961 273.316 327.25 270.343 325.84 267.685C324.634 265.483 322.952 263.579 320.915 262.112C319.373 260.979 317.657 260.104 315.835 259.52C312.811 258.517 310.971 258.673 310.979 258.466Z" fill="#EE628F"/>
<path d="M188.067 249.143C187.6 248.754 193.044 241.367 200.69 232.986C208.207 224.752 215.101 218.411 215.654 218.972C216.207 219.534 209.943 226.187 202.349 234.524C194.754 242.862 188.559 249.54 188.067 249.143Z" fill="#EE628F"/>
<path d="M223.11 245.618C222.782 246.145 213.943 241.298 203.368 234.74C192.793 228.183 184.481 222.472 184.809 221.944C185.138 221.417 193.873 226.264 204.457 232.822C215.041 239.38 223.439 245.091 223.11 245.618Z" fill="#EE628F"/>
<path d="M307.16 265.317L310.538 270.164C310.673 270.364 310.856 270.528 311.071 270.639C311.285 270.751 311.524 270.807 311.765 270.803H317.675C317.953 270.802 318.226 270.879 318.464 271.024C318.701 271.17 318.893 271.379 319.017 271.628C319.142 271.877 319.195 272.155 319.17 272.432C319.145 272.71 319.043 272.974 318.876 273.197L315.308 277.906C315.162 278.098 315.066 278.323 315.027 278.56C314.988 278.798 315.007 279.042 315.083 279.271L316.941 284.878C317.029 285.142 317.042 285.425 316.977 285.696C316.912 285.966 316.773 286.213 316.575 286.409C316.377 286.604 316.128 286.74 315.857 286.801C315.585 286.862 315.302 286.845 315.04 286.753L309.458 284.818C309.229 284.741 308.985 284.72 308.746 284.756C308.508 284.792 308.281 284.884 308.085 285.025L303.324 288.533C303.1 288.698 302.834 288.797 302.557 288.818C302.279 288.84 302.001 288.783 301.755 288.654C301.508 288.525 301.302 288.33 301.161 288.09C301.02 287.85 300.949 287.575 300.957 287.297L301.069 281.396C301.073 281.154 301.019 280.914 300.91 280.698C300.802 280.481 300.643 280.294 300.447 280.152L295.652 276.696C295.434 276.534 295.265 276.315 295.164 276.063C295.062 275.811 295.032 275.536 295.077 275.268C295.121 275 295.239 274.75 295.417 274.545C295.594 274.339 295.825 274.187 296.084 274.104L301.743 272.376C301.973 272.304 302.183 272.178 302.355 272.008C302.526 271.838 302.654 271.63 302.728 271.4L304.516 265.775C304.595 265.507 304.747 265.266 304.955 265.08C305.164 264.894 305.42 264.77 305.695 264.723C305.971 264.675 306.254 264.705 306.513 264.81C306.772 264.916 306.996 265.091 307.16 265.317Z" fill="#EE628F"/>
<path d="M399.168 179.997C399.583 180.455 392.057 187.877 382.355 196.56C372.652 205.243 364.453 211.905 364.038 211.438C363.623 210.972 371.149 203.567 380.851 194.884C390.554 186.201 398.745 179.531 399.168 179.997Z" fill="#EE628F"/>
<path d="M404.801 206.686C404.525 207.239 393.975 202.513 381.249 196.136C368.522 189.76 358.413 184.127 358.698 183.565C358.983 183.004 369.516 187.738 382.251 194.123C394.986 200.508 405.078 206.133 404.801 206.686Z" fill="#EE628F"/>
<path d="M388.653 189.942H440.174L452.538 199.506L441.634 208.449L392.239 208.397L388.653 189.942Z" fill="#455A64"/>
<path opacity="0.2" d="M307.16 265.317L310.538 270.164C310.673 270.364 310.856 270.528 311.071 270.639C311.285 270.751 311.524 270.807 311.765 270.803H317.675C317.953 270.802 318.226 270.879 318.464 271.024C318.701 271.17 318.893 271.379 319.017 271.628C319.142 271.877 319.195 272.155 319.17 272.432C319.145 272.71 319.043 272.974 318.876 273.197L315.308 277.906C315.162 278.098 315.066 278.323 315.027 278.56C314.988 278.798 315.007 279.042 315.083 279.271L316.941 284.878C317.029 285.142 317.042 285.425 316.977 285.696C316.912 285.966 316.773 286.213 316.575 286.409C316.377 286.604 316.128 286.74 315.857 286.801C315.585 286.862 315.302 286.845 315.04 286.753L309.458 284.818C309.229 284.741 308.985 284.72 308.746 284.756C308.508 284.792 308.281 284.884 308.085 285.025L303.324 288.533C303.1 288.698 302.834 288.797 302.557 288.818C302.279 288.84 302.001 288.783 301.755 288.654C301.508 288.525 301.302 288.33 301.161 288.09C301.02 287.85 300.949 287.575 300.957 287.297L301.069 281.396C301.073 281.154 301.019 280.914 300.91 280.698C300.802 280.481 300.643 280.294 300.447 280.152L295.652 276.696C295.434 276.534 295.265 276.315 295.164 276.063C295.062 275.811 295.032 275.536 295.077 275.268C295.121 275 295.239 274.75 295.417 274.545C295.594 274.339 295.825 274.187 296.084 274.104L301.743 272.376C301.973 272.304 302.183 272.178 302.355 272.008C302.526 271.838 302.654 271.63 302.728 271.4L304.516 265.775C304.595 265.507 304.747 265.266 304.955 265.08C305.164 264.894 305.42 264.77 305.695 264.723C305.971 264.675 306.254 264.705 306.513 264.81C306.772 264.916 306.996 265.091 307.16 265.317Z" fill="white"/>
<path d="M524.379 380.419L524.422 373.144H538.047L538.099 383.78L537.235 383.84C533.476 384.048 518.106 384.653 515.635 383.892C512.81 383.028 524.379 380.419 524.379 380.419Z" fill="#EE628F"/>
<g opacity="0.6">
<path d="M533.174 383.841C533.37 382.692 533.986 381.658 534.902 380.938C535.801 380.221 536.935 379.867 538.081 379.944V383.754L533.174 383.841Z" fill="white"/>
</g>
<g opacity="0.6">
<path d="M518.745 381.888C518.745 381.888 514.693 383.063 515.203 383.728C515.712 384.393 531.256 384.376 538.116 383.728V383.426L519.972 383.607C519.972 383.607 519.54 381.888 518.745 381.888Z" fill="white"/>
</g>
<path d="M538.194 383.357H537.961H537.287L534.807 383.46C532.716 383.538 529.831 383.607 526.634 383.616C523.437 383.625 520.586 383.564 518.46 383.495L515.989 383.4L515.315 383.357H515.082H515.989L518.469 383.409C520.56 383.409 523.446 383.486 526.634 383.478C529.822 383.469 532.682 383.417 534.807 383.374L537.287 383.313H538.151L538.194 383.357Z" fill="#263238"/>
<path d="M519.955 383.901C519.845 383.492 519.689 383.098 519.488 382.726C519.234 382.38 518.945 382.061 518.624 381.775C519.047 381.934 519.397 382.241 519.609 382.639C519.876 383.003 519.999 383.452 519.955 383.901Z" fill="#263238"/>
<path d="M524.231 381.542C524.231 381.542 523.998 381.335 523.799 381.015C523.601 380.696 523.471 380.437 523.514 380.411C523.557 380.385 523.739 380.618 523.938 380.929C524.081 381.109 524.181 381.318 524.231 381.542Z" fill="#263238"/>
<path d="M525.312 380.955C525.312 380.955 525.062 380.842 524.828 380.635C524.595 380.428 524.431 380.229 524.457 380.195C524.483 380.16 524.699 380.307 524.941 380.514C525.183 380.722 525.364 380.92 525.312 380.955Z" fill="#263238"/>
<path d="M526.029 379.667C526.029 379.719 525.709 379.754 525.321 379.762C524.932 379.771 524.604 379.762 524.604 379.685C524.833 379.603 525.078 379.573 525.321 379.598C525.559 379.568 525.801 379.592 526.029 379.667Z" fill="#263238"/>
<path d="M526.271 378.76C526.036 378.916 525.759 378.997 525.476 378.994C525.184 379.045 524.884 379.009 524.612 378.89C524.877 378.841 525.147 378.821 525.416 378.829C525.698 378.779 525.985 378.756 526.271 378.76Z" fill="#263238"/>
<path d="M523.765 380.35C523.479 380.398 523.187 380.398 522.901 380.35C522.584 380.31 522.272 380.24 521.968 380.143C521.782 380.09 521.602 380.018 521.432 379.927C521.327 379.865 521.25 379.767 521.216 379.65C521.203 379.585 521.209 379.518 521.233 379.457C521.258 379.395 521.3 379.342 521.354 379.305C521.687 379.141 522.066 379.098 522.427 379.183C522.788 379.268 523.108 379.476 523.333 379.771C523.47 379.941 523.567 380.138 523.618 380.35C523.661 380.506 523.618 380.592 523.618 380.592C523.532 380.32 523.397 380.065 523.22 379.84C523.017 379.616 522.757 379.449 522.469 379.356C522.299 379.301 522.121 379.279 521.943 379.292C521.765 379.305 521.591 379.354 521.432 379.434C521.294 379.538 521.346 379.702 521.501 379.788C521.657 379.877 521.822 379.946 521.994 379.996C522.274 380.099 522.563 380.178 522.858 380.229C523.436 380.324 523.765 380.324 523.765 380.35Z" fill="#263238"/>
<path d="M523.584 380.393C523.476 380.211 523.439 379.996 523.48 379.788C523.511 379.56 523.593 379.341 523.722 379.149C523.797 379.02 523.902 378.912 524.029 378.834C524.155 378.755 524.299 378.709 524.448 378.7C524.537 378.718 524.615 378.772 524.665 378.848C524.715 378.924 524.733 379.016 524.715 379.106C524.703 379.246 524.652 379.381 524.569 379.495C524.455 379.688 524.318 379.868 524.162 380.03C524.027 380.187 523.855 380.309 523.661 380.385C523.661 380.385 523.834 380.229 524.076 379.944C524.213 379.783 524.335 379.609 524.439 379.425C524.56 379.235 524.638 378.907 524.439 378.864C524.24 378.821 523.998 379.063 523.86 379.235C523.739 379.406 523.657 379.6 523.618 379.806C523.586 380 523.574 380.197 523.584 380.393Z" fill="#263238"/>
<path d="M538.272 379.883C538.272 379.883 537.883 379.883 537.27 379.927C536.473 380.009 535.714 380.307 535.075 380.791C534.451 381.3 533.976 381.969 533.701 382.726C533.494 383.313 533.477 383.702 533.442 383.702C533.431 383.61 533.431 383.518 533.442 383.426C533.47 383.177 533.519 382.931 533.589 382.691C533.835 381.892 534.316 381.185 534.969 380.662C535.623 380.14 536.418 379.826 537.252 379.762C537.502 379.739 537.754 379.739 538.004 379.762C538.099 379.788 538.19 379.829 538.272 379.883Z" fill="#263238"/>
<path d="M536.863 373.792C536.999 375.656 537.025 377.525 536.941 379.391C536.806 377.528 536.78 375.659 536.863 373.792Z" fill="#263238"/>
<path d="M531.714 382.069C531.063 382.222 530.395 382.289 529.726 382.268C529.06 382.305 528.392 382.253 527.739 382.112C527.739 382.061 528.603 382.112 529.726 382.112C530.85 382.112 531.714 382.017 531.714 382.069Z" fill="#263238"/>
<path d="M534.383 382.061C534.383 382.061 534.314 382.251 534.228 382.458C534.141 382.665 534.081 382.838 534.038 382.838C533.995 382.838 533.969 382.622 534.038 382.389C534.107 382.156 534.357 382.026 534.383 382.061Z" fill="#263238"/>
<path d="M535.395 380.808C535.395 380.808 535.334 380.981 535.196 381.128C535.058 381.274 534.911 381.361 534.885 381.326C534.859 381.292 534.937 381.153 535.075 381.007C535.213 380.86 535.36 380.773 535.395 380.808Z" fill="#263238"/>
<path d="M536.829 380.237C536.829 380.281 536.639 380.281 536.44 380.35C536.241 380.419 536.094 380.531 536.06 380.497C536.025 380.462 536.138 380.281 536.388 380.194C536.639 380.108 536.846 380.16 536.829 380.237Z" fill="#263238"/>
<path d="M537.857 379.961C537.857 380.004 537.797 380.073 537.685 380.117C537.572 380.16 537.46 380.168 537.443 380.117C537.425 380.065 537.512 380.004 537.624 379.961C537.736 379.918 537.84 379.918 537.857 379.961Z" fill="#263238"/>
<path d="M478.189 140.322L598.095 145.152V172.8L476.418 168.333L478.189 140.322Z" fill="#EE628F"/>
<path d="M456.779 150.604C456.779 150.604 449.954 149.792 448.338 152.729C448.338 152.729 449.72 156.462 456.485 156.185L456.779 150.604Z" fill="#EE628F"/>
<path d="M456.191 149.317L455.509 156.963L463.725 157.766C463.725 157.766 467.104 158.043 471 162.233C474.897 166.424 476.435 168.333 476.435 168.333L478.206 140.322L472.806 145.385C471.733 146.386 470.501 147.201 469.16 147.796C467.536 148.596 465.813 149.177 464.036 149.524C461.42 149.63 458.799 149.561 456.191 149.317Z" fill="#263238"/>
<path d="M598.095 145.152C598.095 145.152 605.326 149.29 603.884 159.987C602.648 169.206 598.095 172.808 598.095 172.808V145.152Z" fill="#263238"/>
<path opacity="0.4" d="M477.619 150.535L598.095 154.941V162.423L477.17 157.611L477.619 150.535Z" fill="white"/>
<g opacity="0.3">
<path d="M546.912 144.884C548.787 145.023 550.04 146.837 551.69 147.744C553.34 148.651 555.301 148.608 556.874 149.533C557.572 149.931 558.168 150.487 558.615 151.156C559.062 151.825 559.346 152.588 559.447 153.386C559.548 154.184 559.461 154.995 559.194 155.753C558.928 156.512 558.488 157.198 557.911 157.758C556.502 159.097 554.23 159.831 553.815 161.732C553.634 162.596 553.513 163.875 552.658 163.737C552.182 163.668 551.949 163.132 551.604 162.804C550.869 162.095 549.59 162.406 548.856 163.115C548.187 163.895 547.608 164.747 547.128 165.655C546.889 166.105 546.535 166.484 546.103 166.754C545.671 167.024 545.175 167.175 544.666 167.193C544.666 168.333 544.666 169.707 544.666 170.847L538.756 170.554L539.421 146.491L546.912 144.884Z" fill="black"/>
</g>
<path d="M566.127 380.851V373.585H552.458L552.406 384.221L553.27 384.273C557.029 384.489 572.391 385.085 574.87 384.324C577.696 383.469 566.127 380.851 566.127 380.851Z" fill="#EE628F"/>
<g opacity="0.6">
<path d="M557.331 384.281C557.135 383.13 556.52 382.093 555.603 381.37C554.705 380.653 553.57 380.301 552.424 380.385V384.186L557.331 384.281Z" fill="white"/>
</g>
<g opacity="0.6">
<path d="M571.761 382.32C571.761 382.32 575.813 383.495 575.303 384.16C574.793 384.825 559.25 384.808 552.39 384.203V383.892L570.534 384.074C570.534 384.074 570.966 382.354 571.761 382.32Z" fill="white"/>
</g>
<path d="M552.312 383.789C552.389 383.8 552.467 383.8 552.545 383.789H553.219L555.698 383.901C557.789 383.979 560.675 384.048 563.872 384.056C567.069 384.065 569.92 384.005 572.045 383.935L574.516 383.832H575.19H575.424H574.56L572.08 383.875C569.989 383.918 567.103 383.953 563.915 383.944C560.727 383.935 557.867 383.892 555.742 383.84L553.262 383.789H552.588H552.312Z" fill="#263238"/>
<path d="M570.551 384.342C570.658 383.93 570.815 383.532 571.018 383.158C571.272 382.812 571.561 382.493 571.882 382.208C571.461 382.369 571.112 382.675 570.897 383.072C570.627 383.437 570.503 383.89 570.551 384.342Z" fill="#263238"/>
<path d="M566.274 381.974C566.274 381.974 566.507 381.767 566.706 381.456C566.904 381.145 567.034 380.868 566.991 380.842C566.947 380.816 566.766 381.05 566.567 381.361C566.369 381.672 566.23 381.948 566.274 381.974Z" fill="#263238"/>
<path d="M565.168 381.387C565.168 381.387 565.418 381.283 565.652 381.067C565.885 380.851 566.049 380.661 566.023 380.627C565.997 380.592 565.773 380.739 565.539 380.946C565.306 381.154 565.142 381.361 565.168 381.387Z" fill="#263238"/>
<path d="M564.477 380.108C564.703 380.19 564.945 380.219 565.185 380.194C565.429 380.238 565.68 380.226 565.919 380.16C565.919 380.108 565.6 380.073 565.202 380.065C564.805 380.056 564.477 380.056 564.477 380.108Z" fill="#263238"/>
<path d="M564.235 379.201C564.475 379.347 564.75 379.425 565.03 379.425C565.308 379.477 565.595 379.441 565.851 379.322C565.588 379.285 565.321 379.276 565.056 379.296C564.787 379.236 564.511 379.204 564.235 379.201Z" fill="#263238"/>
<path d="M566.783 380.79C567.069 380.842 567.361 380.842 567.647 380.79C567.963 380.75 568.275 380.683 568.58 380.592C568.766 380.535 568.945 380.459 569.116 380.367C569.22 380.309 569.298 380.213 569.332 380.099C569.345 380.033 569.339 379.965 569.314 379.902C569.29 379.839 569.248 379.785 569.194 379.745C568.861 379.581 568.482 379.538 568.121 379.623C567.76 379.708 567.44 379.916 567.215 380.212C567.081 380.387 566.981 380.586 566.921 380.799C566.901 380.875 566.901 380.956 566.921 381.032C567.007 380.762 567.142 380.511 567.319 380.289C567.516 380.057 567.778 379.889 568.071 379.805C568.239 379.746 568.418 379.721 568.596 379.733C568.774 379.745 568.948 379.793 569.107 379.875C569.246 379.978 569.194 380.142 569.038 380.237C568.881 380.322 568.716 380.392 568.546 380.445C568.263 380.541 567.974 380.619 567.682 380.678C567.068 380.756 566.783 380.765 566.783 380.79Z" fill="#263238"/>
<path d="M566.965 380.834C567.068 380.647 567.104 380.431 567.068 380.221C567.036 379.992 566.953 379.774 566.826 379.581C566.754 379.452 566.649 379.343 566.521 379.266C566.394 379.188 566.249 379.145 566.101 379.141C566.012 379.157 565.933 379.209 565.881 379.283C565.83 379.357 565.809 379.449 565.824 379.538C565.846 379.681 565.899 379.816 565.98 379.935C566.096 380.125 566.232 380.302 566.386 380.463C566.522 380.62 566.694 380.741 566.887 380.817C566.887 380.817 566.714 380.661 566.472 380.385C566.332 380.223 566.211 380.046 566.109 379.858C565.988 379.668 565.911 379.339 566.109 379.296C566.308 379.253 566.55 379.495 566.688 379.676C566.81 379.843 566.893 380.035 566.93 380.238C566.957 380.435 566.968 380.635 566.965 380.834Z" fill="#263238"/>
<path d="M552.226 380.324C552.226 380.324 552.614 380.324 553.228 380.324C554.025 380.406 554.784 380.705 555.422 381.188C556.047 381.7 556.522 382.372 556.796 383.132C556.897 383.45 556.981 383.773 557.047 384.1C557.047 384.1 557.047 384.005 557.047 383.823C557.019 383.574 556.967 383.328 556.891 383.089C556.65 382.289 556.171 381.581 555.518 381.06C554.866 380.538 554.07 380.228 553.236 380.169C552.987 380.14 552.735 380.14 552.485 380.169C552.39 380.206 552.303 380.258 552.226 380.324Z" fill="#263238"/>
<path d="M553.642 374.224C553.551 375.154 553.511 376.089 553.521 377.023C553.48 377.957 553.494 378.891 553.564 379.823C553.7 377.96 553.726 376.09 553.642 374.224Z" fill="#263238"/>
<path d="M558.783 382.501C559.434 382.654 560.102 382.721 560.77 382.7C561.44 382.737 562.111 382.685 562.766 382.545C562.766 382.501 561.902 382.545 560.779 382.545C559.656 382.545 558.792 382.458 558.783 382.501Z" fill="#263238"/>
<path d="M556.113 382.493C556.113 382.493 556.191 382.683 556.277 382.89C556.364 383.098 556.424 383.279 556.467 383.27C556.511 383.262 556.537 383.054 556.467 382.821C556.398 382.588 556.148 382.467 556.113 382.493Z" fill="#263238"/>
<path d="M555.111 381.24C555.111 381.24 555.172 381.422 555.31 381.56C555.448 381.698 555.587 381.793 555.621 381.759C555.656 381.724 555.569 381.586 555.431 381.447C555.293 381.309 555.146 381.214 555.111 381.24Z" fill="#263238"/>
<path d="M553.677 380.67C553.677 380.713 553.867 380.713 554.066 380.782C554.264 380.851 554.411 380.963 554.446 380.929C554.48 380.894 554.368 380.713 554.117 380.626C553.867 380.54 553.66 380.626 553.677 380.67Z" fill="#263238"/>
<path d="M552.648 380.402C552.648 380.445 552.709 380.514 552.821 380.558C552.934 380.601 553.046 380.601 553.054 380.558C553.063 380.514 552.994 380.445 552.882 380.402C552.769 380.359 552.666 380.359 552.648 380.402Z" fill="#263238"/>
<path d="M516.991 177.051C516.991 177.051 495.867 185.984 495.193 185.691C494.519 185.397 494.026 169.024 494.026 169.024L483.486 168.635C483.486 168.635 481.516 193.57 487.806 197.614C496.446 203.143 517.423 191.644 517.423 191.644L516.991 177.051Z" fill="#FFBE9D"/>
<path d="M527.627 171.201C527.627 168.558 527.627 166.259 527.627 166.259C527.627 166.259 522.297 165.698 521.968 160.41C521.64 155.122 521.968 142.931 521.968 142.931L531.68 138.188L542.359 146.275L541.235 171.443C541.155 173.188 540.406 174.836 539.143 176.043C537.88 177.249 536.2 177.923 534.453 177.923C532.657 177.935 530.93 177.234 529.65 175.974C528.371 174.713 527.643 172.997 527.627 171.201Z" fill="#FFBE9D"/>
<path d="M523.065 151.822C523.064 151.958 523.103 152.091 523.177 152.204C523.251 152.318 523.358 152.407 523.483 152.459C523.608 152.512 523.746 152.526 523.879 152.5C524.012 152.474 524.135 152.409 524.231 152.313C524.327 152.217 524.392 152.095 524.418 151.962C524.444 151.828 524.43 151.69 524.377 151.565C524.324 151.44 524.235 151.334 524.122 151.259C524.008 151.185 523.875 151.146 523.739 151.148C523.561 151.148 523.389 151.219 523.263 151.345C523.136 151.472 523.065 151.643 523.065 151.822Z" fill="#263238"/>
<path d="M522.409 151.079C522.495 151.174 522.996 150.742 523.731 150.708C524.465 150.673 525.001 151.019 525.079 150.924C525.156 150.829 525.027 150.716 524.785 150.552C524.462 150.342 524.08 150.242 523.696 150.267C523.314 150.287 522.95 150.433 522.659 150.682C522.443 150.872 522.366 151.045 522.409 151.079Z" fill="#263238"/>
<path d="M530.91 151.822C530.91 151.955 530.95 152.085 531.024 152.196C531.098 152.307 531.203 152.393 531.326 152.444C531.449 152.495 531.585 152.509 531.716 152.483C531.846 152.457 531.966 152.393 532.061 152.298C532.155 152.204 532.219 152.084 532.245 151.953C532.271 151.823 532.258 151.687 532.207 151.564C532.156 151.441 532.069 151.336 531.959 151.262C531.848 151.187 531.717 151.148 531.584 151.148C531.405 151.148 531.234 151.219 531.108 151.345C530.981 151.472 530.91 151.643 530.91 151.822Z" fill="#263238"/>
<path d="M530.496 151.079C530.582 151.174 531.083 150.742 531.809 150.707C532.535 150.673 533.088 151.019 533.166 150.923C533.243 150.828 533.105 150.716 532.872 150.552C532.549 150.344 532.167 150.244 531.784 150.267C531.4 150.29 531.033 150.436 530.738 150.682C530.496 150.872 530.444 151.044 530.496 151.079Z" fill="#263238"/>
<path d="M527.904 157.248C527.513 157.356 527.106 157.394 526.703 157.36C526.591 157.372 526.478 157.372 526.366 157.36C526.288 157.342 526.216 157.305 526.156 157.252C526.095 157.199 526.049 157.133 526.02 157.058C525.946 156.791 525.967 156.507 526.081 156.255L526.547 154.734C526.905 153.414 527.397 152.134 528.016 150.915C527.819 152.269 527.471 153.596 526.979 154.872L526.435 156.384C526.347 156.548 526.308 156.734 526.323 156.92C526.323 157.015 526.478 157.058 526.668 157.067C527.403 157.101 527.904 157.17 527.904 157.248Z" fill="#263238"/>
<path d="M531.359 157.593C531.359 158.198 532.301 158.63 533.424 158.656C534.548 158.682 535.489 158.285 535.515 157.689C535.541 157.092 534.651 156.505 533.45 156.479C532.249 156.453 531.359 156.997 531.359 157.593Z" fill="#EB996E"/>
<path d="M530.263 157.922C531.006 157.438 528.232 159.14 526.746 159.14C527.012 159.51 527.395 159.778 527.832 159.902C528.27 160.026 528.737 159.998 529.157 159.823C530.712 159.166 530.263 157.922 530.263 157.922Z" fill="white"/>
<path d="M527.333 166.259C529.844 166.156 532.273 165.335 534.331 163.892C534.331 163.892 532.742 167.78 527.419 167.555L527.333 166.259Z" fill="#EB996E"/>
<path d="M550.125 150.682V151.623C550.013 150.647 549.737 148.418 549.581 147.813C546.695 136.788 537.01 134.732 535.092 134.732C533.035 134.732 529.441 133.609 524.197 139.052C522.713 140.477 521.695 142.317 521.277 144.331C520.859 146.345 521.061 148.439 521.855 150.336L522.719 149.524L530.495 147.528C529.882 145.446 530.78 142.854 531.29 141.653L531.342 141.601C532.88 149.515 541.598 150.336 541.598 150.336L540.863 165.024C551.231 162.838 550.125 150.682 550.125 150.682Z" fill="#263238"/>
<path d="M549.866 150.146C549.855 149.51 550.058 148.889 550.444 148.384C550.83 147.879 551.376 147.519 551.992 147.364C553.245 147.087 554.557 147.293 555.664 147.942C556.251 148.197 556.773 148.578 557.195 149.06C557.616 149.541 557.925 150.109 558.1 150.725C558.394 152.245 557.409 153.697 556.424 154.906C555.858 155.684 555.166 156.361 554.376 156.911C553.978 157.182 553.523 157.361 553.046 157.434C552.569 157.507 552.082 157.473 551.62 157.334C550.868 157.009 550.255 156.427 549.892 155.693C549.232 154.447 549.006 153.016 549.252 151.627C549.498 150.239 550.201 148.972 551.249 148.029" fill="#263238"/>
<path d="M530.833 137.531C530.032 137.85 529.212 138.121 528.379 138.343C526.461 139.022 524.736 140.154 523.351 141.643C521.965 143.133 520.96 144.935 520.422 146.897C519.981 148.4 519.929 149.403 519.782 149.394C519.636 149.385 519.506 148.383 519.782 146.75C520.188 144.609 521.191 142.627 522.675 141.032C524.16 139.438 526.066 138.296 528.172 137.739C529.796 137.324 530.833 137.428 530.833 137.531Z" fill="#263238"/>
<path d="M542.964 157.015C542.883 156.141 542.977 155.26 543.24 154.423C543.383 154.003 543.635 153.63 543.971 153.341C544.307 153.053 544.714 152.859 545.149 152.781C545.655 152.761 546.151 152.925 546.545 153.243C546.939 153.56 547.205 154.01 547.292 154.509C547.347 155.014 547.253 155.523 547.021 155.975C546.789 156.426 546.43 156.8 545.988 157.049C545.536 157.284 545.037 157.414 544.529 157.429C544.02 157.444 543.514 157.344 543.05 157.136" fill="#FFBE9D"/>
<path d="M544.519 156.6C544.519 156.531 544.726 156.462 544.976 156.237C545.136 156.1 545.267 155.932 545.361 155.744C545.454 155.555 545.509 155.35 545.521 155.14C545.519 154.929 545.473 154.722 545.387 154.53C545.301 154.338 545.176 154.166 545.02 154.025C544.778 153.792 544.562 153.705 544.579 153.636C544.596 153.567 544.847 153.55 545.21 153.766C545.446 153.91 545.64 154.113 545.773 154.355C545.906 154.597 545.973 154.87 545.968 155.146C545.962 155.422 545.885 155.692 545.743 155.929C545.601 156.166 545.399 156.361 545.158 156.496C544.786 156.695 544.519 156.652 544.519 156.6Z" fill="#EB996E"/>
<path d="M528.309 151.485C528.309 151.485 528.309 151.399 528.309 151.226C528.303 150.967 528.33 150.709 528.387 150.457C528.591 149.512 529.12 148.668 529.882 148.072C530.453 147.628 531.126 147.334 531.84 147.218C532.554 147.102 533.286 147.167 533.969 147.407C534.818 147.701 535.554 148.252 536.075 148.984C536.596 149.715 536.876 150.591 536.876 151.49C536.876 152.388 536.596 153.264 536.075 153.995C535.554 154.727 534.818 155.278 533.969 155.572C533.286 155.812 532.554 155.877 531.84 155.761C531.126 155.645 530.453 155.351 529.882 154.907C529.12 154.311 528.591 153.467 528.387 152.522C528.33 152.27 528.303 152.012 528.309 151.753C528.309 151.58 528.309 151.485 528.309 151.485C528.309 151.485 528.309 151.857 528.525 152.479C528.778 153.353 529.312 154.118 530.046 154.656C530.633 155.093 531.331 155.359 532.06 155.423C532.789 155.487 533.522 155.347 534.176 155.018C534.831 154.69 535.381 154.186 535.765 153.563C536.15 152.939 536.353 152.222 536.353 151.49C536.353 150.757 536.15 150.04 535.765 149.416C535.381 148.793 534.831 148.289 534.176 147.961C533.522 147.632 532.789 147.492 532.06 147.556C531.331 147.62 530.633 147.886 530.046 148.323C529.312 148.861 528.778 149.626 528.525 150.5C528.353 151.122 528.353 151.494 528.309 151.485Z" fill="#263238"/>
<path d="M518.763 151.485C518.763 151.485 518.763 151.399 518.763 151.226C518.757 150.967 518.783 150.709 518.84 150.457C519.044 149.512 519.573 148.668 520.335 148.072C520.906 147.628 521.579 147.334 522.294 147.218C523.008 147.102 523.739 147.167 524.422 147.407C525.271 147.701 526.007 148.252 526.528 148.984C527.049 149.715 527.329 150.591 527.329 151.49C527.329 152.388 527.049 153.264 526.528 153.995C526.007 154.727 525.271 155.278 524.422 155.572C523.739 155.812 523.008 155.877 522.294 155.761C521.579 155.645 520.906 155.351 520.335 154.907C519.573 154.311 519.044 153.467 518.84 152.522C518.783 152.27 518.757 152.012 518.763 151.753C518.763 151.58 518.763 151.485 518.763 151.485C518.763 151.485 518.763 151.857 518.979 152.479C519.23 153.351 519.761 154.116 520.491 154.656C521.024 155.048 521.647 155.302 522.303 155.394C522.959 155.486 523.628 155.413 524.249 155.183C525.003 154.903 525.653 154.399 526.112 153.739C526.572 153.079 526.818 152.294 526.818 151.49C526.818 150.685 526.572 149.9 526.112 149.24C525.653 148.58 525.003 148.076 524.249 147.796C523.628 147.566 522.959 147.493 522.303 147.585C521.647 147.677 521.024 147.931 520.491 148.323C519.761 148.863 519.23 149.628 518.979 150.5C518.797 151.122 518.806 151.494 518.763 151.485Z" fill="#263238"/>
<path d="M527.04 151.623C527.04 151.493 527.377 151.398 527.8 151.398C528.224 151.398 528.561 151.493 528.561 151.623C528.561 151.753 528.215 151.848 527.8 151.848C527.386 151.848 527.04 151.744 527.04 151.623Z" fill="#263238"/>
<path d="M536.457 152.358C537.708 152.378 538.952 152.546 540.164 152.859C541.406 153.027 542.625 153.343 543.792 153.801C542.538 153.786 541.29 153.618 540.077 153.3C538.837 153.131 537.622 152.815 536.457 152.358Z" fill="#263238"/>
<path d="M512.507 238.205L519.125 377.939L540.336 378.389L534.833 257.636L549.192 377.879L570.853 378.415L553.901 236.675" fill="#263238"/>
<path d="M529.113 378.155C528.992 378.155 527.463 346.93 525.709 308.405C523.955 269.879 522.624 238.645 522.754 238.637C522.883 238.628 524.447 269.853 526.175 308.387C527.903 346.922 529.243 378.147 529.113 378.155Z" fill="#455A64"/>
<path d="M560.779 377.024C560.649 377.024 556.839 346.715 552.26 309.295C547.681 271.875 544.069 241.523 544.199 241.505C544.328 241.488 548.13 271.815 552.709 309.243C557.288 346.671 560.9 377.015 560.779 377.024Z" fill="#455A64"/>
<path d="M559.311 205.675L570.18 192.084L556.822 178.615C554.254 175.936 551.098 173.892 547.603 172.644C545.9 172.041 544.12 171.683 542.316 171.582V170.502L536.458 170.614C536.458 170.614 536.155 171.538 535.836 172.584C535.525 173.448 535.369 175.124 534.972 175.124C534.574 175.124 534.004 173.396 533.434 172.532L532.431 170.519L527.023 170.26V171.616C523.482 172.075 520.039 173.105 516.828 174.666L496.878 182.753L503.271 200.387L516.802 195.834C516.715 196.076 516.62 196.318 516.551 196.569C516.135 198.044 516.119 199.603 516.505 201.086C516.891 202.57 517.664 203.924 518.746 205.01L518.487 219.231L512.439 238.17L553.833 238.602L549.124 218.151L551.267 197.882L559.311 205.675Z" fill="#455A64"/>
<path d="M532.319 170.752C532.301 171.184 532.205 171.609 532.034 172.005L531.611 173.31C531.516 173.56 531.447 173.802 531.326 174.096C531.262 174.28 531.132 174.433 530.963 174.528C530.863 174.576 530.752 174.597 530.642 174.59C530.531 174.582 530.424 174.546 530.332 174.485C529.094 173.742 527.936 172.873 526.876 171.893C528.183 172.503 529.425 173.244 530.583 174.105C530.902 174.407 531.058 173.638 531.256 173.189L531.775 171.91C531.891 171.497 532.075 171.105 532.319 170.752Z" fill="#263238"/>
<path d="M542.799 171.858C541.887 173.297 540.679 174.525 539.257 175.461L538.954 175.677L538.773 175.807L538.643 175.617C537.696 174.35 537.033 172.895 536.699 171.349C536.82 171.349 537.563 173.241 539.015 175.366L538.704 175.306L538.989 175.098C541.235 173.491 542.695 171.772 542.799 171.858Z" fill="#263238"/>
<path d="M533.277 238.464C533.238 238.253 533.22 238.039 533.225 237.825C533.225 237.358 533.226 236.744 533.165 235.976C533.165 234.377 533.165 232.053 533.165 229.185C533.269 223.448 533.537 215.533 533.873 206.79C534.21 198.046 534.504 190.175 534.737 184.403C534.807 181.569 534.867 179.219 534.91 177.612C534.91 176.846 534.91 176.233 534.91 175.772C534.901 175.555 534.915 175.338 534.953 175.124C534.953 175.124 534.953 175.349 535.005 175.763C535.057 176.178 535.005 176.843 535.066 177.612C535.066 179.219 535.066 181.544 535.066 184.403C534.962 190.14 534.694 198.063 534.349 206.807C534.003 215.551 533.727 223.422 533.485 229.193C533.407 232.018 533.346 234.325 533.303 235.976C533.303 236.744 533.303 237.358 533.303 237.825C533.313 238.038 533.305 238.252 533.277 238.464Z" fill="#263238"/>
<path d="M538.453 185.552C538.453 185.501 538.808 185.44 539.127 185.855C539.221 185.976 539.285 186.117 539.315 186.267C539.345 186.417 539.34 186.571 539.3 186.719C539.241 186.908 539.127 187.076 538.974 187.202C538.82 187.328 538.633 187.406 538.436 187.427C538.244 187.462 538.046 187.439 537.866 187.362C537.687 187.286 537.533 187.158 537.425 186.995C537.349 186.866 537.301 186.722 537.286 186.573C537.271 186.424 537.289 186.273 537.339 186.131C537.529 185.648 537.9 185.596 537.9 185.648C537.9 185.699 537.702 185.855 537.65 186.218C537.618 186.414 537.661 186.614 537.771 186.779C537.843 186.863 537.936 186.927 538.041 186.963C538.146 186.999 538.258 187.008 538.367 186.987C538.479 186.977 538.586 186.936 538.676 186.869C538.766 186.802 538.835 186.711 538.877 186.607C538.937 186.418 538.922 186.214 538.834 186.036C538.704 185.691 538.436 185.622 538.453 185.552Z" fill="#263238"/>
<path d="M538.592 199.86C538.592 199.808 538.903 199.757 539.196 200.102C539.278 200.206 539.336 200.326 539.367 200.454C539.399 200.582 539.402 200.716 539.378 200.845C539.336 201.012 539.246 201.163 539.118 201.279C538.99 201.394 538.831 201.469 538.661 201.493C538.494 201.52 538.324 201.497 538.171 201.428C538.017 201.359 537.887 201.246 537.797 201.104C537.731 200.985 537.696 200.852 537.696 200.716C537.696 200.58 537.731 200.446 537.797 200.327C538.039 199.921 538.401 199.981 538.376 200.042C538.35 200.102 538.168 200.171 538.082 200.456C538.048 200.531 538.036 200.613 538.048 200.693C538.059 200.774 538.092 200.85 538.145 200.912C538.197 200.974 538.266 201.021 538.344 201.045C538.421 201.07 538.504 201.073 538.583 201.053C538.666 201.039 538.745 201.004 538.811 200.953C538.878 200.901 538.931 200.834 538.965 200.757C538.999 200.68 539.014 200.595 539.007 200.511C539.001 200.427 538.974 200.346 538.928 200.275C538.799 200.007 538.583 199.929 538.592 199.86Z" fill="#263238"/>
<path d="M506.589 199.091C506.176 198.284 505.823 197.446 505.535 196.586C504.879 194.901 504.049 192.81 503.142 190.495L500.636 184.447C500.244 183.629 499.915 182.783 499.651 181.915C500.147 182.675 500.572 183.479 500.921 184.317C501.647 185.829 502.598 187.954 503.557 190.365C504.516 192.776 505.285 194.927 505.838 196.525C506.169 197.355 506.421 198.214 506.589 199.091Z" fill="#263238"/>
<path d="M568.512 190.244C568.598 190.331 565.92 193.268 562.464 196.793C560.456 198.978 558.34 201.06 556.122 203.031C558.024 200.746 560.043 198.56 562.17 196.482C565.574 192.957 568.417 190.158 568.512 190.244Z" fill="#263238"/>
<path d="M529.732 230.666L528.9 226.638C528.559 225.009 528.543 223.328 528.854 221.693C529.164 220.057 529.795 218.499 530.71 217.108C531.625 215.718 532.805 214.521 534.184 213.588C535.562 212.655 537.112 212.004 538.743 211.672L566.175 206.006L572.117 234.774L544.685 240.44C543.061 240.78 541.386 240.797 539.756 240.49C538.126 240.183 536.573 239.557 535.184 238.65C533.796 237.742 532.6 236.57 531.664 235.2C530.729 233.83 530.072 232.289 529.732 230.666Z" fill="#EE628F"/>
<path d="M588.384 201.399L544.25 210.522C544.072 209.656 544.244 208.755 544.731 208.016C545.217 207.277 545.976 206.761 546.842 206.583L584.452 198.807C585.319 198.628 586.22 198.801 586.959 199.287C587.698 199.773 588.213 200.532 588.392 201.399H588.384Z" fill="#EE628F"/>
<g opacity="0.4">
<path d="M566.732 205.865C565.964 206.153 565.172 206.369 564.365 206.513C562.896 206.867 560.857 207.308 558.602 207.783C556.347 208.259 554.282 208.647 552.796 208.915C551.999 209.104 551.186 209.22 550.368 209.261C551.132 208.968 551.922 208.748 552.727 208.604C554.204 208.259 556.243 207.809 558.498 207.343C560.753 206.876 562.818 206.479 564.296 206.211C565.096 206.022 565.911 205.906 566.732 205.865Z" fill="black"/>
</g>
<g opacity="0.3">
<path d="M568.391 217.218C568.287 216.536 568.183 215.853 568.088 215.179C562.933 219.357 558.18 224.008 553.893 229.072C552.588 230.446 551.527 232.033 550.756 233.764C550.374 234.632 550.196 235.577 550.236 236.526C550.277 237.474 550.534 238.4 550.99 239.233L562.455 236.641L568.391 217.218Z" fill="black"/>
</g>
<path d="M579.856 223.456C581.962 221.035 583.117 217.932 583.106 214.723C583.094 211.514 581.918 208.419 579.795 206.012L568.771 193.536L560.018 204.379C560.407 204.639 569.453 215.378 569.453 215.378L555.629 232.598C553.504 235.259 552.346 238.991 553.452 242.214L555.292 246.076C555.933 247.41 557.069 248.441 558.458 248.951C559.847 249.461 561.38 249.409 562.731 248.806L566.04 247.32C566.229 247.237 566.394 247.107 566.52 246.943C566.645 246.779 566.727 246.586 566.758 246.382C566.789 246.178 566.768 245.969 566.697 245.775C566.626 245.581 566.507 245.408 566.351 245.272L565.539 244.573C565.247 244.316 564.906 244.121 564.536 244.003C564.165 243.884 563.775 243.842 563.388 243.881L559.18 244.313L558.981 243.536L579.856 223.456Z" fill="#FFBE9D"/>
<path d="M566.714 245.817C566.284 246.018 565.839 246.185 565.384 246.318C564.312 246.787 563.165 247.056 561.997 247.113C561.318 247.051 560.685 246.744 560.217 246.249C559.839 245.87 559.529 245.429 559.301 244.944C559.044 244.522 558.931 244.027 558.981 243.536C559.059 243.536 559.137 244.063 559.578 244.797C559.828 245.223 560.14 245.61 560.502 245.946C560.911 246.357 561.447 246.619 562.023 246.689C563.135 246.615 564.232 246.397 565.289 246.041C565.739 245.853 566.228 245.776 566.714 245.817Z" fill="#EB996E"/>
<path d="M565.539 244.512C564.54 245.03 563.473 245.405 562.369 245.626C561.556 245.851 560.69 245.771 559.932 245.402C559.362 245.082 559.198 244.676 559.241 244.659C559.284 244.641 559.543 244.909 560.105 245.117C560.815 245.363 561.584 245.387 562.308 245.186C563.352 244.824 564.438 244.597 565.539 244.512Z" fill="#EB996E"/>
<path d="M99.9216 227.802C99.5242 227.698 91.6704 239.233 91.4112 249.16C91.3902 250.132 91.4249 251.104 91.5149 252.072C91.8528 255.546 92.6879 258.953 93.9946 262.189C100.63 278.96 107.482 298.849 107.594 303.376C107.94 317.338 113.979 380.013 113.979 380.013L127.224 380.359L129.332 303.385L124.632 227.171L99.9216 227.802Z" fill="#FFBE9D"/>
<path d="M125.211 237.704C125.211 237.704 143.122 295.834 141.998 314.6C140.875 333.366 127.224 380.091 127.224 380.091L125.211 237.704Z" fill="#EB996E"/>
<path d="M94.5568 227.889C94.5568 227.889 84.5863 240.728 91.5847 260.928C98.4967 280.981 93.546 305.476 93.546 305.476C93.546 305.476 102.367 298.858 108.623 301.778C115.742 305.104 120.485 309.079 129.359 305.234C138.578 301.208 145.904 298.944 154.328 306.824L141.299 261.377L133.765 232.442L94.5568 227.889Z" fill="#263238"/>
<path d="M146.82 212.863C144.634 212.665 140.703 192.611 140.703 192.611L124.546 198.011C124.546 198.011 124.062 201.061 133.791 220.475C133.791 220.475 139.519 230.671 146.673 230.204L146.82 212.863Z" fill="#EB996E"/>
<path d="M123.552 173.431C123.552 173.431 135.787 172.23 141.48 187.09L141.532 187.229C141.636 187.505 141.731 187.79 141.835 188.093L146.595 201.493L133.48 208.034V209.52L134.905 236.399L93.0704 228.493L96.4487 223.629C99.6973 219.145 98.9629 212.846 97.6323 207.472L97.1831 205.64L91.5152 208.604C88.9425 202.73 87.8906 196.303 88.4567 189.916C88.4567 189.752 88.4567 189.596 88.4567 189.44C88.9077 184.552 91.2543 180.035 94.9941 176.856C98.734 173.676 103.57 172.087 108.467 172.428L123.552 173.431Z" fill="#EE628F"/>
<g opacity="0.3">
<path d="M103.508 188.931C105.815 197.648 110.074 206.366 114.36 214.289C114.774 215.058 115.682 215.922 116.338 215.36C116.839 214.937 116.571 214.125 116.269 213.546L103.508 188.931Z" fill="black"/>
</g>
<path d="M132.435 193.674C132.786 194.325 133.076 195.008 133.299 195.713C133.756 196.992 134.404 198.737 135.027 200.742C135.328 201.699 135.437 202.706 135.346 203.705C135.235 204.513 134.987 205.296 134.612 206.021C134.309 206.699 133.91 207.331 133.428 207.896C133.676 207.211 133.965 206.542 134.292 205.891C134.612 205.185 134.819 204.433 134.906 203.662C134.971 202.716 134.857 201.766 134.569 200.863C133.981 198.971 133.445 197.26 132.988 195.808C132.726 195.119 132.541 194.404 132.435 193.674Z" fill="#263238"/>
<path d="M128.987 149.161C128.989 150.903 129.437 152.616 130.288 154.136C131.14 155.656 132.366 156.933 133.851 157.844C134.681 158.267 135.484 158.744 136.253 159.27C136.637 159.538 136.954 159.891 137.179 160.301C137.404 160.712 137.53 161.169 137.549 161.637C137.488 163.097 136.011 164.031 134.706 164.696C135.092 165.023 135.405 165.427 135.625 165.883C135.845 166.338 135.967 166.835 135.984 167.341C136 167.846 135.91 168.35 135.72 168.819C135.53 169.287 135.243 169.711 134.879 170.062C134.515 170.414 134.081 170.685 133.606 170.858C133.131 171.032 132.625 171.103 132.12 171.069C131.615 171.035 131.123 170.895 130.676 170.659C130.228 170.423 129.835 170.096 129.522 169.698C129.417 171.068 128.89 172.371 128.015 173.429C127.139 174.487 125.957 175.248 124.632 175.608C123.298 175.935 121.909 175.961 120.564 175.684C119.219 175.408 117.953 174.836 116.856 174.01C114.668 172.341 112.96 170.123 111.905 167.582" fill="#263238"/>
<path d="M136.08 154.734C136.08 154.734 136.253 154.924 136.244 155.364C136.229 155.67 136.143 155.968 135.993 156.235C135.843 156.502 135.633 156.73 135.38 156.902C134.978 157.129 134.524 157.249 134.063 157.249C133.601 157.249 133.147 157.129 132.745 156.902C131.783 156.391 130.99 155.61 130.464 154.656C129.486 152.989 128.86 151.139 128.624 149.221C128.489 148.438 128.489 147.637 128.624 146.854C128.693 146.854 128.719 147.718 128.978 149.178C129.31 151.024 129.959 152.798 130.896 154.423C131.352 155.321 132.049 156.075 132.909 156.6C133.253 156.797 133.641 156.906 134.037 156.918C134.433 156.93 134.826 156.845 135.182 156.669C135.408 156.53 135.603 156.344 135.752 156.123C135.901 155.903 136.001 155.653 136.046 155.39C136.123 154.967 136.037 154.742 136.08 154.734Z" fill="#263238"/>
<path d="M122.256 174.13C122.446 170.813 122.679 167.521 122.679 167.521C122.679 167.521 127.984 166.959 128.304 161.697C128.624 156.436 128.304 144.322 128.304 144.322L118.644 139.605L108 147.649L109.089 174.027C109.154 175.656 109.823 177.202 110.964 178.366C112.106 179.53 113.639 180.228 115.266 180.325C116.133 180.383 117.003 180.267 117.825 179.986C118.647 179.705 119.405 179.264 120.055 178.687C120.705 178.111 121.234 177.412 121.612 176.629C121.99 175.847 122.209 174.998 122.256 174.13Z" fill="#FFBE9D"/>
<path d="M127.25 153.161C127.25 153.295 127.211 153.425 127.137 153.536C127.063 153.646 126.957 153.733 126.834 153.784C126.711 153.835 126.576 153.848 126.445 153.822C126.314 153.796 126.194 153.732 126.1 153.638C126.005 153.544 125.941 153.423 125.915 153.293C125.889 153.162 125.903 153.026 125.954 152.903C126.005 152.78 126.091 152.675 126.202 152.601C126.313 152.527 126.443 152.487 126.576 152.487C126.755 152.487 126.926 152.558 127.053 152.685C127.179 152.811 127.25 152.982 127.25 153.161Z" fill="#263238"/>
<path d="M127.872 152.427C127.786 152.513 127.293 152.09 126.568 152.056C125.842 152.021 125.298 152.358 125.22 152.263C125.142 152.168 125.272 152.064 125.514 151.9C125.834 151.692 126.212 151.592 126.593 151.615C126.975 151.638 127.338 151.784 127.63 152.03C127.872 152.22 127.941 152.384 127.872 152.427Z" fill="#263238"/>
<path d="M119.449 153.161C119.45 153.249 119.433 153.337 119.4 153.418C119.368 153.5 119.319 153.575 119.257 153.637C119.195 153.7 119.121 153.75 119.04 153.784C118.959 153.818 118.871 153.835 118.783 153.835C118.605 153.835 118.433 153.764 118.307 153.638C118.18 153.511 118.109 153.34 118.109 153.161C118.109 152.982 118.18 152.811 118.307 152.685C118.433 152.558 118.605 152.487 118.783 152.487C118.871 152.487 118.959 152.505 119.04 152.539C119.121 152.573 119.195 152.623 119.257 152.685C119.319 152.748 119.368 152.822 119.4 152.904C119.433 152.986 119.45 153.073 119.449 153.161Z" fill="#263238"/>
<path d="M119.871 152.427C119.785 152.513 119.284 152.09 118.558 152.056C117.832 152.021 117.297 152.358 117.219 152.263C117.141 152.168 117.271 152.064 117.513 151.9C117.833 151.692 118.211 151.592 118.592 151.615C118.974 151.638 119.337 151.784 119.629 152.03C119.845 152.22 119.915 152.384 119.871 152.427Z" fill="#263238"/>
<path d="M122.481 158.501C122.868 158.401 123.266 158.351 123.665 158.354C123.846 158.354 124.036 158.354 124.08 158.181C124.106 157.982 124.07 157.779 123.976 157.602C123.812 157.11 123.648 156.626 123.483 156.107C123.138 155.053 122.835 154.086 122.619 153.386C122.482 153.013 122.392 152.624 122.352 152.228C122.546 152.572 122.7 152.937 122.809 153.317C123.06 154.008 123.388 154.967 123.734 156.03C123.889 156.539 124.045 157.032 124.209 157.524C124.317 157.76 124.338 158.026 124.27 158.276C124.205 158.377 124.113 158.457 124.004 158.506C123.895 158.555 123.774 158.571 123.656 158.553C123.264 158.576 122.87 158.559 122.481 158.501Z" fill="#263238"/>
<path d="M120.096 159.227C119.37 158.743 122.126 160.436 123.604 160.436C123.339 160.804 122.957 161.071 122.522 161.195C122.086 161.319 121.621 161.292 121.202 161.119C119.647 160.462 120.096 159.227 120.096 159.227Z" fill="white"/>
<path d="M122.688 167.521C120.19 167.413 117.774 166.595 115.725 165.162C115.725 165.162 117.306 169.024 122.576 168.808L122.688 167.521Z" fill="#EB996E"/>
<path d="M126.092 140.46C120.908 135.052 117.305 136.14 115.258 136.14C113.009 136.392 110.837 137.107 108.877 138.238C106.917 139.369 105.213 140.894 103.87 142.715C102.419 144.227 100.345 149.152 100.103 150.889C100.008 152.642 100.026 154.4 100.155 156.151C100.155 157.879 99.7404 159.797 98.4271 160.963C97.5631 161.698 96.4226 162.121 95.9215 163.115C95.6915 163.723 95.6813 164.393 95.8927 165.008C96.1041 165.623 96.5238 166.145 97.0793 166.484C98.2187 167.124 99.5295 167.393 100.829 167.253C100.724 168.561 101.107 169.862 101.905 170.904C102.703 171.946 103.859 172.656 105.149 172.895C106.465 173.069 107.797 172.725 108.864 171.936C109.747 172.793 110.682 173.596 111.664 174.338C111.882 166.689 111.721 159.042 111.18 151.399C114.688 150.777 120.977 148.884 122.075 143.268C123.474 146.465 125.6 148.211 128.425 150.63C128.442 150.638 131.328 145.878 126.092 140.46Z" fill="#263238"/>
<path d="M111.586 149.377C112.3 149.287 113.023 149.287 113.737 149.377C115.422 149.562 117.127 149.361 118.723 148.789C119.566 148.442 120.289 147.857 120.805 147.105C121.225 146.476 121.518 145.772 121.669 145.031C121.919 143.761 121.798 142.931 121.876 142.923C122.096 143.624 122.138 144.37 121.997 145.091C121.892 145.889 121.618 146.655 121.194 147.338C120.648 148.178 119.862 148.834 118.939 149.221C117.281 149.824 115.495 149.991 113.755 149.705C113.023 149.664 112.297 149.554 111.586 149.377Z" fill="#263238"/>
<path d="M97.9004 162.242C98.193 162.248 98.4848 162.208 98.7644 162.121C99.1288 161.977 99.4507 161.743 99.7001 161.441C99.9494 161.138 100.118 160.778 100.19 160.393C100.332 159.219 100.108 158.031 99.5506 156.989C99.2495 156.327 99.001 155.642 98.8076 154.941C98.6236 154.169 98.5739 153.371 98.6607 152.582C98.8384 151.067 99.3745 149.616 100.225 148.349C100.908 147.329 101.705 146.389 102.601 145.549C103.352 144.824 104 144.288 104.45 143.925C104.667 143.714 104.915 143.537 105.184 143.398C105.236 143.458 104.32 144.314 102.834 145.783C101.992 146.634 101.239 147.569 100.587 148.573C99.7994 149.796 99.2974 151.181 99.1186 152.625C99.0435 153.365 99.0873 154.112 99.2482 154.837C99.4319 155.516 99.6658 156.18 99.9481 156.825C100.522 157.948 100.719 159.226 100.51 160.471C100.412 160.892 100.205 161.28 99.9091 161.596C99.6133 161.911 99.2392 162.143 98.8249 162.268C98.5976 162.321 98.3609 162.321 98.1337 162.268C97.9695 162.294 97.9004 162.259 97.9004 162.242Z" fill="#263238"/>
<path d="M126.784 382.069V380.341L113.124 380.082V385.413L113.988 385.465C117.746 385.681 133.108 386.277 135.588 385.517C138.353 384.687 126.784 382.069 126.784 382.069Z" fill="#EE628F"/>
<g opacity="0.6">
<path d="M117.997 385.499C117.796 384.353 117.181 383.32 116.269 382.596C115.369 381.876 114.231 381.522 113.081 381.603V385.404L117.997 385.499Z" fill="white"/>
</g>
<g opacity="0.6">
<path d="M132.417 383.547C132.417 383.547 136.469 384.713 135.968 385.387C135.467 386.061 119.906 386.027 113.046 385.387V385.085L131.19 385.258C131.19 385.258 131.622 383.616 132.417 383.547Z" fill="white"/>
</g>
<path d="M112.977 385.007H113.21L113.884 385.05L116.355 385.162C118.446 385.24 121.34 385.309 124.528 385.318C127.716 385.327 130.576 385.266 132.702 385.197L135.181 385.093H135.855H136.089H135.173L132.702 385.136C130.611 385.136 127.716 385.214 124.528 385.214C121.34 385.214 118.48 385.154 116.355 385.102L113.884 385.05H113.21L112.977 385.007Z" fill="#263238"/>
<path d="M131.207 385.56C131.319 385.149 131.475 384.752 131.674 384.376C131.924 384.027 132.214 383.708 132.538 383.426C132.116 383.585 131.766 383.892 131.553 384.29C131.291 384.659 131.168 385.109 131.207 385.56Z" fill="#263238"/>
<path d="M126.93 383.192C126.974 383.192 127.164 382.985 127.362 382.674C127.506 382.494 127.606 382.285 127.656 382.061C127.613 382.061 127.423 382.268 127.224 382.588C127.025 382.907 126.896 383.166 126.93 383.192Z" fill="#263238"/>
<path d="M125.834 382.614C125.834 382.614 126.075 382.502 126.309 382.294C126.542 382.087 126.715 381.879 126.68 381.845C126.646 381.81 126.438 381.957 126.205 382.165C125.972 382.372 125.799 382.579 125.834 382.614Z" fill="#263238"/>
<path d="M125.134 381.326C125.363 381.408 125.608 381.438 125.851 381.413C126.089 381.443 126.331 381.419 126.559 381.344C126.332 381.263 126.091 381.23 125.851 381.249C125.453 381.249 125.134 381.274 125.134 381.326Z" fill="#263238"/>
<path d="M124.9 380.419C125.136 380.574 125.413 380.655 125.695 380.652C125.971 380.7 126.255 380.66 126.507 380.54C126.241 380.501 125.973 380.484 125.704 380.488C125.439 380.441 125.17 380.418 124.9 380.419Z" fill="#263238"/>
<path d="M127.397 382.009C127.683 382.059 127.976 382.059 128.261 382.009C128.578 381.974 128.891 381.908 129.195 381.81C129.381 381.756 129.561 381.681 129.73 381.586C129.834 381.528 129.912 381.432 129.946 381.318C129.959 381.253 129.954 381.185 129.931 381.123C129.908 381.06 129.869 381.005 129.817 380.964C129.483 380.799 129.102 380.756 128.739 380.841C128.377 380.926 128.055 381.134 127.829 381.43C127.694 381.604 127.597 381.804 127.544 382.018C127.527 382.095 127.527 382.174 127.544 382.251C127.638 381.983 127.775 381.732 127.95 381.508C128.144 381.276 128.403 381.108 128.693 381.024C129.037 380.908 129.413 380.933 129.739 381.093C129.877 381.197 129.825 381.361 129.67 381.456C129.511 381.538 129.347 381.607 129.177 381.663C128.882 381.765 128.578 381.843 128.27 381.897C127.734 381.983 127.397 381.983 127.397 382.009Z" fill="#263238"/>
<path d="M127.622 382.052C127.734 381.872 127.772 381.655 127.726 381.448C127.7 381.219 127.62 381 127.492 380.808C127.42 380.676 127.314 380.564 127.185 380.486C127.056 380.407 126.909 380.363 126.758 380.359C126.669 380.378 126.591 380.431 126.541 380.507C126.49 380.583 126.472 380.676 126.49 380.765C126.513 380.903 126.563 381.035 126.637 381.154C126.751 381.347 126.89 381.525 127.052 381.681C127.188 381.838 127.36 381.959 127.553 382.035C127.553 382.035 127.38 381.88 127.138 381.603C126.996 381.441 126.872 381.264 126.767 381.076C126.654 380.895 126.568 380.558 126.767 380.523C126.965 380.488 127.207 380.713 127.337 380.895C127.461 381.064 127.547 381.259 127.587 381.465C127.617 381.659 127.629 381.856 127.622 382.052Z" fill="#263238"/>
<path d="M112.882 381.542C112.882 381.542 113.271 381.542 113.893 381.542C114.693 381.64 115.452 381.954 116.087 382.45C116.713 382.96 117.185 383.632 117.452 384.394C117.66 384.973 117.677 385.37 117.712 385.361C117.728 385.273 117.728 385.182 117.712 385.094C117.689 384.844 117.64 384.598 117.565 384.359C117.314 383.561 116.837 382.852 116.191 382.32C115.532 381.809 114.734 381.508 113.901 381.456C113.652 381.428 113.399 381.428 113.15 381.456C113.057 381.471 112.966 381.5 112.882 381.542Z" fill="#263238"/>
<path d="M119.448 383.728C120.763 383.979 122.112 383.993 123.431 383.772C123.431 383.72 122.567 383.772 121.435 383.772C120.304 383.772 119.457 383.677 119.448 383.728Z" fill="#263238"/>
<path d="M116.778 383.72C116.778 383.72 116.847 383.901 116.942 384.108C117.038 384.316 117.081 384.497 117.124 384.489C117.167 384.48 117.202 384.273 117.124 384.039C117.046 383.806 116.804 383.685 116.778 383.72Z" fill="#263238"/>
<path d="M115.776 382.467C115.776 382.467 115.828 382.64 115.966 382.778C116.105 382.916 116.252 383.011 116.286 382.985C116.321 382.96 116.226 382.804 116.087 382.666C115.949 382.528 115.776 382.433 115.776 382.467Z" fill="#263238"/>
<path d="M114.333 381.888C114.333 381.94 114.523 381.931 114.722 382.009C114.921 382.087 115.068 382.182 115.102 382.156C115.137 382.13 115.024 381.931 114.783 381.845C114.541 381.758 114.325 381.888 114.333 381.888Z" fill="#263238"/>
<path d="M113.313 381.62C113.313 381.663 113.374 381.733 113.486 381.776C113.599 381.819 113.702 381.819 113.72 381.776C113.737 381.733 113.659 381.663 113.547 381.62C113.434 381.577 113.331 381.577 113.313 381.62Z" fill="#263238"/>
<path opacity="0.3" d="M98.0469 220.363C98.0469 220.363 99.6021 232.347 111.266 231.915C119.068 231.564 126.837 230.698 134.525 229.323L134.404 227.051L98.0469 220.363Z" fill="black"/>
<path d="M165.612 212.752C164.575 211.084 157.447 215.058 156.816 215.344C156.185 215.629 155.745 214.73 156.324 214.48C157.188 214.143 165.828 210.41 164.851 208.768C164.298 207.904 162.761 209.002 162.761 209.002C162.761 209.002 154.881 213.097 154.44 212.302C154 211.507 158.527 208.941 160.117 208.19C161.706 207.438 161.983 206.392 161.067 205.969C160.454 205.684 155.52 207.879 153.965 208.656C152.41 209.434 148.168 211.663 149.369 208.872C150.569 206.081 150.431 203.481 149.904 202.824C149.767 202.681 149.589 202.584 149.395 202.547C149.2 202.51 148.999 202.534 148.819 202.617C148.64 202.7 148.49 202.837 148.392 203.009C148.294 203.181 148.251 203.379 148.271 203.576C148.194 204.597 147.976 205.603 147.623 206.565C147.369 207.35 146.984 208.087 146.483 208.743C145.895 209.512 145.368 210.134 144.902 210.652C140.357 212.242 127.388 216.259 115.275 215.153C113.081 214.955 107.499 200.301 107.499 200.301L92.4136 208.077C92.4136 208.077 92.1372 208.898 99.0146 222.281C108.38 240.503 150.69 221.599 150.69 221.599V221.556C153.899 220.919 157.072 220.112 160.194 219.136C164.445 217.599 164.316 217.21 164.048 216.752C163.339 215.499 156.462 219.171 157.481 217.521C158.501 215.871 166.407 214.022 165.612 212.752Z" fill="#FFBE9D"/>
</svg>
