<svg width="20" height="17" viewBox="0 0 20 17" fill="none" xmlns="http://www.w3.org/2000/svg">
<path d="M6.76719 3.73242H4.99219V5.54292H6.76719V3.73242Z" fill="white"/>
<path d="M10.9254 3.73242H9.15039V5.54292H10.9254V3.73242Z" fill="white"/>
<path d="M15.0914 3.71289H13.3164V5.52339H15.0914V3.71289Z" fill="white"/>
<path d="M2.60898 7.18164H0.833984V8.99214H2.60898V7.18164Z" fill="white"/>
<path d="M6.76719 7.18164H4.99219V8.99214H6.76719V7.18164Z" fill="white"/>
<path d="M10.9254 7.18164H9.15039V8.99214H10.9254V7.18164Z" fill="white"/>
<path d="M2.60898 10.6758H0.833984V12.4863H2.60898V10.6758Z" fill="white"/>
<path d="M6.76719 10.6758H4.99219V12.4863H6.76719V10.6758Z" fill="white"/>
<path d="M10.9254 10.668H9.15039V12.4785H10.9254V10.668Z" fill="white"/>
<path d="M15.0914 10.668H13.3164V12.4785H15.0914V10.668Z" fill="white"/>
<path d="M15.0914 7.17383H13.3164V8.98433H15.0914V7.17383Z" fill="white"/>
<path d="M19.1656 3.70508H17.3906V5.51558H19.1656V3.70508Z" fill="white"/>
<path d="M19.1656 7.15625H17.3906V8.96675H19.1656V7.15625Z" fill="white"/>
</svg>
