<svg width="410" height="341" viewBox="0 0 410 341" fill="none" xmlns="http://www.w3.org/2000/svg">
<g clip-path="url(#clip0_1024_57960)">
<path fill-rule="evenodd" clip-rule="evenodd" d="M211.509 411.457C169.055 376.409 136.713 326.155 140.896 271.244C144.811 219.839 190.611 187.096 231.036 155.091C271.333 123.187 313.619 86.3706 364.383 94.3059C418.484 102.763 461.277 144.815 483.999 194.634C506.195 243.301 501.782 298.392 479.692 347.129C456.78 397.68 419.271 443.563 365.308 456.507C310.643 469.619 254.848 447.235 211.509 411.457Z" fill="#32567D"/>
<path fill-rule="evenodd" clip-rule="evenodd" d="M231.109 391.098C210.105 340.21 205.173 280.652 234.669 234.148C262.282 190.612 318.096 183.234 368.82 173.98C419.383 164.755 474.01 152.128 515.091 182.989C558.871 215.878 576.883 273.107 573.528 327.76C570.25 381.15 540.465 427.705 498.064 460.344C454.084 494.199 399.412 517.072 345.696 503.139C291.281 489.024 252.551 443.046 231.109 391.098Z" fill="#31B997"/>
<path fill-rule="evenodd" clip-rule="evenodd" d="M195.338 401.196C189.289 346.478 201.087 287.892 242.335 251.406C280.951 217.249 336.619 225.658 387.918 230.851C439.054 236.029 495.039 239.066 525.936 280.119C558.864 323.871 560.277 383.851 541.879 435.424C523.907 485.804 482.366 522.258 432.57 541.841C380.919 562.154 322.046 568.948 274.311 540.648C225.954 511.979 201.513 457.055 195.338 401.196Z" fill="#EE628F"/>
</g>
<defs>
<clipPath id="clip0_1024_57960">
<rect x="57.2773" y="0.539062" width="438.648" height="337.77" rx="8" transform="rotate(9.62253 57.2773 0.539062)" fill="white"/>
</clipPath>
</defs>
</svg>
