<svg width="16" height="16" viewBox="0 0 16 16" fill="none" xmlns="http://www.w3.org/2000/svg">
<path fill-rule="evenodd" clip-rule="evenodd" d="M10.864 6.40203L7.81865 10.402C7.69332 10.5667 7.49932 10.664 7.29265 10.6654H7.28798C7.08332 10.6654 6.88998 10.5707 6.76332 10.4094L5.14198 8.33803C4.91532 8.0487 4.96598 7.62936 5.25598 7.4027C5.54532 7.17536 5.96532 7.22603 6.19198 7.5167L7.28065 8.90736L9.80332 5.5947C10.026 5.30203 10.444 5.2447 10.738 5.46803C11.0307 5.69136 11.0873 6.10936 10.864 6.40203ZM8.00065 1.33203C4.31865 1.33203 1.33398 4.3167 1.33398 7.9987C1.33398 11.68 4.31865 14.6654 8.00065 14.6654C11.6827 14.6654 14.6673 11.68 14.6673 7.9987C14.6673 4.3167 11.6827 1.33203 8.00065 1.33203Z" fill="#EA7C69"/>
<mask id="mask0_1014_57818" style="mask-type:alpha" maskUnits="userSpaceOnUse" x="1" y="1" width="14" height="14">
<path fill-rule="evenodd" clip-rule="evenodd" d="M10.864 6.40203L7.81865 10.402C7.69332 10.5667 7.49932 10.664 7.29265 10.6654H7.28798C7.08332 10.6654 6.88998 10.5707 6.76332 10.4094L5.14198 8.33803C4.91532 8.0487 4.96598 7.62936 5.25598 7.4027C5.54532 7.17536 5.96532 7.22603 6.19198 7.5167L7.28065 8.90736L9.80332 5.5947C10.026 5.30203 10.444 5.2447 10.738 5.46803C11.0307 5.69136 11.0873 6.10936 10.864 6.40203ZM8.00065 1.33203C4.31865 1.33203 1.33398 4.3167 1.33398 7.9987C1.33398 11.68 4.31865 14.6654 8.00065 14.6654C11.6827 14.6654 14.6673 11.68 14.6673 7.9987C14.6673 4.3167 11.6827 1.33203 8.00065 1.33203Z" fill="white"/>
</mask>
<g mask="url(#mask0_1014_57818)">
<rect width="16" height="16" fill="#EE628F"/>
</g>
</svg>
