<svg width="32" height="33" viewBox="0 0 32 33" fill="none" xmlns="http://www.w3.org/2000/svg">
<path d="M28 0.5C29.0625 0.5 30 0.9375 30.8125 1.6875C31.5625 2.5 32 3.4375 32 4.5V22.5C32 23.625 31.5625 24.5625 30.8125 25.3125C30 26.125 29.0625 26.5 28 26.5H19L11.1875 32.375C11.0625 32.5 10.875 32.5 10.6875 32.5C10.5 32.5 10.3125 32.4375 10.1875 32.3125C10.0625 32.1875 10 32 10 31.75V26.5H4C2.875 26.5 1.9375 26.125 1.1875 25.3125C0.375 24.5625 0 23.625 0 22.5V4.5C0 3.4375 0.375 2.5 1.1875 1.6875C1.9375 0.9375 2.875 0.5 4 0.5H28ZM30 22.5V4.5C30 4 29.75 3.5 29.375 3.125C29 2.75 28.5 2.5 28 2.5H4C3.4375 2.5 2.9375 2.75 2.5625 3.125C2.1875 3.5 2 4 2 4.5V22.5C2 23.0625 2.1875 23.5625 2.5625 23.9375C2.9375 24.3125 3.4375 24.5 4 24.5H12V29.25L18.3125 24.5H28C28.5 24.5 29 24.3125 29.375 23.9375C29.75 23.5625 30 23.0625 30 22.5Z" fill="#606770"/>
</svg>
