<svg width="26" height="26" viewBox="0 0 26 26" fill="none" xmlns="http://www.w3.org/2000/svg">
<path d="M18.8729 22.6151L19.11 21.9035C18.8961 21.8323 18.6616 21.861 18.4712 21.9817L18.8729 22.6151ZM22.4584 19.0311L21.8252 18.6292C21.7043 18.8196 21.6755 19.0544 21.7469 19.2683L22.4584 19.0311ZM24.2513 24.4069L24.0142 25.1185C24.2838 25.2083 24.5809 25.1381 24.7817 24.9372C24.9826 24.7363 25.0527 24.4391 24.9628 24.1697L24.2513 24.4069ZM12.6848 25.1571C15.1073 25.1571 17.3686 24.4572 19.2746 23.2485L18.4712 21.9817C16.7984 23.0426 14.8146 23.6571 12.6848 23.6571V25.1571ZM0.369141 12.8476C0.369141 19.6463 5.88343 25.1571 12.6848 25.1571V23.6571C6.7111 23.6571 1.86914 18.8171 1.86914 12.8476H0.369141ZM12.6848 0.538086C5.88343 0.538086 0.369141 6.04885 0.369141 12.8476H1.86914C1.86914 6.87804 6.7111 2.03809 12.6848 2.03809V0.538086ZM25.0005 12.8476C25.0005 6.04885 19.4862 0.538086 12.6848 0.538086V2.03809C18.6585 2.03809 23.5005 6.87804 23.5005 12.8476H25.0005ZM23.0916 19.433C24.3005 17.5282 25.0005 15.2684 25.0005 12.8476H23.5005C23.5005 14.9754 22.8861 16.9576 21.8252 18.6292L23.0916 19.433ZM21.7469 19.2683L23.5398 24.6442L24.9628 24.1697L23.1699 18.7938L21.7469 19.2683ZM24.4884 23.6954L19.11 21.9035L18.6358 23.3266L24.0142 25.1185L24.4884 23.6954Z" fill="black"/>
</svg>
