<svg width="27" height="27" viewBox="0 0 27 27" fill="none" xmlns="http://www.w3.org/2000/svg">
<path fill-rule="evenodd" clip-rule="evenodd" d="M13.5 25.3125C20.0239 25.3125 25.3125 20.0239 25.3125 13.5C25.3125 6.97614 20.0239 1.6875 13.5 1.6875C6.97614 1.6875 1.6875 6.97614 1.6875 13.5C1.6875 20.0239 6.97614 25.3125 13.5 25.3125ZM13.5 27C20.9558 27 27 20.9558 27 13.5C27 6.04416 20.9558 0 13.5 0C6.04416 0 0 6.04416 0 13.5C0 20.9558 6.04416 27 13.5 27Z" fill="white"/>
<path fill-rule="evenodd" clip-rule="evenodd" d="M7.23059 16.1446C7.63395 15.9113 8.1501 16.0492 8.38343 16.4525C9.40592 18.2201 11.315 19.4062 13.5 19.4062C15.6851 19.4062 17.5942 18.2201 18.6167 16.4525C18.85 16.0492 19.3661 15.9113 19.7695 16.1446C20.1729 16.378 20.3107 16.8941 20.0774 17.2975C18.7656 19.5651 16.3119 21.0938 13.5 21.0938C10.6882 21.0938 8.23444 19.5651 6.92272 17.2975C6.68939 16.8941 6.82722 16.378 7.23059 16.1446Z" fill="white"/>
<path d="M11.8125 10.9688C11.8125 12.3667 11.057 13.5 10.125 13.5C9.19302 13.5 8.4375 12.3667 8.4375 10.9688C8.4375 9.57078 9.19302 8.4375 10.125 8.4375C11.057 8.4375 11.8125 9.57078 11.8125 10.9688Z" fill="white"/>
<path d="M18.5625 10.9688C18.5625 12.3667 17.807 13.5 16.875 13.5C15.943 13.5 15.1875 12.3667 15.1875 10.9688C15.1875 9.57078 15.943 8.4375 16.875 8.4375C17.807 8.4375 18.5625 9.57078 18.5625 10.9688Z" fill="white"/>
</svg>
