<svg width="52" height="52" viewBox="0 0 52 52" fill="none" xmlns="http://www.w3.org/2000/svg">
<g clip-path="url(#clip0_1402_64187)">
<circle cx="26.5" cy="26.5" r="23.5" fill="url(#paint0_linear_1402_64187)" stroke="white" stroke-width="4"/>
<path d="M34.8511 18.4567C35.7105 19.2302 36.355 20.1325 36.6987 21.2067C37.0425 22.3239 37.0855 23.3981 36.8276 24.5153C36.5698 25.6325 36.0542 26.5778 35.2808 27.3513L26.9878 35.945C26.687 36.2458 26.3433 36.3747 25.9995 36.3747C25.6128 36.3747 25.269 36.2458 25.0112 35.945L16.7183 27.3942C15.9019 26.5778 15.3862 25.6325 15.1284 24.5153C14.8706 23.3981 14.9565 22.3239 15.3003 21.2067C15.644 20.1325 16.2456 19.2302 17.148 18.4567C17.9214 17.8122 18.7808 17.3825 19.769 17.2106C20.7144 17.0388 21.7026 17.1247 22.648 17.4255C23.5933 17.7692 24.4097 18.2849 25.1401 19.0153L25.9995 19.8747L26.8589 19.0153C27.5464 18.2849 28.4058 17.7692 29.3511 17.4255C30.2964 17.1247 31.2417 17.0388 32.23 17.2106C33.1753 17.3825 34.0776 17.8122 34.8511 18.4567Z" fill="white"/>
</g>
<defs>
<linearGradient id="paint0_linear_1402_64187" x1="26.5" y1="5" x2="26.5" y2="48" gradientUnits="userSpaceOnUse">
<stop stop-color="#F95E73"/>
<stop offset="1" stop-color="#E3223C"/>
</linearGradient>
<clipPath id="clip0_1402_64187">
<rect width="52" height="52" fill="white"/>
</clipPath>
</defs>
</svg>
