<svg width="32" height="33" viewBox="0 0 32 33" fill="none" xmlns="http://www.w3.org/2000/svg">
<path d="M31.0625 18.375C31.1875 19.125 31.25 19.875 31.125 20.625C31 21.4375 30.8125 22.125 30.4375 22.6875C30.5625 23.4375 30.5 24.1875 30.3125 24.9375C30.0625 25.6875 29.75 26.375 29.3125 26.875C29.3125 28.625 28.875 30 27.875 31C26.875 32 25.4375 32.5 23.625 32.5H21.0625C19.8125 32.5 18.4375 32.3125 16.9375 31.9375C16.0625 31.75 14.8125 31.375 13.3125 30.8125L11.4375 30.1875C10.8125 30.0625 10.375 29.9375 10 29.9375V30.5C10 31.0625 9.75 31.5625 9.375 31.9375C9 32.3125 8.5 32.5 8 32.5H2C1.4375 32.5 0.9375 32.3125 0.5625 31.9375C0.1875 31.5625 0 31.0625 0 30.5V14.5C0 14 0.1875 13.5 0.5625 13.125C0.9375 12.75 1.4375 12.5 2 12.5H8C8.6875 12.5 9.25 12.8125 9.625 13.375C9.8125 13.375 10 13.3125 10.125 13.25C10.5 13.0625 10.9375 12.625 11.5625 11.9375C11.9375 11.5625 12.5 10.875 13.25 9.875C14.125 8.625 14.8125 7.8125 15.25 7.4375C15.5 7.1875 15.6875 6.8125 15.875 6.25C16 5.9375 16.125 5.4375 16.25 4.6875C16.75 1.9375 17.75 0.5 19.1875 0.5C20.9375 0.5 22.25 1 23.125 2C23.9375 3 24.375 4.4375 24.375 6.3125C24.375 7.125 24.25 7.9375 24 8.6875C23.8125 9.1875 23.5625 9.75 23.1875 10.5L23.0625 10.6875H27.4375C28.6875 10.6875 29.75 11.1875 30.625 12.0625C31.5 13 32 14.0625 32 15.3125C32 16.5625 31.6875 17.5625 31.0625 18.375ZM2 30.5H8V14.5H2V30.5ZM28.5 17.75C29 17.625 29.375 17.375 29.625 16.875C29.875 16.4375 30 15.875 30 15.25C30 14.625 29.75 14 29.25 13.5C28.75 13 28.125 12.6875 27.4375 12.6875H20.4375C20.4375 12.125 20.5 11.5625 20.75 11C20.875 10.6875 21.0625 10.1875 21.375 9.5625C21.6875 8.9375 21.9375 8.4375 22.0625 8.0625C22.25 7.5 22.375 6.9375 22.375 6.3125C22.375 5.1875 22.1875 4.3125 21.9375 3.8125C21.4375 2.9375 20.5625 2.5 19.1875 2.5C18.9375 2.75 18.6875 3.125 18.5625 3.625C18.4375 3.9375 18.3125 4.4375 18.1875 5.0625C18 6 17.875 6.6875 17.75 7.0625C17.4375 7.8125 17.0625 8.4375 16.625 8.875C16.1875 9.3125 15.5 10.125 14.625 11.3125C13.625 12.625 12.875 13.5 12.375 14C11.5 14.875 10.6875 15.25 10 15.25V27.9375C10.5 27.9375 11.125 28.0625 11.875 28.25C12.3125 28.375 13.0625 28.625 14.125 29C15.5 29.5 16.625 29.8125 17.375 30C18.6875 30.375 19.9375 30.5 21.0625 30.5H23.625C24.875 30.5 25.875 30.1875 26.5 29.5C27.1875 28.75 27.4375 27.625 27.1875 26.0625C27.75 25.8125 28.125 25.25 28.375 24.4375C28.625 23.625 28.5 22.875 28.125 22.1875C28.5625 22 28.875 21.5625 29.0625 20.9375C29.1875 20.3125 29.25 19.6875 29.125 19.0625C29 18.4375 28.8125 18 28.5 17.75ZM6.5 27.5C6.5 27.125 6.3125 26.75 6.0625 26.4375C5.75 26.1875 5.375 26 5 26C4.5625 26 4.1875 26.1875 3.9375 26.4375C3.625 26.75 3.5 27.125 3.5 27.5C3.5 27.9375 3.625 28.3125 3.9375 28.5625C4.1875 28.875 4.5625 29 5 29C5.375 29 5.75 28.875 6.0625 28.5625C6.3125 28.3125 6.5 27.9375 6.5 27.5Z" fill="#606770"/>
</svg>
