<svg width="40" height="40" viewBox="0 0 40 40" fill="none" xmlns="http://www.w3.org/2000/svg">
<circle cx="20" cy="20" r="20" fill="#328090"/>
<g clip-path="url(#clip0_1487_62521)">
<path d="M11.3032 17.3916H13.9119V27.8264H11.3032C11.0725 27.8264 10.8514 27.7347 10.6883 27.5717C10.5252 27.4086 10.4336 27.1874 10.4336 26.9568V18.2611C10.4336 18.0305 10.5252 17.8093 10.6883 17.6463C10.8514 17.4832 11.0725 17.3916 11.3032 17.3916ZM15.9058 16.2672L21.471 10.702C21.545 10.6278 21.6432 10.5828 21.7477 10.5753C21.8522 10.5678 21.9559 10.5983 22.0397 10.6611L22.7814 11.2177C22.9874 11.3723 23.143 11.5845 23.2286 11.8274C23.3142 12.0704 23.3259 12.3333 23.2623 12.5829L22.2597 16.522H27.8249C28.2861 16.522 28.7285 16.7052 29.0547 17.0314C29.3808 17.3575 29.564 17.7999 29.564 18.2611V20.0907C29.5643 20.318 29.52 20.5431 29.4336 20.7533L26.7423 27.2881C26.6766 27.4474 26.5651 27.5836 26.4219 27.6795C26.2787 27.7753 26.1103 27.8264 25.9379 27.8264H16.5206C16.2899 27.8264 16.0688 27.7347 15.9057 27.5717C15.7426 27.4086 15.651 27.1874 15.651 26.9568V16.882C15.651 16.6514 15.7427 16.4303 15.9058 16.2672Z" fill="white"/>
</g>
<defs>
<clipPath id="clip0_1487_62521">
<rect width="20.8696" height="20.8696" fill="white" transform="translate(9.56445 9.56543)"/>
</clipPath>
</defs>
</svg>
