<svg width="40" height="40" viewBox="0 0 40 40" fill="none" xmlns="http://www.w3.org/2000/svg">
<circle cx="20" cy="20" r="20" fill="#FF6A77"/>
<g clip-path="url(#clip0_1487_62528)">
<path d="M28.6949 22.6089H26.0862V12.1741H28.6949C28.9255 12.1741 29.1467 12.2657 29.3098 12.4288C29.4728 12.5919 29.5645 12.8131 29.5645 13.0437V21.7394C29.5645 21.97 29.4728 22.1912 29.3098 22.3542C29.1467 22.5173 28.9255 22.6089 28.6949 22.6089ZM24.0923 23.7333L18.5271 29.2985C18.4531 29.3727 18.3548 29.4176 18.2503 29.4252C18.1459 29.4327 18.0422 29.4022 17.9584 29.3394L17.2166 28.7828C17.0106 28.6282 16.855 28.416 16.7694 28.173C16.6839 27.9301 16.6721 27.6672 16.7358 27.4176L17.7384 23.4785H12.1731C11.7119 23.4785 11.2695 23.2953 10.9434 22.9691C10.6172 22.643 10.434 22.2006 10.434 21.7394V19.9098C10.4338 19.6825 10.4781 19.4574 10.5645 19.2472L13.2558 12.7124C13.3214 12.5531 13.4329 12.4169 13.5761 12.321C13.7193 12.2252 13.8878 12.1741 14.0601 12.1741H23.4775C23.7081 12.1741 23.9293 12.2657 24.0924 12.4288C24.2554 12.5919 24.3471 12.8131 24.3471 13.0437V23.1185C24.347 23.3491 24.2554 23.5702 24.0923 23.7333Z" fill="white"/>
</g>
<defs>
<clipPath id="clip0_1487_62528">
<rect width="20.8696" height="20.8696" fill="white" transform="translate(30.4336 30.4351) rotate(-180)"/>
</clipPath>
</defs>
</svg>
