<svg width="43" height="34" viewBox="0 0 43 34" fill="none" xmlns="http://www.w3.org/2000/svg">
<g clip-path="url(#clip0_1014_57776)">
<path d="M42.1508 33.5404V33.6278H42.2309C42.246 33.628 42.2608 33.6242 42.2739 33.6166C42.2792 33.6129 42.2834 33.6079 42.2862 33.602C42.289 33.5962 42.2903 33.5897 42.2901 33.5832C42.2903 33.5768 42.289 33.5705 42.2862 33.5648C42.2834 33.5591 42.2791 33.5542 42.2739 33.5507C42.261 33.5427 42.246 33.5389 42.2309 33.5395H42.1508V33.5404ZM42.2318 33.4785C42.2662 33.4764 42.3002 33.4864 42.3281 33.507C42.3393 33.5163 42.3482 33.5281 42.3541 33.5416C42.3599 33.555 42.3626 33.5696 42.3619 33.5843C42.3624 33.5969 42.3602 33.6095 42.3556 33.6213C42.3509 33.633 42.3438 33.6436 42.3348 33.6523C42.3133 33.6713 42.2863 33.6827 42.2578 33.6848L42.3653 33.8094H42.2825L42.1836 33.6857H42.1516V33.8094H42.0824V33.4788H42.2329L42.2318 33.4785ZM42.2103 33.9234C42.2466 33.9238 42.2826 33.9163 42.3159 33.9016C42.348 33.8875 42.3771 33.8674 42.4019 33.8424C42.4266 33.8173 42.4464 33.7876 42.4601 33.755C42.4883 33.6857 42.4883 33.6079 42.4601 33.5386C42.4462 33.5061 42.4265 33.4764 42.4019 33.4512C42.3771 33.4262 42.348 33.4061 42.3159 33.392C42.2824 33.3781 42.2465 33.3711 42.2103 33.3715C42.1735 33.3711 42.137 33.3781 42.1028 33.392C42.07 33.4058 42.0401 33.4259 42.0149 33.4512C41.9768 33.4909 41.9511 33.541 41.9409 33.5954C41.9307 33.6498 41.9365 33.7061 41.9575 33.7571C41.9706 33.7899 41.9901 33.8197 42.0149 33.8446C42.0402 33.8699 42.07 33.89 42.1028 33.9038C42.1368 33.9185 42.1734 33.926 42.2103 33.9256V33.9234ZM42.2103 33.2919C42.3048 33.2918 42.3955 33.3295 42.4629 33.3968C42.4954 33.4291 42.5213 33.4677 42.539 33.5102C42.5574 33.5539 42.5669 33.6009 42.5669 33.6484C42.5669 33.6959 42.5574 33.743 42.539 33.7866C42.5209 33.829 42.4951 33.8674 42.4629 33.9001C42.4299 33.9322 42.3916 33.9581 42.3496 33.9765C42.3056 33.9956 42.2582 34.0052 42.2103 34.0049C42.1619 34.0053 42.1139 33.9956 42.0693 33.9765C42.0268 33.9585 41.9881 33.9326 41.9551 33.9001C41.923 33.8662 41.8975 33.8265 41.8801 33.7829C41.8617 33.7392 41.8522 33.6922 41.8522 33.6447C41.8522 33.5972 41.8617 33.5502 41.8801 33.5065C41.8978 33.464 41.9237 33.4254 41.9562 33.3931C41.9887 33.36 42.0276 33.334 42.0703 33.3166C42.115 33.2975 42.163 33.2879 42.2114 33.2882L42.2103 33.2919ZM9.28951 32.0152C9.28951 31.3848 9.69586 30.8669 10.36 30.8669C10.9947 30.8669 11.423 31.3625 11.423 32.0152C11.423 32.6679 10.9947 33.1635 10.36 33.1635C9.69586 33.1635 9.28951 32.6456 9.28951 32.0152ZM12.1464 32.0152V30.2212H11.3791V30.6582C11.1357 30.3353 10.7666 30.1327 10.2645 30.1327C9.27553 30.1327 8.49938 30.9211 8.49938 32.0161C8.49938 33.111 9.2751 33.8994 10.2645 33.8994C10.7663 33.8994 11.1357 33.6966 11.3791 33.3739V33.8094H12.1456V32.0152H12.1464ZM38.0737 32.0152C38.0737 31.3848 38.4801 30.8669 39.1444 30.8669C39.7797 30.8669 40.2074 31.3625 40.2074 32.0152C40.2074 32.6679 39.7797 33.1635 39.1444 33.1635C38.4803 33.1635 38.0737 32.6456 38.0737 32.0152ZM40.9315 32.0152V28.7812H40.1635V30.6582C39.9201 30.3353 39.551 30.1327 39.0489 30.1327C38.0599 30.1327 37.2838 30.9211 37.2838 32.0161C37.2838 33.111 38.0595 33.8994 39.0489 33.8994C39.551 33.8994 39.9201 33.6966 40.1635 33.3739V33.8094H40.9315V32.0152ZM21.6701 30.83C22.1646 30.83 22.4821 31.1451 22.5632 31.6999H20.7322C20.8142 31.182 21.1235 30.83 21.6703 30.83H21.6701ZM21.6855 30.1308C20.6514 30.1308 19.9279 30.8955 19.9279 32.0141C19.9279 33.1545 20.6804 33.8974 21.7369 33.8974C22.2684 33.8974 22.7552 33.7626 23.1835 33.3949L22.8074 32.8169C22.5116 33.0573 22.1349 33.1921 21.7808 33.1921C21.2863 33.1921 20.8361 32.9594 20.7254 32.3137H23.3456C23.3531 32.2167 23.3608 32.1188 23.3608 32.0139C23.3531 30.8958 22.6728 30.1305 21.6851 30.1305L21.6855 30.1308ZM30.9495 32.0139C30.9495 31.3835 31.3558 30.8656 32.02 30.8656C32.6546 30.8656 33.0829 31.3612 33.0829 32.0139C33.0829 32.6666 32.6546 33.1621 32.02 33.1621C31.3558 33.1621 30.9493 32.6443 30.9493 32.0139H30.9495ZM33.8062 32.0139V30.2212H33.0393V30.6582C32.795 30.3353 32.4267 30.1327 31.9247 30.1327C30.9357 30.1327 30.1596 30.9211 30.1596 32.0161C30.1596 33.111 30.9353 33.8994 31.9247 33.8994C32.4267 33.8994 32.795 33.6966 33.0393 33.3739V33.8094H33.8064V32.0152L33.8062 32.0139ZM26.6161 32.0139C26.6161 33.1018 27.3613 33.8972 28.4987 33.8972C29.0302 33.8972 29.3843 33.777 29.7672 33.4696L29.3987 32.8392C29.1106 33.0496 28.8081 33.1621 28.4742 33.1621C27.8616 33.1545 27.4112 32.7044 27.4112 32.0139C27.4112 31.3234 27.8616 30.8735 28.4742 30.8656C28.8072 30.8656 29.1097 30.9781 29.3987 31.1886L29.7672 30.5582C29.3836 30.2507 29.0295 30.1305 28.4987 30.1305C27.3613 30.1305 26.6161 30.9257 26.6161 32.0139ZM36.5083 30.1305C36.0656 30.1305 35.7773 30.341 35.578 30.6561V30.2212H34.8175V33.8074H35.5857V31.7971C35.5857 31.2036 35.8366 30.8739 36.3382 30.8739C36.5025 30.8715 36.6656 30.9022 36.8181 30.9642L37.0546 30.2291C36.8848 30.1611 36.6633 30.1312 36.5079 30.1312L36.5083 30.1305ZM15.9401 30.5064C15.5709 30.259 15.0623 30.1312 14.5011 30.1312C13.6071 30.1312 13.0316 30.5667 13.0316 31.2793C13.0316 31.864 13.4601 32.2247 14.2491 32.3373L14.6116 32.3897C15.0324 32.4498 15.231 32.5623 15.231 32.7649C15.231 33.0422 14.9515 33.2004 14.4267 33.2004C13.8952 33.2004 13.5117 33.0278 13.253 32.8252L12.8925 33.4333C13.3132 33.7484 13.8447 33.8987 14.4203 33.8987C15.4394 33.8987 16.03 33.411 16.03 32.7282C16.03 32.0978 15.5651 31.7681 14.7972 31.6555L14.4355 31.6022C14.1034 31.5585 13.8372 31.4905 13.8372 31.2502C13.8372 30.988 14.0881 30.8302 14.5091 30.8302C14.9595 30.8302 15.3955 31.0028 15.6092 31.1377L15.9414 30.5073L15.9401 30.5064ZM25.8411 30.1319C25.3984 30.1319 25.1101 30.3423 24.9116 30.6574V30.2212H24.1512V33.8074H24.9185V31.7971C24.9185 31.2036 25.1694 30.8739 25.671 30.8739C25.8353 30.8715 25.9984 30.9022 26.1509 30.9642L26.3874 30.2291C26.2175 30.1611 25.9961 30.1312 25.8406 30.1312L25.8411 30.1319ZM19.293 30.2212H18.0383V29.1333H17.2626V30.2212H16.5468V30.934H17.2626V32.57C17.2626 33.4021 17.5803 33.8976 18.4881 33.8976C18.8211 33.8976 19.2047 33.7928 19.448 33.6204L19.2264 32.9526C18.9974 33.0874 18.7465 33.1554 18.547 33.1554C18.1634 33.1554 18.0383 32.915 18.0383 32.5551V30.9347H19.293V30.2212ZM7.82084 33.8083V31.5576C7.82084 30.71 7.28936 30.1397 6.43259 30.1321C5.98216 30.1244 5.51755 30.2669 5.19225 30.7701C4.94887 30.3724 4.56531 30.1321 4.02609 30.1321C3.6492 30.1321 3.2809 30.2446 2.99259 30.6646V30.2212H2.22461V33.8074H2.99861V31.819C2.99861 31.1964 3.33831 30.8656 3.86291 30.8656C4.37246 30.8656 4.63024 31.2032 4.63024 31.8111V33.807H5.40596V31.8185C5.40596 31.196 5.76007 30.8652 6.2694 30.8652C6.79336 30.8652 7.0434 31.2028 7.0434 31.8107V33.8065L7.82084 33.8083Z" fill="white"/>
<path d="M42.5906 21.876V21.3516H42.4563L42.3008 21.7114L42.1462 21.3516H42.0114V21.876H42.1069V21.4809L42.2522 21.8218H42.3511L42.4965 21.48V21.876H42.5911H42.5906ZM41.7382 21.876V21.4414H41.9102V21.3529H41.4707V21.4414H41.6427V21.876H41.7373H41.7382Z" fill="#F79410"/>
<path d="M27.316 24.1258H15.6875V2.88672H27.3162L27.316 24.1258Z" fill="#FF5F00"/>
<path d="M16.426 13.5076C16.426 9.19924 18.4109 5.36135 21.5017 2.88805C19.1621 1.01312 16.2684 -0.00445948 13.2889 1.46914e-05C5.94948 1.46914e-05 0 6.04747 0 13.5076C0 20.9677 5.94948 27.0151 13.2889 27.0151C16.2685 27.0197 19.1623 26.0021 21.5019 24.1271C18.4113 21.6543 16.426 17.8161 16.426 13.5076Z" fill="#EB001B"/>
<path d="M43.005 13.5076C43.005 20.9677 37.0555 27.0151 29.716 27.0151C26.7362 27.0196 23.8421 26.002 21.502 24.1271C24.5937 21.6538 26.5785 17.8161 26.5785 13.5076C26.5785 9.19902 24.5937 5.36135 21.502 2.88805C23.842 1.01318 26.7361 -0.00438106 29.7158 1.41789e-05C37.0553 1.41789e-05 43.0048 6.04747 43.0048 13.5076" fill="#F79E1B"/>
</g>
<defs>
<clipPath id="clip0_1014_57776">
<rect width="43" height="34" fill="white"/>
</clipPath>
</defs>
</svg>
