<svg width="20" height="4" viewBox="0 0 20 4" fill="none" xmlns="http://www.w3.org/2000/svg">
<g opacity="0.3">
<path d="M18.6035 1.01257C17.679 0.329152 16.1802 0.329152 15.2557 1.01257C14.3312 1.69598 14.3312 2.80402 15.2557 3.48744C16.1802 4.17085 17.679 4.17085 18.6035 3.48744C19.528 2.80405 19.528 1.69601 18.6035 1.01257Z" fill="#030229"/>
<path d="M11.502 1.01257C10.5775 0.329152 9.07861 0.329152 8.15413 1.01257C7.22966 1.69598 7.22966 2.80402 8.15413 3.48744C9.07861 4.17085 10.5775 4.17085 11.502 3.48744C12.4264 2.80405 12.4264 1.69601 11.502 1.01257Z" fill="#030229"/>
<path d="M4.40039 1.01257C3.47592 0.329152 1.97704 0.329152 1.05256 1.01257C0.128089 1.69598 0.128088 2.80402 1.05256 3.48744C1.97704 4.17085 3.47592 4.17085 4.40039 3.48744C5.32487 2.80405 5.32487 1.69601 4.40039 1.01257Z" fill="#030229"/>
</g>
</svg>
