<svg width="146" height="146" viewBox="0 0 146 146" fill="none" xmlns="http://www.w3.org/2000/svg">
<g filter="url(#filter0_d_1404_60561)">
<rect x="41" y="31" width="64" height="64" rx="32" fill="white"/>
<rect x="40.5" y="30.5" width="65" height="65" rx="32.5" stroke="#EE628F"/>
</g>
<g clip-path="url(#clip0_1404_60561)">
<path d="M75 54V56H65V69.385L66.763 68H81V61H83V69C83 69.2652 82.8946 69.5196 82.7071 69.7071C82.5196 69.8946 82.2652 70 82 70H67.455L63 73.5V55C63 54.7348 63.1054 54.4804 63.2929 54.2929C63.4804 54.1054 63.7348 54 64 54H75ZM80 54V51H82V54H85V56H82V59H80V56H77V54H80Z" fill="#EE628F"/>
</g>
<defs>
<filter id="filter0_d_1404_60561" x="0" y="0" width="146" height="146" filterUnits="userSpaceOnUse" color-interpolation-filters="sRGB">
<feFlood flood-opacity="0" result="BackgroundImageFix"/>
<feColorMatrix in="SourceAlpha" type="matrix" values="0 0 0 0 0 0 0 0 0 0 0 0 0 0 0 0 0 0 127 0" result="hardAlpha"/>
<feOffset dy="10"/>
<feGaussianBlur stdDeviation="20"/>
<feColorMatrix type="matrix" values="0 0 0 0 0.63 0 0 0 0 0.6525 0 0 0 0 0.675 0 0 0 0.4 0"/>
<feBlend mode="normal" in2="BackgroundImageFix" result="effect1_dropShadow_1404_60561"/>
<feBlend mode="normal" in="SourceGraphic" in2="effect1_dropShadow_1404_60561" result="shape"/>
</filter>
<clipPath id="clip0_1404_60561">
<rect width="24" height="24" fill="white" transform="translate(61 51)"/>
</clipPath>
</defs>
</svg>
