<svg width="25" height="25" viewBox="0 0 25 25" fill="none" xmlns="http://www.w3.org/2000/svg">
<path d="M12.5 23.4375C18.5406 23.4375 23.4375 18.5406 23.4375 12.5C23.4375 6.45939 18.5406 1.5625 12.5 1.5625C6.45939 1.5625 1.5625 6.45939 1.5625 12.5C1.5625 18.5406 6.45939 23.4375 12.5 23.4375Z" fill="#DF704D"/>
<path fill-rule="evenodd" clip-rule="evenodd" d="M12.0466 7.81257C11.6663 7.43132 11.2146 7.12883 10.7172 6.92244C10.2199 6.71606 9.68666 6.60982 9.14818 6.60982C8.60969 6.60982 8.0765 6.71606 7.57914 6.92244C7.08178 7.12883 6.63002 7.43132 6.24974 7.81257C5.8647 8.19713 5.55924 8.65382 5.35084 9.15652C5.14243 9.65922 5.03516 10.1981 5.03516 10.7423C5.03516 11.2865 5.14243 11.8253 5.35084 12.328C5.55924 12.8307 5.8647 13.2874 6.24974 13.6719L12.4997 19.9219L18.7497 13.6719C19.1348 13.2874 19.4402 12.8307 19.6486 12.328C19.8571 11.8253 19.9643 11.2865 19.9643 10.7423C19.9643 10.1981 19.8571 9.65922 19.6486 9.15652C19.4402 8.65382 19.1348 8.19713 18.7497 7.81257C18.372 7.43009 17.9218 7.12671 17.4255 6.92013C16.9292 6.71356 16.3967 6.60794 15.8591 6.60945C15.3213 6.60619 14.7883 6.711 14.2917 6.91768C13.7952 7.12435 13.3452 7.42867 12.9685 7.81257L12.4997 8.28132L12.0466 7.81257Z" fill="#FFF3F0" stroke="#77280C"/>
<path fill-rule="evenodd" clip-rule="evenodd" d="M12.0471 7.8125C11.6689 7.42747 11.2179 7.12164 10.7202 6.91287C10.2226 6.7041 9.68831 6.59657 9.14865 6.59657C8.60898 6.59657 8.07472 6.7041 7.57707 6.91287C7.07942 7.12164 6.62835 7.42747 6.25021 7.8125C5.49622 8.58579 5.07422 9.62309 5.07422 10.7031C5.07422 11.7832 5.49622 12.8205 6.25021 13.5937L12.5002 19.8437L18.7502 13.5937C19.5042 12.8205 19.9262 11.7832 19.9262 10.7031C19.9262 9.62309 19.5042 8.58579 18.7502 7.8125C18.3732 7.4279 17.9235 7.12208 17.4273 6.91286C16.931 6.70363 16.3981 6.59516 15.8596 6.59375C15.3208 6.59341 14.7873 6.70108 14.2909 6.91041C13.7944 7.11975 13.3449 7.42648 12.969 7.8125L12.5002 8.20313L12.0471 7.8125Z" stroke="#77280C" stroke-linecap="round" stroke-linejoin="round"/>
</svg>
