<svg width="25" height="25" viewBox="0 0 25 25" fill="none" xmlns="http://www.w3.org/2000/svg">
<path d="M12.5 23.4375C18.5406 23.4375 23.4375 18.5406 23.4375 12.5C23.4375 6.45939 18.5406 1.5625 12.5 1.5625C6.45939 1.5625 1.5625 6.45939 1.5625 12.5C1.5625 18.5406 6.45939 23.4375 12.5 23.4375Z" fill="#1485BD"/>
<path fill-rule="evenodd" clip-rule="evenodd" d="M18.6411 11.3281H17.7818C17.7036 11.3281 17.5474 11.0312 17.1568 10.6094C16.5786 9.98438 15.938 9.1875 15.4849 8.75C14.3605 7.77424 13.4417 6.58446 12.7818 5.25C12.4068 4.45313 12.3755 4.09375 11.6099 4.09375C11.3075 4.13279 11.0312 4.28519 10.8369 4.52013C10.6425 4.75507 10.5447 5.05503 10.563 5.35938C10.563 5.57813 10.6724 6.34375 10.7193 6.60938C11.0539 7.83103 11.5814 8.99145 12.2818 10.0469H13.1255H6.43801C6.2486 10.0441 6.06069 10.0809 5.88635 10.155C5.712 10.2291 5.55506 10.3388 5.4256 10.4771C5.29613 10.6154 5.197 10.7792 5.13456 10.958C5.07212 11.1369 5.04775 11.3268 5.06301 11.5156C5.0871 11.8817 5.25175 12.2243 5.52256 12.4718C5.79337 12.7193 6.14937 12.8526 6.51614 12.8438H6.76614C6.60607 12.8478 6.44838 12.8834 6.30206 12.9484C6.15574 13.0134 6.02366 13.1066 5.91338 13.2227C5.8031 13.3388 5.71678 13.4755 5.65934 13.6249C5.6019 13.7744 5.57448 13.9337 5.57864 14.0938C5.58135 14.4086 5.70132 14.7111 5.91512 14.9423C6.12892 15.1734 6.42121 15.3166 6.73489 15.3438C6.54395 15.4898 6.39918 15.6879 6.31795 15.9141C6.23671 16.1404 6.22245 16.3853 6.27687 16.6195C6.33129 16.8537 6.45208 17.0672 6.62477 17.2344C6.79746 17.4017 7.01472 17.5156 7.25051 17.5625C7.1008 17.8224 7.05081 18.1278 7.10989 18.4219C7.1899 18.7105 7.36404 18.9641 7.60466 19.1425C7.84529 19.3208 8.13859 19.4137 8.43801 19.4062H12.0161C12.4849 19.4062 12.9521 19.3469 13.4068 19.2344L15.6255 18.5781H18.5943C20.188 18.5156 20.6099 11.3281 18.6411 11.3281Z" fill="#E6F7FF"/>
<path d="M11.6086 10.047H6.42106C6.22357 10.0452 6.028 10.0859 5.84766 10.1664C5.66732 10.2469 5.50644 10.3653 5.37597 10.5136C5.2455 10.6618 5.1485 10.8365 5.09157 11.0256C5.03464 11.2147 5.01912 11.4138 5.04606 11.6095C5.07397 11.9728 5.24029 12.3115 5.51069 12.5557C5.78109 12.8 6.13493 12.9311 6.49918 12.922H6.74918C6.58912 12.9261 6.43142 12.9616 6.2851 13.0266C6.13878 13.0916 6.00671 13.1849 5.89643 13.3009C5.78615 13.417 5.69982 13.5537 5.64238 13.7032C5.58495 13.8526 5.55752 14.0119 5.56168 14.172C5.56743 14.4875 5.68803 14.7901 5.90087 15.0231C6.11372 15.2561 6.40422 15.4035 6.71793 15.4376C6.56851 15.5548 6.44739 15.7042 6.36354 15.8746C6.27969 16.045 6.23526 16.2321 6.23356 16.422C6.23434 16.7151 6.33558 16.9991 6.5204 17.2265C6.70523 17.454 6.96245 17.6112 7.24918 17.672C7.09838 17.9372 7.04844 18.2479 7.10856 18.547C7.19146 18.8327 7.36684 19.0828 7.6072 19.2582C7.84755 19.4335 8.1393 19.5241 8.43668 19.5157H12.0148C12.4836 19.5157 12.9507 19.4564 13.4054 19.3439L15.6242 18.6095H18.5929C20.1554 18.6095 20.5773 11.3595 18.5929 11.3595C18.3067 11.3753 18.0198 11.3753 17.7336 11.3595C17.6554 11.3595 17.4992 11.0626 17.1086 10.6407C16.5304 10.0157 15.8898 9.21887 15.4367 8.78137C14.3276 7.79661 13.4247 6.60169 12.7804 5.26575C12.6563 4.97092 12.4877 4.69689 12.2804 4.45325C12.0202 4.2344 11.6844 4.12651 11.3454 4.15281C11.0064 4.17912 10.6913 4.33751 10.4679 4.59387C10.306 4.769 10.174 4.9696 10.0773 5.18762C10.0141 5.3385 9.96696 5.49562 9.93668 5.65637C9.89476 6.0969 9.9318 6.54137 10.0461 6.96887C10.1461 7.41887 10.2882 7.85794 10.4679 8.28137C10.7617 8.83294 11.1086 9.35637 11.4992 9.84387C11.5474 9.87358 11.5855 9.91715 11.6086 9.96887" stroke="#004B7C" stroke-linecap="round" stroke-linejoin="round"/>
</svg>
