<svg width="26" height="23" viewBox="0 0 26 23" fill="none" xmlns="http://www.w3.org/2000/svg">
<path d="M10.9377 22.4379C13.8386 22.4379 16.6206 21.2855 18.6718 19.2343C20.723 17.1831 21.8754 14.4011 21.8754 11.5002C21.8754 8.59934 20.723 5.81729 18.6718 3.76608C16.6206 1.71486 13.8386 0.5625 10.9377 0.5625C8.03684 0.5625 5.25479 1.71486 3.20358 3.76608C1.15236 5.81729 0 8.59934 0 11.5002C0 14.4011 1.15236 17.1831 3.20358 19.2343C5.25479 21.2855 8.03684 22.4379 10.9377 22.4379Z" fill="#D8D8D8"/>
<path d="M10.9377 22.4379C13.8386 22.4379 16.6206 21.2855 18.6718 19.2343C20.723 17.1831 21.8754 14.4011 21.8754 11.5002C21.8754 8.59934 20.723 5.81729 18.6718 3.76608C16.6206 1.71486 13.8386 0.5625 10.9377 0.5625C8.03684 0.5625 5.25479 1.71486 3.20358 3.76608C1.15236 5.81729 0 8.59934 0 11.5002C0 14.4011 1.15236 17.1831 3.20358 19.2343C5.25479 21.2855 8.03684 22.4379 10.9377 22.4379Z" fill="#BBA9D1"/>
<path d="M8.66468 15.5892H8.45686C8.41902 15.5944 8.38064 15.5944 8.3428 15.5892C7.98967 15.4579 6.1912 14.772 4.98492 14.4345C4.91096 14.4135 4.84482 14.3712 4.79479 14.3128C4.74476 14.2545 4.71306 14.1826 4.70367 14.1063C4.65563 13.8331 4.71558 13.5519 4.87086 13.3219C4.93063 13.2404 5.00905 13.1743 5.09956 13.1291C5.19007 13.084 5.29006 13.0612 5.39118 13.0626C5.49431 13.0626 5.599 13.0782 5.69744 13.1141C5.9365 13.2079 6.15995 13.3391 6.35682 13.5048L6.44589 13.5673L7.00215 13.9579C7.20996 14.1016 7.39278 14.2266 7.52091 14.3251L8.82093 14.8454C8.9975 14.9235 9.73032 15.2563 9.6897 15.4392C9.64751 15.6204 8.86156 15.6048 8.68655 15.6095L8.66468 15.5892Z" fill="#FEF2FF"/>
<path d="M22.6139 20.9845C20.7502 20.9492 18.8915 20.7774 17.0529 20.4704H16.9482C15.5582 20.291 14.1809 20.0238 12.8247 19.6704C11.6247 19.3329 10.4403 18.8923 9.29337 18.4704L8.78398 18.286C7.85434 17.9484 6.92924 17.5983 6.00893 17.236L5.70737 17.1172C5.22498 16.9403 4.75424 16.7332 4.29797 16.4969C3.66827 16.1532 3.47608 15.7125 3.75108 15.1906V15.1485C3.83827 14.9872 3.97098 14.8551 4.13268 14.7687C4.29438 14.6823 4.47793 14.6454 4.66047 14.6625H4.73079C4.82298 14.6563 4.9136 14.6563 5.00579 14.6625C6.00425 14.7641 8.89336 15.7907 9.46368 15.9953L11.3278 16.0578H11.3715L15.5888 16.1891C15.2607 15.9125 14.4325 15.4203 12.4137 14.9344C12.0294 14.8406 11.6793 14.7391 11.5965 14.4781C11.5354 14.2775 11.5378 14.0628 11.6036 13.8636C11.6693 13.6644 11.7951 13.4904 11.9637 13.3656C12.2294 13.2187 12.5387 13.1515 12.8466 13.175C13.4066 13.1751 13.9626 13.2686 14.4919 13.4515C14.931 13.5922 15.3857 13.6859 15.8466 13.7328C16.5998 13.8359 17.3451 13.9906 18.0732 14.2016C20.4248 14.7906 20.8795 15.8922 21.1764 16.5594C21.0826 16.2875 21.1764 16.4875 21.2201 16.3844L21.2858 16.2969H21.4452C21.5128 16.3021 21.5807 16.3021 21.6483 16.2969C22.0545 16.2969 22.8202 16.261 22.8327 16.261C23.0249 16.261 23.9296 16.0516 23.9296 16.2203C24.0122 17.8255 23.65 19.4222 22.8827 20.8345C22.859 20.8748 22.8264 20.9091 22.7874 20.9348C22.7484 20.9605 22.704 20.977 22.6577 20.9829H22.6139V20.9845Z" fill="#EAE2F3"/>
<path d="M19.0684 14.6099C19.0904 14.6226 19.1155 14.6293 19.141 14.6293C19.1665 14.6293 19.1916 14.6226 19.2137 14.6099H19.0684Z" fill="#D67676"/>
<path fill-rule="evenodd" clip-rule="evenodd" d="M8.03381 4.5844C7.61749 4.15702 7.04847 3.91248 6.45189 3.90457C5.8553 3.89666 5.28 4.12602 4.8525 4.54221L4.81656 4.5844C4.38946 5.02217 4.15039 5.60955 4.15039 6.22115C4.15039 6.83275 4.38946 7.42013 4.81656 7.8579L8.28069 11.372L11.7526 7.85321C12.1794 7.41623 12.4184 6.82964 12.4184 6.21881C12.4184 5.60798 12.1794 5.02138 11.7526 4.5844C11.5447 4.36876 11.2955 4.19712 11.02 4.0797C10.7444 3.96228 10.448 3.90147 10.1485 3.90088C9.8489 3.9003 9.55228 3.95996 9.27625 4.0763C9.00021 4.19265 8.75039 4.36332 8.54163 4.57815L8.28694 4.83909L8.03224 4.5844H8.03381Z" fill="#ECAA96"/>
<path d="M24.8801 16.5753C25.0613 16.7003 25.0691 17.9862 24.6769 19.1175C24.2863 20.2488 22.9894 21.5754 22.78 21.7551C22.5722 21.9348 15.1971 20.9394 13.4674 20.6675C11.7377 20.3957 3.6547 16.6237 3.33125 16.4518C3.00625 16.28 2.97656 15.0487 3.9047 14.794C4.83128 14.5377 8.35791 16.0534 9.84856 16.1737C11.3392 16.2956 13.8127 16.4518 15.5768 16.4518C17.3409 16.4518 13.5393 15.3846 12.9267 15.1706C12.3127 14.9518 11.3095 14.6799 11.2345 14.1674C11.1611 13.6549 11.9173 13.1315 12.4205 12.9987C12.9236 12.8658 13.633 13.133 15.5768 13.5534C17.5206 13.9737 17.8393 13.733 19.4019 14.3362C20.9644 14.9393 21.7019 15.8487 21.8753 16.1737C22.0472 16.5003 24.6988 16.4518 24.8801 16.5753V16.5753Z" stroke="#493D57"/>
<path d="M4.80153 14.7688C4.44684 13.8094 4.97654 13.2 5.6078 13.075C6.2375 12.9516 7.44846 13.7266 8.29066 14.5079C8.9688 15.1344 9.52037 15.4798 11.2579 16.2579" stroke="#493D57"/>
<path d="M8.16346 4.26574C7.69856 3.81577 7.07561 3.56628 6.42863 3.57095C5.78165 3.57563 5.16237 3.8341 4.70402 4.29074C4.24544 4.74775 3.98433 5.36634 3.97673 6.01372C3.96914 6.6611 4.21567 7.28565 4.6634 7.7533L8.4369 11.5002L12.212 7.74861C12.5536 7.40251 12.7855 6.9632 12.8784 6.48581C12.9713 6.00843 12.9211 5.51424 12.7342 5.06526C12.5473 4.61628 12.2319 4.23252 11.8276 3.96213C11.4234 3.69174 10.9483 3.54677 10.4619 3.54541C9.8088 3.54854 9.18379 3.81104 8.72441 4.27667L8.4369 4.54699L8.16346 4.26574V4.26574Z" stroke="#77280C" stroke-linecap="round" stroke-linejoin="round"/>
</svg>
