<svg width="25" height="25" viewBox="0 0 25 25" fill="none" xmlns="http://www.w3.org/2000/svg">
<path d="M23.4375 12.5C23.4375 6.45939 18.5406 1.5625 12.5 1.5625C6.45939 1.5625 1.5625 6.45939 1.5625 12.5C1.5625 18.5406 6.45939 23.4375 12.5 23.4375C18.5406 23.4375 23.4375 18.5406 23.4375 12.5Z" fill="#DEB8DC"/>
<path d="M20.3125 12.5C20.3125 8.18528 16.8147 4.6875 12.5 4.6875C8.18528 4.6875 4.6875 8.18528 4.6875 12.5C4.6875 16.8147 8.18528 20.3125 12.5 20.3125C16.8147 20.3125 20.3125 16.8147 20.3125 12.5Z" fill="#F9F0F8" stroke="#523951"/>
<mask id="mask0_1344_64061" style="mask-type:alpha" maskUnits="userSpaceOnUse" x="3" y="3" width="19" height="19">
<path d="M12.5 21.0938C10.2216 21.0913 8.03715 20.1851 6.42604 18.574C4.81494 16.9629 3.90873 14.7784 3.90625 12.5C3.90625 7.76094 7.7625 3.90625 12.5 3.90625C17.2375 3.90625 21.0938 7.76094 21.0938 12.5C21.0938 17.2391 17.2375 21.0938 12.5 21.0938Z" fill="white"/>
</mask>
<g mask="url(#mask0_1344_64061)">
<path fill-rule="evenodd" clip-rule="evenodd" d="M10.0039 9.92188C9.87053 9.92187 9.73846 9.94815 9.61524 9.99919C9.49202 10.0502 9.38006 10.125 9.28575 10.2193C9.19144 10.3137 9.11663 10.4256 9.06559 10.5488C9.01455 10.6721 8.98828 10.8041 8.98828 10.9375C8.98828 11.0709 9.01455 11.2029 9.06559 11.3262C9.11663 11.4494 9.19144 11.5613 9.28575 11.6557C9.38006 11.75 9.49202 11.8248 9.61524 11.8758C9.73846 11.9269 9.87053 11.9531 10.0039 11.9531C10.2733 11.9531 10.5316 11.8461 10.7221 11.6557C10.9125 11.4652 11.0195 11.2069 11.0195 10.9375C11.0195 10.6681 10.9125 10.4098 10.7221 10.2193C10.5316 10.0289 10.2733 9.92188 10.0039 9.92188ZM15.0539 10.8844C14.9205 10.8844 14.7885 10.9106 14.6652 10.9617C14.542 11.0127 14.4301 11.0875 14.3358 11.1818C14.2414 11.2762 14.1666 11.3881 14.1156 11.5113C14.0646 11.6346 14.0383 11.7666 14.0383 11.9C14.0383 12.0334 14.0646 12.1654 14.1156 12.2887C14.1666 12.4119 14.2414 12.5238 14.3358 12.6182C14.4301 12.7125 14.542 12.7873 14.6652 12.8383C14.7885 12.8894 14.9205 12.9156 15.0539 12.9156C15.3233 12.9156 15.5816 12.8086 15.7721 12.6182C15.9625 12.4277 16.0695 12.1694 16.0695 11.9C16.0695 11.6306 15.9625 11.3723 15.7721 11.1818C15.5816 10.9914 15.3233 10.8844 15.0539 10.8844Z" fill="#523951" stroke="#523951" stroke-width="0.1"/>
<path d="M14.4383 9.08448C14.7977 8.95635 15.1961 8.95635 15.5555 9.08448C15.9273 9.17041 16.2508 9.38135 16.4664 9.67823M8.98828 7.82354C9.26016 7.56729 9.62578 7.41573 10.0102 7.39541C10.3945 7.34229 10.7836 7.42666 11.1039 7.62979L8.98828 7.82354Z" stroke="#523951" stroke-width="0.9" stroke-linecap="round" stroke-linejoin="round"/>
<path fill-rule="evenodd" clip-rule="evenodd" d="M12.6728 15.5779C12.7859 15.5572 12.9021 15.5603 13.014 15.5869C13.1259 15.6136 13.2311 15.6632 13.3228 15.7326C13.5103 15.8732 13.6353 16.0857 13.6696 16.3232C13.6982 16.5517 13.6419 16.7828 13.5114 16.9726C13.381 17.1624 13.1854 17.2977 12.9618 17.3529L10.7821 17.7357C10.9696 17.7045 11.1618 17.7529 11.3134 17.8717C11.4682 17.9917 11.5693 18.168 11.5946 18.3623C11.6262 18.5501 11.5869 18.7429 11.4845 18.9034C11.382 19.0639 11.2236 19.1806 11.04 19.231C11.2431 19.3404 11.3837 19.5435 11.4212 19.7779C11.4492 19.9538 11.4175 20.134 11.3312 20.2898C11.2448 20.4456 11.1087 20.5679 10.9446 20.6373C11.0589 20.789 11.1124 20.9779 11.0946 21.167C11.0789 21.3467 11.0035 21.5159 10.8802 21.6476C10.757 21.7793 10.5932 21.8659 10.415 21.8935L10.1618 21.9498C9.50558 22.0982 8.84309 22.2123 8.1759 22.2904C7.41654 22.3013 6.65787 22.2396 5.91027 22.106C5.65427 22.047 5.41805 21.9223 5.22489 21.7442C5.03174 21.5661 4.8883 21.3408 4.80871 21.0904C4.3134 20.0201 4.04309 17.9951 4.64934 17.4092C5.25715 16.8248 5.15246 16.9717 5.44309 16.2763C5.73215 15.5826 6.03684 14.7857 6.26809 14.1045C6.49934 13.4263 6.58996 13.1201 7.01965 12.9545C7.23012 12.8915 7.45661 12.9105 7.65368 13.0076C7.85074 13.1047 8.0038 13.2727 8.08215 13.4779C8.14465 13.9498 8.12434 14.431 8.01652 14.8935C7.90715 15.8373 7.90402 16.0545 8.01652 16.3763L12.6728 15.5795V15.5779Z" stroke="#523951" stroke-width="1.152" stroke-linecap="round" stroke-linejoin="round"/>
<path d="M7.46965 16.4842L12.6728 15.5779C12.7859 15.5572 12.9021 15.5603 13.014 15.5869C13.1259 15.6136 13.2311 15.6632 13.3228 15.7326C13.5103 15.8732 13.6353 16.0857 13.6696 16.3232C13.6982 16.5517 13.6419 16.7828 13.5114 16.9726C13.381 17.1624 13.1854 17.2977 12.9618 17.3529L10.7821 17.7357C10.9696 17.7045 11.1618 17.7529 11.3134 17.8717C11.4682 17.9917 11.5693 18.168 11.5946 18.3623C11.6262 18.5501 11.5869 18.7429 11.4845 18.9034C11.382 19.0639 11.2236 19.1806 11.04 19.231C11.2431 19.3404 11.3837 19.5435 11.4212 19.7779C11.4492 19.9538 11.4175 20.134 11.3312 20.2898C11.2448 20.4456 11.1087 20.5679 10.9446 20.6373C11.0589 20.789 11.1124 20.9779 11.0946 21.167C11.0789 21.3467 11.0035 21.5159 10.8802 21.6476C10.757 21.7793 10.5932 21.8659 10.415 21.8935L10.1618 21.9498C9.50558 22.0982 8.84308 22.2123 8.1759 22.2904C7.41654 22.3013 6.65787 22.2396 5.91027 22.106C5.65427 22.047 5.41805 21.9223 5.22489 21.7442C5.03174 21.5661 4.8883 21.3408 4.80871 21.0904C4.3134 20.0201 4.04309 17.9951 4.64934 17.4092C5.25715 16.8248 5.15246 16.9717 5.44309 16.2763C5.73215 15.5826 6.03684 14.7857 6.26809 14.1045C6.49934 13.4263 6.58996 13.1201 7.01965 12.9545C7.23012 12.8915 7.45661 12.9105 7.65368 13.0076C7.85074 13.1047 8.0038 13.2727 8.08215 13.4779C8.14465 13.9498 8.12434 14.431 8.01652 14.8935C7.90715 15.8373 7.90402 16.0545 8.01652 16.3763" fill="#F9F0F8"/>
<path fill-rule="evenodd" clip-rule="evenodd" d="M12.6728 15.5779C12.7859 15.5572 12.9021 15.5603 13.014 15.5869C13.1259 15.6136 13.2311 15.6632 13.3228 15.7326C13.5103 15.8732 13.6353 16.0857 13.6696 16.3232C13.6982 16.5517 13.6419 16.7828 13.5114 16.9726C13.381 17.1624 13.1854 17.2977 12.9618 17.3529L10.7821 17.7357C10.9696 17.7045 11.1618 17.7529 11.3134 17.8717C11.4682 17.9917 11.5693 18.168 11.5946 18.3623C11.6262 18.5501 11.5869 18.7429 11.4845 18.9034C11.382 19.0639 11.2236 19.1806 11.04 19.231C11.2431 19.3404 11.3837 19.5435 11.4212 19.7779C11.4492 19.9538 11.4175 20.134 11.3312 20.2898C11.2448 20.4456 11.1087 20.5679 10.9446 20.6373C11.0589 20.789 11.1124 20.9779 11.0946 21.167C11.0789 21.3467 11.0035 21.5159 10.8802 21.6476C10.757 21.7793 10.5932 21.8659 10.415 21.8935L10.1618 21.9498C9.50558 22.0982 8.84309 22.2123 8.1759 22.2904C7.41654 22.3013 6.65787 22.2396 5.91027 22.106C5.65427 22.047 5.41805 21.9223 5.22489 21.7442C5.03174 21.5661 4.8883 21.3408 4.80871 21.0904C4.3134 20.0201 4.04309 17.9951 4.64934 17.4092C5.25715 16.8248 5.15246 16.9717 5.44309 16.2763C5.73215 15.5826 6.03684 14.7857 6.26809 14.1045C6.49934 13.4263 6.58996 13.1201 7.01965 12.9545C7.23012 12.8915 7.45661 12.9105 7.65368 13.0076C7.85074 13.1047 8.0038 13.2727 8.08215 13.4779C8.14465 13.9498 8.12434 14.431 8.01652 14.8935C7.90715 15.8373 7.90402 16.0545 8.01652 16.3763L12.6728 15.5795V15.5779Z" stroke="#523951" stroke-width="0.5" stroke-linecap="round" stroke-linejoin="round"/>
</g>
</svg>
