<svg width="25" height="25" viewBox="0 0 25 25" fill="none" xmlns="http://www.w3.org/2000/svg">
<mask id="mask0_1344_64057" style="mask-type:alpha" maskUnits="userSpaceOnUse" x="1" y="1" width="23" height="23">
<path d="M23.4375 12.5C23.4375 6.45939 18.5406 1.5625 12.5 1.5625C6.45939 1.5625 1.5625 6.45939 1.5625 12.5C1.5625 18.5406 6.45939 23.4375 12.5 23.4375C18.5406 23.4375 23.4375 18.5406 23.4375 12.5Z" fill="white"/>
</mask>
<g mask="url(#mask0_1344_64057)">
<path d="M23.4375 12.5C23.4375 6.45939 18.5406 1.5625 12.5 1.5625C6.45939 1.5625 1.5625 6.45939 1.5625 12.5C1.5625 18.5406 6.45939 23.4375 12.5 23.4375C18.5406 23.4375 23.4375 18.5406 23.4375 12.5Z" fill="#D8D8D8"/>
<path d="M12.5 23.4375C18.5406 23.4375 23.4375 18.5406 23.4375 12.5C23.4375 6.45939 18.5406 1.5625 12.5 1.5625C6.45939 1.5625 1.5625 6.45939 1.5625 12.5C1.5625 18.5406 6.45939 23.4375 12.5 23.4375Z" fill="#6DAE4F"/>
<path d="M12.5 1.5625C15.4008 1.5625 18.1828 2.71484 20.234 4.76602C22.2852 6.8172 23.4375 9.59919 23.4375 12.5C23.4375 15.4008 22.2852 18.1828 20.234 20.234C18.1828 22.2852 15.4008 23.4375 12.5 23.4375C9.59919 23.4375 6.8172 22.2852 4.76602 20.234C2.71484 18.1828 1.5625 15.4008 1.5625 12.5C1.5625 9.59919 2.71484 6.8172 4.76602 4.76602C6.8172 2.71484 9.59919 1.5625 12.5 1.5625V1.5625ZM12.5 0C9.18479 0 6.00537 1.31696 3.66117 3.66117C1.31696 6.00537 0 9.18479 0 12.5C0 15.8152 1.31696 18.9946 3.66117 21.3388C6.00537 23.683 9.18479 25 12.5 25C15.8152 25 18.9946 23.683 21.3388 21.3388C23.683 18.9946 25 15.8152 25 12.5C25 9.18479 23.683 6.00537 21.3388 3.66117C18.9946 1.31696 15.8152 0 12.5 0V0Z" fill="white"/>
<path d="M18.9576 14.4125C18.9292 13.1848 18.7401 11.9661 18.3951 10.7875C17.4493 10.0274 16.7305 9.02204 16.317 7.88126C16.067 7.05314 15.8951 6.75626 15.1608 6.74064C15.0113 6.75423 14.866 6.79759 14.7336 6.86817C14.6011 6.93875 14.4841 7.03512 14.3895 7.1516C14.2949 7.26808 14.2245 7.40232 14.1825 7.54642C14.1405 7.69052 14.1278 7.84155 14.1451 7.99064C14.1545 8.36564 14.1858 8.7422 14.2389 9.11564C14.4529 10.1391 14.7545 11.1438 15.1451 12.1156L8.11388 6.77189C7.99659 6.65764 7.85667 6.56924 7.70312 6.51238C7.54958 6.45552 7.38583 6.43147 7.22242 6.44178C7.05901 6.45208 6.89958 6.49651 6.7544 6.57221C6.60921 6.64791 6.4815 6.75319 6.3795 6.88126C6.30197 7.01088 6.25132 7.15478 6.23059 7.30438C6.20986 7.45398 6.21947 7.60623 6.25884 7.75205C6.29821 7.89786 6.36653 8.03425 6.45974 8.15309C6.55295 8.27193 6.66914 8.37079 6.80138 8.44376L10.317 11.1L11.2389 11.975L5.66075 7.74064C5.54893 7.62787 5.41421 7.54043 5.26569 7.48422C5.11716 7.42801 4.9583 7.40434 4.79984 7.41481C4.64138 7.42528 4.48702 7.46965 4.34719 7.54492C4.20735 7.62019 4.08531 7.72461 3.98931 7.85111C3.8933 7.97761 3.82557 8.12324 3.7907 8.27817C3.75583 8.4331 3.75463 8.59371 3.78718 8.74914C3.81973 8.90458 3.88527 9.05121 3.97937 9.17913C4.07347 9.30706 4.19393 9.41328 4.33263 9.49064L7.84825 12.1469L9.95763 13.7094L5.39513 10.2875C5.27784 10.1733 5.13792 10.0849 4.98437 10.028C4.83083 9.97115 4.66708 9.9471 4.50367 9.9574C4.34026 9.96771 4.18083 10.0121 4.03565 10.0878C3.89046 10.1635 3.76275 10.2688 3.66075 10.3969C3.17638 11.0219 3.567 11.6625 4.067 12.0531L7.58263 14.6938L9.34825 16.0219L5.83263 13.3656C5.72432 13.2477 5.59271 13.1536 5.44612 13.0892C5.29953 13.0248 5.14117 12.9915 4.98106 12.9915C4.82096 12.9915 4.66259 13.0248 4.51601 13.0892C4.36942 13.1536 4.23781 13.2477 4.1295 13.3656C4.0336 13.4993 3.96691 13.6516 3.93377 13.8128C3.90063 13.9739 3.90178 14.1402 3.93715 14.3008C3.97252 14.4615 4.04132 14.6129 4.13907 14.7452C4.23682 14.8775 4.36133 14.9878 4.5045 15.0688L10.9108 19.7563C11.8389 20.4547 14.1451 21.0578 15.1608 20.175" stroke="#165209" stroke-width="1.5" stroke-linecap="round" stroke-linejoin="round"/>
<path fill-rule="evenodd" clip-rule="evenodd" d="M19.7076 15.475L19.0513 14.8969C18.966 13.7469 18.6969 12.618 18.2544 11.5531C17.3397 10.4801 16.6918 9.20576 16.3638 7.83439C16.1138 7.00626 15.9419 6.70939 15.2076 6.69376C15.0581 6.70735 14.9129 6.75072 14.7804 6.8213C14.6479 6.89187 14.531 6.98824 14.4363 7.10472C14.3417 7.22121 14.2713 7.35545 14.2293 7.49954C14.1874 7.64364 14.1746 7.79468 14.1919 7.94376C14.2013 8.31876 14.2326 8.69533 14.2857 9.06876C14.4654 10.0547 14.7544 11.0188 15.1451 11.9438L14.8482 11.7719L8.11381 6.60001C7.99652 6.48577 7.8566 6.39736 7.70306 6.34051C7.54952 6.28365 7.38576 6.2596 7.22236 6.2699C7.05895 6.28021 6.89951 6.32464 6.75433 6.40034C6.60915 6.47603 6.48144 6.58131 6.37943 6.70939C6.28853 6.84299 6.22705 6.99439 6.19907 7.15354C6.17109 7.3127 6.17725 7.47599 6.21714 7.63258C6.25703 7.78918 6.32973 7.93551 6.43044 8.06189C6.53115 8.18827 6.65757 8.2918 6.80131 8.36564L10.2388 11.0063L11.2388 11.8031L5.66068 7.56876C5.54444 7.45362 5.40538 7.36409 5.25244 7.30594C5.09951 7.24779 4.93609 7.22231 4.77271 7.23114C4.60933 7.23997 4.44962 7.28292 4.30384 7.35721C4.15806 7.43151 4.02946 7.53551 3.92631 7.66251C3.83724 7.79589 3.7769 7.94635 3.74912 8.10431C3.72134 8.26227 3.72672 8.42428 3.76493 8.58005C3.80313 8.73581 3.87333 8.88193 3.97105 9.0091C4.06877 9.13628 4.19188 9.24173 4.33256 9.31876L7.84818 11.975L9.95756 13.5375L5.39506 10.1313C5.28004 10.0138 5.14131 9.9223 4.98812 9.86273C4.83492 9.80316 4.67079 9.77694 4.50666 9.78581C4.34254 9.79468 4.18219 9.83844 4.03631 9.91418C3.89043 9.98991 3.76238 10.0959 3.66068 10.225C3.5692 10.3576 3.50686 10.5081 3.47775 10.6666C3.44865 10.8251 3.45344 10.9879 3.49182 11.1444C3.5302 11.3009 3.6013 11.4474 3.70043 11.5744C3.79956 11.7015 3.92447 11.806 4.06693 11.8813L7.58256 14.5219L9.34818 15.85L5.83256 13.2094C5.72695 13.0871 5.59622 12.9889 5.44927 12.9216C5.30233 12.8544 5.14261 12.8196 4.981 12.8196C4.81938 12.8196 4.65967 12.8544 4.51272 12.9216C4.36577 12.9889 4.23504 13.0871 4.12943 13.2094C4.03379 13.3418 3.96727 13.4929 3.93427 13.6529C3.90126 13.8128 3.90251 13.9779 3.93794 14.1374C3.97337 14.2968 4.04217 14.4469 4.13981 14.5778C4.23746 14.7087 4.36172 14.8175 4.50443 14.8969L10.9107 19.7563C11.3703 20.1021 11.8953 20.351 12.454 20.488C13.0126 20.625 13.5932 20.6471 14.1607 20.5531C15.0013 21.0406 15.7357 21.0406 16.3638 20.5531C17.3044 19.8203 16.9951 19.7547 17.6919 18.7875C18.4806 17.7588 19.1564 16.6482 19.7076 15.475V15.475Z" fill="#DCF0CB"/>
<path d="M18.9576 14.4125C18.9292 13.1848 18.7401 11.9661 18.3951 10.7875C17.4493 10.0274 16.7305 9.02204 16.317 7.88126C16.067 7.05314 15.8951 6.75626 15.1608 6.74064C15.0113 6.75423 14.866 6.79759 14.7336 6.86817C14.6011 6.93875 14.4841 7.03512 14.3895 7.1516C14.2949 7.26808 14.2245 7.40232 14.1825 7.54642C14.1405 7.69052 14.1278 7.84155 14.1451 7.99064C14.1545 8.36564 14.1858 8.7422 14.2389 9.11564C14.4529 10.1391 14.7545 11.1438 15.1451 12.1156L8.11388 6.77189C7.99659 6.65764 7.85667 6.56924 7.70312 6.51238C7.54958 6.45552 7.38583 6.43147 7.22242 6.44178C7.05901 6.45208 6.89958 6.49651 6.7544 6.57221C6.60921 6.64791 6.4815 6.75319 6.3795 6.88126C6.30197 7.01088 6.25132 7.15478 6.23059 7.30438C6.20986 7.45399 6.21947 7.60623 6.25884 7.75205C6.29821 7.89786 6.36653 8.03425 6.45974 8.15309C6.55295 8.27193 6.66914 8.37079 6.80138 8.44376L10.317 11.1L11.2389 11.975L5.66075 7.74064C5.54893 7.62787 5.41421 7.54043 5.26569 7.48422C5.11716 7.42801 4.9583 7.40434 4.79984 7.41481C4.64138 7.42528 4.48702 7.46965 4.34719 7.54492C4.20735 7.62019 4.08531 7.72461 3.98931 7.85111C3.8933 7.97761 3.82557 8.12324 3.7907 8.27817C3.75583 8.4331 3.75463 8.59371 3.78718 8.74914C3.81973 8.90458 3.88527 9.05121 3.97937 9.17913C4.07347 9.30706 4.19393 9.41328 4.33263 9.49064L7.84825 12.1469L9.95763 13.7094L5.39513 10.2875C5.27784 10.1733 5.13792 10.0849 4.98437 10.028C4.83083 9.97115 4.66708 9.9471 4.50367 9.9574C4.34026 9.96771 4.18083 10.0121 4.03565 10.0878C3.89046 10.1635 3.76275 10.2688 3.66075 10.3969C3.17638 11.0219 3.567 11.6625 4.067 12.0531L7.58263 14.6938L9.34825 16.0219L5.83263 13.3656C5.72432 13.2477 5.59271 13.1536 5.44612 13.0892C5.29953 13.0248 5.14117 12.9915 4.98106 12.9915C4.82096 12.9915 4.66259 13.0248 4.51601 13.0892C4.36942 13.1536 4.23781 13.2477 4.1295 13.3656C4.0336 13.4993 3.96691 13.6516 3.93377 13.8128C3.90063 13.9739 3.90178 14.1402 3.93715 14.3008C3.97252 14.4615 4.04132 14.6129 4.13907 14.7452C4.23682 14.8775 4.36133 14.9878 4.5045 15.0688L10.9108 19.7563C11.8389 20.4547 14.0139 20.9156 15.1608 20.725" stroke="#165209" stroke-width="0.5" stroke-linecap="round" stroke-linejoin="round"/>
<path fill-rule="evenodd" clip-rule="evenodd" d="M23.0742 17.7939C22.7582 17.4556 22.5137 17.057 22.3555 16.622C22.3555 16.2782 22.2617 15.9501 22.1992 15.6064C22.1504 15.0068 21.9574 14.4278 21.6367 13.9189C20.7311 12.8397 20.0844 11.5677 19.7461 10.2001C19.4961 9.37198 19.3242 9.07511 18.5899 9.05948C18.4404 9.07308 18.2952 9.11644 18.1627 9.18702C18.0303 9.25759 17.9133 9.35396 17.8186 9.47044C17.724 9.58693 17.6536 9.72117 17.6116 9.86526C17.5697 10.0094 17.5569 10.1604 17.5742 10.3095C17.5852 10.6845 17.6164 11.0595 17.668 11.4345C17.9492 12.872 18.2461 14.0595 18.2774 14.1376L11.5742 9.12198C11.4582 9.00545 11.3185 8.91503 11.1647 8.85675C11.0109 8.79847 10.8464 8.77368 10.6823 8.78403C10.5181 8.79438 10.3581 8.83964 10.2128 8.91678C10.0675 8.99392 9.94038 9.10117 9.83986 9.23136C9.7617 9.36003 9.71016 9.50308 9.68829 9.65203C9.66643 9.80099 9.67468 9.95281 9.71256 10.0985C9.75045 10.2442 9.81719 10.3808 9.90884 10.5003C10.0005 10.6197 10.1152 10.7196 10.2461 10.7939L13.7617 13.4501L14.8242 14.3251L9.19924 10.0907C9.08422 9.97332 8.94549 9.88177 8.79229 9.8222C8.6391 9.76263 8.47497 9.73641 8.31084 9.74528C8.14672 9.75415 7.98637 9.79791 7.84049 9.87365C7.69461 9.94938 7.56655 10.0554 7.46486 10.1845C7.37338 10.3171 7.31103 10.4676 7.28193 10.6261C7.25282 10.7845 7.25762 10.9474 7.296 11.1039C7.33438 11.2603 7.40548 11.4069 7.50461 11.5339C7.60373 11.6609 7.72865 11.7655 7.87111 11.8407L11.3867 14.497L13.4961 16.0595L8.91799 12.6376C8.80103 12.5246 8.66155 12.4375 8.50865 12.3821C8.35575 12.3267 8.19288 12.3041 8.03067 12.3159C7.86846 12.3277 7.71057 12.3736 7.5673 12.4506C7.42403 12.5275 7.29861 12.6339 7.19924 12.7626C6.71486 13.3876 7.08986 14.0282 7.60549 14.4189L11.1211 17.0439L12.8711 18.372L9.29299 15.7157C9.0736 15.5251 8.78973 15.4255 8.49934 15.4371C8.20895 15.4487 7.93395 15.5707 7.73049 15.7782C7.63484 15.9063 7.56677 16.0528 7.53058 16.2084C7.49439 16.3641 7.49087 16.5256 7.52023 16.6827C7.5496 16.8398 7.61121 16.9891 7.70119 17.1212C7.79116 17.2533 7.90754 17.3653 8.04299 17.4501L14.293 22.1376C14.8149 22.5282 15.418 22.7954 16.0586 22.9189L16.9649 23.0595C17.4414 23.1298 17.9024 23.2829 18.3242 23.5126C18.6159 23.6551 18.9505 23.6829 19.2617 23.5907C20.3606 23.2032 21.322 22.5025 22.0274 21.5751C22.688 20.6619 23.0681 19.576 23.1211 18.4501C23.1608 18.2309 23.1447 18.0052 23.0742 17.7939Z" stroke="#165209" stroke-width="1.5" stroke-linecap="round" stroke-linejoin="round"/>
<path fill-rule="evenodd" clip-rule="evenodd" d="M23.1369 17.7157L22.4337 17.1845C22.3559 16.0333 22.0866 14.9033 21.6369 13.8407C20.7284 12.7635 20.0814 11.4907 19.7462 10.122C19.4962 9.29386 19.3244 8.99699 18.59 8.98136C18.4405 8.99495 18.2953 9.03831 18.1628 9.10889C18.0304 9.17947 17.9134 9.27584 17.8187 9.39232C17.7241 9.5088 17.6537 9.64305 17.6117 9.78714C17.5698 9.93124 17.5571 10.0823 17.5744 10.2314C17.5853 10.6064 17.6165 10.9814 17.6681 11.3564C17.9494 12.8095 18.2462 13.997 18.2775 14.0595L11.5744 9.04386C11.4571 8.92961 11.3172 8.84121 11.1636 8.78435C11.0101 8.7275 10.8463 8.70344 10.6829 8.71375C10.5195 8.72405 10.3601 8.76849 10.2149 8.84418C10.0697 8.91988 9.94199 9.02516 9.83999 9.15324C9.35561 9.79386 9.74624 10.4189 10.2462 10.8095L13.7619 13.4501L14.8244 14.3251L9.19936 10.0126C9.08208 9.89836 8.94215 9.80996 8.78861 9.7531C8.63507 9.69625 8.47131 9.67219 8.30791 9.6825C8.1445 9.6928 7.98507 9.73724 7.83988 9.81293C7.6947 9.88863 7.56699 9.99391 7.46499 10.122C6.98061 10.747 7.37124 11.3876 7.87124 11.7782L11.3869 14.4189L13.4962 15.9814L8.91811 12.5595C8.8022 12.4456 8.66358 12.3574 8.5113 12.3007C8.35901 12.244 8.19648 12.22 8.03431 12.2303C7.87213 12.2406 7.71396 12.285 7.57009 12.3606C7.42622 12.4362 7.2999 12.5412 7.19936 12.6689C7.10534 12.8007 7.04088 12.9512 7.01038 13.1102C6.97988 13.2692 6.98405 13.4329 7.02262 13.5902C7.06119 13.7474 7.13324 13.8945 7.23386 14.0213C7.33447 14.1481 7.46128 14.2518 7.60561 14.3251L11.1212 16.9657L12.8712 18.2939L9.29311 15.6532C9.07719 15.4552 8.79171 15.3507 8.49898 15.3624C8.20624 15.3741 7.93003 15.5011 7.73061 15.7157C7.62147 15.8441 7.54214 15.9951 7.49831 16.1578C7.45448 16.3205 7.44724 16.4909 7.47712 16.6567C7.507 16.8226 7.57326 16.9797 7.67112 17.1169C7.76898 17.2541 7.89602 17.3679 8.04311 17.4501L14.2931 22.1376C15.2407 22.7027 16.3155 23.0198 17.4181 23.0595C17.8182 23.304 18.236 23.5181 18.6681 23.7001C19.9217 23.4638 21.0387 22.7601 21.7931 21.7314C22.6166 20.5493 23.0831 19.1554 23.1369 17.7157V17.7157Z" fill="#DDF6D1"/>
<path fill-rule="evenodd" clip-rule="evenodd" d="M23.0742 17.7939C22.7582 17.4556 22.5137 17.057 22.3555 16.622C22.3555 16.2782 22.2617 15.9501 22.1992 15.6064C22.1504 15.0068 21.9574 14.4278 21.6367 13.9189C20.7311 12.8397 20.0844 11.5677 19.7461 10.2001C19.4961 9.37198 19.3242 9.07511 18.5899 9.05948C18.4404 9.07308 18.2952 9.11644 18.1627 9.18702C18.0303 9.25759 17.9133 9.35396 17.8186 9.47044C17.724 9.58693 17.6536 9.72117 17.6116 9.86526C17.5697 10.0094 17.5569 10.1604 17.5742 10.3095C17.5852 10.6845 17.6164 11.0595 17.668 11.4345C17.9492 12.872 18.2461 14.0595 18.2774 14.1376L11.5742 9.12198C11.4582 9.00545 11.3185 8.91503 11.1647 8.85675C11.0109 8.79847 10.8464 8.77368 10.6823 8.78403C10.5181 8.79438 10.3581 8.83964 10.2128 8.91678C10.0675 8.99392 9.94038 9.10117 9.83986 9.23136C9.7617 9.36003 9.71016 9.50308 9.68829 9.65203C9.66643 9.80099 9.67468 9.95281 9.71256 10.0985C9.75045 10.2442 9.81719 10.3808 9.90884 10.5003C10.0005 10.6197 10.1152 10.7196 10.2461 10.7939L13.7617 13.4501L14.8242 14.3251L9.19924 10.0907C9.08422 9.97332 8.94549 9.88177 8.79229 9.8222C8.6391 9.76263 8.47497 9.73641 8.31084 9.74528C8.14672 9.75415 7.98637 9.79791 7.84049 9.87365C7.69461 9.94938 7.56655 10.0554 7.46486 10.1845C7.37338 10.3171 7.31103 10.4676 7.28193 10.6261C7.25282 10.7845 7.25762 10.9474 7.296 11.1039C7.33438 11.2603 7.40548 11.4069 7.50461 11.5339C7.60373 11.6609 7.72865 11.7655 7.87111 11.8407L11.3867 14.497L13.4961 16.0595L8.91799 12.6376C8.80103 12.5246 8.66155 12.4375 8.50865 12.3821C8.35575 12.3267 8.19288 12.3041 8.03067 12.3159C7.86846 12.3277 7.71057 12.3736 7.5673 12.4506C7.42403 12.5275 7.29861 12.6339 7.19924 12.7626C6.71486 13.3876 7.08986 14.0282 7.60549 14.4189L11.1211 17.0439L12.8711 18.372L9.29299 15.7157C9.0736 15.5251 8.78973 15.4255 8.49934 15.4371C8.20895 15.4487 7.93395 15.5707 7.73049 15.7782C7.63484 15.9063 7.56677 16.0528 7.53058 16.2084C7.49439 16.3641 7.49087 16.5256 7.52023 16.6827C7.5496 16.8398 7.61121 16.9891 7.70119 17.1212C7.79116 17.2533 7.90754 17.3653 8.04299 17.4501L14.293 22.1376C14.8149 22.5282 15.418 22.7954 16.0586 22.9189L16.9649 23.0595C17.4414 23.1298 17.9024 23.2829 18.3242 23.5126C18.6159 23.6551 18.9505 23.6829 19.2617 23.5907C20.3606 23.2032 21.322 22.5025 22.0274 21.5751C22.688 20.6619 23.0681 19.576 23.1211 18.4501C23.1608 18.2309 23.1447 18.0052 23.0742 17.7939Z" stroke="#165209" stroke-width="0.5" stroke-linecap="round" stroke-linejoin="round"/>
<path d="M11.7777 2.55156L10.7637 4.98906M13.7949 4.40312L12.6543 5.84062L13.7949 4.40312ZM8.58398 2.53906L8.68555 4.40312L8.58398 2.53906Z" stroke="#165209" stroke-linecap="round" stroke-linejoin="round"/>
</g>
</svg>
