<svg width="36" height="33" viewBox="0 0 36 33" fill="none" xmlns="http://www.w3.org/2000/svg">
<path d="M35.3111 12.7534C35.7486 13.2534 35.9986 13.8784 35.9986 14.5034C35.9986 15.1908 35.7486 15.7533 35.3111 16.2533L24.3116 27.7528C23.8116 28.2528 23.1866 28.5028 22.4991 28.5028C21.8116 28.5028 21.2492 28.3153 20.7492 27.8153C20.2492 27.3154 19.9992 26.7529 19.9992 26.0029V20.5031C16.3744 20.5656 13.812 20.7531 12.2495 21.1281C10.2496 21.6281 8.93715 22.5655 8.37467 23.878C7.7497 25.2529 7.87469 27.2529 8.68716 29.9403C8.81216 30.5652 8.74966 31.0652 8.43717 31.5652C8.12468 32.0652 7.6872 32.3152 7.12472 32.4402C6.56224 32.5652 6.06226 32.5027 5.56228 32.1277C4.06234 31.0652 2.87489 29.8153 1.99992 28.3153C0.624976 26.1904 0 23.8155 0 21.1906C0 17.8157 0.937463 15.1908 2.87489 13.1909C4.49982 11.5035 6.99973 10.2535 10.2496 9.50356C12.7495 8.87858 15.9994 8.56609 19.9992 8.50359V3.00381C19.9992 2.31634 20.2492 1.75386 20.7492 1.25388C21.2492 0.753896 21.8116 0.503906 22.4991 0.503906C23.1866 0.503906 23.8116 0.753896 24.3116 1.25388L35.3111 12.7534ZM33.8737 14.8783C33.9362 14.7534 33.9987 14.6284 33.9987 14.5034C33.9987 14.3784 33.9362 14.2534 33.8737 14.1284L22.8741 2.62882C22.6866 2.50383 22.4991 2.50383 22.3116 2.56633C22.0616 2.69132 21.9991 2.81632 21.9991 3.00381V10.5035C17.8743 10.5035 14.6869 10.691 12.437 11.066C9.18714 11.566 6.68724 12.5659 4.9998 14.0034C2.99988 15.6908 1.99992 18.0657 1.99992 21.1906C1.99992 23.3155 2.4999 25.2529 3.56236 26.9404C4.31233 28.3153 5.37479 29.5028 6.74974 30.5027C5.74978 26.8779 5.74978 24.1905 6.87473 22.3156C7.87469 20.6906 9.74962 19.6282 12.562 19.0657C14.5619 18.6907 17.6868 18.5032 21.9991 18.5032V26.0029C21.9991 26.2529 22.0616 26.3779 22.3116 26.4404C22.4991 26.5654 22.6866 26.5029 22.8741 26.3779L33.8737 14.8783Z" fill="#606770"/>
</svg>
