<svg width="24" height="24" viewBox="0 0 24 24" fill="none" xmlns="http://www.w3.org/2000/svg">
<g clip-path="url(#clip0_1402_64153)">
<path d="M22 14.9999H19V2.99989H22C22.2652 2.99989 22.5196 3.10525 22.7071 3.29278C22.8946 3.48032 23 3.73467 23 3.99989V13.9999C23 14.2651 22.8946 14.5195 22.7071 14.707C22.5196 14.8945 22.2652 14.9999 22 14.9999ZM16.707 16.2929L10.307 22.6929C10.2219 22.7782 10.1089 22.8299 9.98878 22.8386C9.86862 22.8472 9.74938 22.8122 9.653 22.7399L8.8 22.0999C8.5631 21.922 8.38416 21.678 8.28574 21.3986C8.18733 21.1192 8.17385 20.8169 8.247 20.5299L9.4 15.9999H3C2.46957 15.9999 1.96086 15.7892 1.58579 15.4141C1.21071 15.039 1 14.5303 1 13.9999V11.8959C0.999731 11.6345 1.05069 11.3756 1.15 11.1339L4.245 3.61889C4.3205 3.43567 4.44873 3.27902 4.61342 3.16881C4.77811 3.0586 4.97184 2.99981 5.17 2.99989H16C16.2652 2.99989 16.5196 3.10525 16.7071 3.29278C16.8946 3.48032 17 3.73467 17 3.99989V15.5859C16.9999 15.8511 16.8945 16.1054 16.707 16.2929Z" fill="#328090"/>
</g>
<defs>
<clipPath id="clip0_1402_64153">
<rect width="24" height="24" fill="white" transform="translate(24 24) rotate(-180)"/>
</clipPath>
</defs>
</svg>
