<svg width="24" height="25" viewBox="0 0 24 25" fill="none" xmlns="http://www.w3.org/2000/svg">
<path d="M20 17.0977H22V19.0977H2V17.0977H4V10.0977C4 7.97592 4.84285 5.94109 6.34315 4.4408C7.84344 2.94051 9.87827 2.09766 12 2.09766C14.1217 2.09766 16.1566 2.94051 17.6569 4.4408C19.1571 5.94109 20 7.97592 20 10.0977V17.0977ZM18 17.0977V10.0977C18 8.50636 17.3679 6.98023 16.2426 5.85502C15.1174 4.7298 13.5913 4.09766 12 4.09766C10.4087 4.09766 8.88258 4.7298 7.75736 5.85502C6.63214 6.98023 6 8.50636 6 10.0977V17.0977H18ZM9 21.0977H15V23.0977H9V21.0977Z" fill="black"/>
</svg>
