<svg width="40" height="40" viewBox="0 0 40 40" fill="none" xmlns="http://www.w3.org/2000/svg">
<circle opacity="0.1" cx="20" cy="20" r="20" fill="#EE628F"/>
<path fill-rule="evenodd" clip-rule="evenodd" d="M26.101 15.2701C26.3733 15.2701 26.6 15.4962 26.6 15.7839V16.0499C26.6 16.3306 26.3733 16.5637 26.101 16.5637H14.4997C14.2267 16.5637 14 16.3306 14 16.0499V15.7839C14 15.4962 14.2267 15.2701 14.4997 15.2701H16.5407C16.9553 15.2701 17.3161 14.9754 17.4094 14.5596L17.5163 14.0822C17.6824 13.4319 18.229 13 18.8547 13H21.7453C22.3641 13 22.9169 13.4319 23.0769 14.0479L23.1913 14.5589C23.2839 14.9754 23.6447 15.2701 24.06 15.2701H26.101ZM25.0657 24.9933C25.2788 23.0074 25.6518 18.2895 25.6518 18.2419C25.6655 18.0977 25.6185 17.9612 25.5252 17.8513C25.4251 17.7484 25.2985 17.6875 25.159 17.6875H15.4496C15.3093 17.6875 15.1759 17.7484 15.0833 17.8513C14.9894 17.9612 14.9431 18.0977 14.9499 18.2419C14.9511 18.2506 14.9645 18.4168 14.9869 18.6947C15.0863 19.9289 15.3632 23.3666 15.5422 24.9933C15.6688 26.1917 16.4551 26.9449 17.5941 26.9722C18.4729 26.9925 19.3784 26.9995 20.3043 26.9995C21.1763 26.9995 22.0621 26.9925 22.9682 26.9722C24.1466 26.9519 24.9323 26.212 25.0657 24.9933Z" fill="#EE628F"/>
</svg>
