<svg width="34" height="34" viewBox="0 0 34 34" fill="none" xmlns="http://www.w3.org/2000/svg">
<path d="M0 0H34V34H0V0Z" fill="white"/>
<path d="M15.0978 21.4876H12.763L14.2222 12.5196H16.5573L15.0978 21.4876ZM10.7987 12.5196L8.57281 18.6879L8.30941 17.3596L8.30965 17.3601L7.52401 13.3271C7.52401 13.3271 7.42901 12.5196 6.41644 12.5196H2.73654L2.69336 12.6715C2.69336 12.6715 3.81868 12.9056 5.13567 13.6965L7.16418 21.4879H9.59689L13.3116 12.5196H10.7987ZM29.1635 21.4876H31.3074L29.4381 12.5194H27.5612C26.6945 12.5194 26.4834 13.1877 26.4834 13.1877L23.0012 21.4876H25.4351L25.9218 20.1555H28.89L29.1635 21.4876ZM26.5942 18.3153L27.821 14.9593L28.5112 18.3153H26.5942ZM23.1837 14.6762L23.5169 12.7504C23.5169 12.7504 22.4888 12.3594 21.417 12.3594C20.2583 12.3594 17.5068 12.8658 17.5068 15.3282C17.5068 17.6451 20.7362 17.6739 20.7362 18.8908C20.7362 20.1078 17.8395 19.8897 16.8835 19.1223L16.5364 21.136C16.5364 21.136 17.579 21.6424 19.1718 21.6424C20.7652 21.6424 23.1689 20.8174 23.1689 18.572C23.1689 16.2403 19.9105 16.0232 19.9105 15.0094C19.9107 13.9954 22.1846 14.1257 23.1837 14.6762Z" fill="#2566AF"/>
<path d="M8.30769 17.36L7.52206 13.327C7.52206 13.327 7.42706 12.5195 6.41449 12.5195H2.73459L2.69141 12.6714C2.69141 12.6714 4.46011 13.0379 6.15661 14.4113C7.77874 15.724 8.30769 17.36 8.30769 17.36Z" fill="#E6A540"/>
</svg>
