<svg width="117" height="61" viewBox="0 0 117 61" fill="none" xmlns="http://www.w3.org/2000/svg">
<path fill-rule="evenodd" clip-rule="evenodd" d="M49.1253 13.1217L40.9131 9.34743C43.8707 10.1246 46.6006 11.4097 49.1253 13.1217ZM68.6685 16.2942C65.3703 15.2146 62.1406 14.0324 58.7629 13.3298C62.3652 13.3468 65.5641 14.7231 68.6685 16.2942ZM59.4139 25.9562C59.3161 27.2886 58.4716 27.0471 57.6934 26.8649C55.0615 26.2502 53.8699 24.077 52.7506 21.9882C51.9347 20.4659 51.2784 18.7807 51.4146 16.9593C51.4662 16.2649 51.6988 15.7295 52.5535 16.3028C54.8869 17.8686 56.9476 19.7041 58.3336 22.1892C58.9939 23.3731 59.4132 24.6451 59.4139 25.9562ZM58.6369 14.9069C60.8141 14.9877 62.8424 15.7658 64.8731 16.4737C73.6475 19.533 80.7905 24.9648 87.1115 31.6527C91.3338 36.1204 95.0885 40.9468 98.6804 45.9152C99.0085 46.3682 99.3221 46.8396 99.8542 47.0801C100.452 47.3499 100.892 47.3383 100.673 46.4913C100.62 46.2827 100.355 46.069 100.75 45.9846C102.11 45.6926 101.835 44.6963 101.676 43.798C101.378 42.1121 100.388 40.7176 99.562 39.2839C97.2479 35.2667 94.7795 31.3333 91.8164 27.7578C89.0654 24.4387 85.8644 21.5553 82.5845 18.7633C80.4966 16.986 78.3482 15.2071 75.7906 14.2638C74.0915 13.6372 72.7781 12.452 71.122 11.8208C67.9472 10.6111 64.7721 9.43984 61.3867 8.95547C58.6003 8.55707 55.9073 8.88219 53.3505 10.0636C52.5077 10.4534 51.75 10.4199 50.964 10.0134C48.8456 8.91862 46.6856 7.88856 44.5296 6.89583C41.022 5.27994 37.2743 4.22804 33.5104 3.32736C27.507 1.89081 21.4409 1.0753 15.2522 1.75293C11.6149 2.1512 8.05461 2.78024 5.13393 5.2575C4.36493 5.90967 3.77212 6.65167 3.71311 7.71503C3.68716 8.17327 3.80146 8.53165 4.23218 8.76181C4.74155 9.03324 4.82055 8.66236 5.09416 8.34077C6.97009 6.13453 9.66106 6.05798 12.2379 5.75668C19.3393 4.92607 26.2234 6.18733 33.0426 8.00007C38.2609 9.3874 43.2937 11.2705 48.1002 13.7404C48.482 13.9365 49.029 13.9702 48.6345 14.6888C47.2601 17.1925 47.2139 19.8707 47.9232 22.5427C49.0177 26.6671 51.0854 30.1134 55.2951 31.7271C57.5571 32.5944 59.1698 31.975 60.7025 30.1166C64.6081 25.383 63.1762 19.7958 59.5041 16.2065C59.1748 15.8854 58.846 15.5644 58.5177 15.244C58.5573 15.1313 58.5973 15.0191 58.6369 14.9069Z" fill="#31B997"/>
<path fill-rule="evenodd" clip-rule="evenodd" d="M100.289 53.538C102.93 54.6289 105.365 56.0509 107.498 57.9579C105.095 56.4848 102.692 55.0112 100.289 53.538ZM106.894 42.615C106.708 45.5035 107.017 48.3735 107.214 51.2481C107.243 51.6778 107.505 52.1662 106.94 52.4902C106.398 52.8013 106.035 52.4038 105.708 52.1457C103.927 50.7405 101.833 49.9366 99.8495 48.9059C98.5966 48.2543 97.4567 47.3607 96.149 46.7306C94.1354 45.761 92.192 44.6393 90.2479 43.5319C89.2626 42.9708 88.0573 42.8954 87.2428 41.9185C86.4436 40.9605 85.4712 41.1437 84.2657 42.5196C83.6501 43.2216 83.3378 44.2018 84.2125 44.9947C84.9319 45.6468 85.7142 46.2544 86.5456 46.7527C92.0486 50.0499 97.5781 53.3027 103.085 56.5935C104.321 57.3321 105.508 58.1548 106.709 58.9529C108.891 60.4043 109.889 60.1524 111.315 57.9399C112.422 56.2224 112.652 54.4524 112.18 52.4794C111.271 48.6815 110.47 44.8576 110.291 40.9387C110.256 40.1534 110.331 39.3638 110.326 38.576C110.321 37.6638 109.916 37.3959 109.093 37.8609C107.268 38.8905 107.088 39.2752 106.894 42.615Z" fill="#31B997"/>
</svg>
