<svg width="33" height="32" viewBox="0 0 33 32" fill="none" xmlns="http://www.w3.org/2000/svg">
<circle cx="16.5" cy="16" r="16" fill="white"/>
<path d="M14.998 21.0002C14.8664 21.0009 14.7359 20.9757 14.6141 20.9259C14.4922 20.8762 14.3814 20.8029 14.288 20.7102C14.1943 20.6172 14.1199 20.5066 14.0691 20.3848C14.0183 20.2629 13.9922 20.1322 13.9922 20.0002C13.9922 19.8682 14.0183 19.7375 14.0691 19.6156C14.1199 19.4937 14.1943 19.3831 14.288 19.2902L17.598 16.0002L14.418 12.6902C14.2317 12.5028 14.1272 12.2494 14.1272 11.9852C14.1272 11.721 14.2317 11.4675 14.418 11.2802C14.5109 11.1864 14.6215 11.1121 14.7434 11.0613C14.8653 11.0105 14.996 10.9844 15.128 10.9844C15.26 10.9844 15.3907 11.0105 15.5126 11.0613C15.6344 11.1121 15.745 11.1864 15.838 11.2802L19.698 15.2802C19.8812 15.4671 19.9838 15.7184 19.9838 15.9802C19.9838 16.2419 19.8812 16.4932 19.698 16.6802L15.698 20.6802C15.6082 20.7771 15.5002 20.8553 15.38 20.9102C15.2599 20.9651 15.13 20.9957 14.998 21.0002Z" fill="#EE628F"/>
</svg>
