<svg width="37" height="38" viewBox="0 0 37 38" fill="none" xmlns="http://www.w3.org/2000/svg">
<path d="M29.2904 9.375H7.70703C5.15272 9.375 3.08203 11.4457 3.08203 14V18.1947L13.623 21.7083H23.3744L33.9154 18.1947V14C33.9154 11.4457 31.8447 9.375 29.2904 9.375Z" fill="#C3E8F1"/>
<path d="M15.4154 9.375V7.83333H21.582V9.375H24.6654V7.83333C24.6634 6.13126 23.2841 4.75194 21.582 4.75H15.4154C13.7133 4.75194 12.334 6.13126 12.332 7.83333V9.375H15.4154ZM13.623 21.7083L3.08203 18.1946V27.875C3.08482 30.4282 5.15386 32.4972 7.70703 32.5H29.2904C31.8435 32.4972 33.9126 30.4282 33.9154 27.875V18.1946L23.3744 21.7083H13.623Z" fill="#027794"/>
</svg>
