<svg width="37" height="38" viewBox="0 0 37 38" fill="none" xmlns="http://www.w3.org/2000/svg">
<path d="M23.1227 3.20703C17.9162 3.20922 13.454 6.92957 12.5156 12.0508C16.9971 9.59843 22.6182 11.2434 25.0706 15.7249C26.5846 18.4916 26.5846 21.839 25.0706 24.6058C30.9309 23.5322 34.8114 17.9112 33.7378 12.0509C32.7991 6.92647 28.3324 3.20506 23.1227 3.20703Z" fill="#C3E8F1"/>
<path d="M10.7904 34.0417C15.0476 34.0417 18.4987 30.5905 18.4987 26.3333C18.4987 22.0761 15.0476 18.625 10.7904 18.625C6.53317 18.625 3.08203 22.0761 3.08203 26.3333C3.08203 30.5905 6.53317 34.0417 10.7904 34.0417Z" fill="#027794"/>
<path d="M16.9577 10.918C12.2041 10.9184 8.22472 14.5218 7.75391 19.2519C11.6633 17.5723 16.1941 19.3799 17.8737 23.2892C18.7079 25.2309 18.7079 27.43 17.8737 29.3717C22.957 28.8663 26.6681 24.3357 26.1627 19.2523C25.6923 14.5214 21.7119 10.9175 16.9577 10.918Z" fill="#52A0B4"/>
</svg>
