<svg width="46" height="46" viewBox="0 0 46 46" fill="none" xmlns="http://www.w3.org/2000/svg">
<g clip-path="url(#clip0_1_1291)">
<path d="M23.0002 3.83337C33.5859 3.83337 42.1668 12.4143 42.1668 23C42.1668 33.5858 33.5859 42.1667 23.0002 42.1667C12.4144 42.1667 3.8335 33.5858 3.8335 23C3.8335 12.4143 12.4144 3.83337 23.0002 3.83337ZM23.0002 7.66671C18.9335 7.66671 15.0334 9.28218 12.1579 12.1577C9.2823 15.0333 7.66683 18.9334 7.66683 23C7.66683 27.0667 9.2823 30.9668 12.1579 33.8423C15.0334 36.7179 18.9335 38.3334 23.0002 38.3334C27.0668 38.3334 30.9669 36.7179 33.8425 33.8423C36.718 30.9668 38.3335 27.0667 38.3335 23C38.3335 18.9334 36.718 15.0333 33.8425 12.1577C30.9669 9.28218 27.0668 7.66671 23.0002 7.66671ZM23.0002 13.4167C25.0176 13.4175 26.9834 14.0549 28.6174 15.2382C30.2514 16.4215 31.4703 18.0903 32.1004 20.0068C32.7305 21.9233 32.7398 23.9898 32.1268 25.9119C31.5138 27.834 30.3098 29.5136 28.6865 30.7114C27.0631 31.9092 25.1031 32.5642 23.0857 32.583C21.0684 32.6017 19.0965 31.9834 17.4511 30.816C15.8057 29.6486 14.5707 27.9917 13.9221 26.0814C13.2734 24.171 13.2442 22.1047 13.8385 20.1768C14.2868 21.1787 15.0657 21.9961 16.0447 22.4924C17.0237 22.9887 18.1434 23.1337 19.2166 22.9032C20.2897 22.6726 21.2511 22.0805 21.9398 21.2258C22.6286 20.3712 23.0029 19.306 23.0002 18.2084C23.0004 17.2854 22.7341 16.3821 22.2333 15.6068C21.7324 14.8316 21.0184 14.2175 20.1769 13.8384C21.0701 13.5643 22.0169 13.4167 23.0002 13.4167Z" fill="#ED5485"/>
</g>
<defs>
<clipPath id="clip0_1_1291">
<rect width="46" height="46" fill="white"/>
</clipPath>
</defs>
</svg>
