<svg width="46" height="44" viewBox="0 0 46 44" fill="none" xmlns="http://www.w3.org/2000/svg">
<path fill-rule="evenodd" clip-rule="evenodd" d="M22.9122 0C35.262 0 45.2735 9.68954 45.2735 21.6422C45.2735 33.5948 35.262 43.2843 22.9122 43.2843C10.5623 43.2843 0.550781 33.5948 0.550781 21.6422C0.550781 9.68954 10.5623 0 22.9122 0Z" fill="url(#paint0_linear_14610_63298)"/>
<path d="M27.7462 43.3205V25.6726H32.909L33.5934 19.4613H27.7462L27.7549 16.3523C27.7549 14.7323 27.9145 13.8646 30.3292 13.8646H33.5572V7.65234H28.3932C22.1902 7.65234 20.0073 10.6653 20.0073 15.7329V19.4618H16.1406V25.6736H20.0073V43.0703C21.5137 43.3595 23.071 43.5123 24.6656 43.5123C25.6957 43.5123 26.7247 43.4482 27.7462 43.3205Z" fill="white"/>
<defs>
<linearGradient id="paint0_linear_14610_63298" x1="22.9122" y1="-0.394342" x2="22.9122" y2="45.13" gradientUnits="userSpaceOnUse">
<stop stop-color="#00B2FF"/>
<stop offset="1" stop-color="#006AFF"/>
</linearGradient>
</defs>
</svg>
