<svg width="46" height="46" viewBox="0 0 46 46" fill="none" xmlns="http://www.w3.org/2000/svg">
<g clip-path="url(#clip0_1_1297)">
<path d="M24.9165 1.91663L24.9184 7.78546C28.296 8.21248 31.4356 9.75087 33.8427 12.1584C36.2499 14.5659 37.7878 17.7057 38.2143 21.0833H44.0832V24.9166L38.2143 24.9185C37.7874 28.2958 36.2493 31.4352 33.8422 33.8423C31.4351 36.2494 28.2957 37.7875 24.9184 38.2145L24.9165 44.0833H21.0832V38.2145C17.7055 37.7879 14.5657 36.25 12.1582 33.8428C9.75075 31.4357 8.21236 28.2961 7.78534 24.9185L1.9165 24.9166V21.0833H7.78534C8.21196 17.7054 9.75018 14.5654 12.1577 12.1578C14.5652 9.7503 17.7052 8.21208 21.0832 7.78546V1.91663H24.9165ZM22.9998 11.5C19.9498 11.5 17.0248 12.7116 14.8681 14.8682C12.7114 17.0249 11.4998 19.95 11.4998 23C11.4998 26.0499 12.7114 28.975 14.8681 31.1317C17.0248 33.2884 19.9498 34.5 22.9998 34.5C26.0498 34.5 28.9749 33.2884 31.1316 31.1317C33.2882 28.975 34.4998 26.0499 34.4998 23C34.4998 19.95 33.2882 17.0249 31.1316 14.8682C28.9749 12.7116 26.0498 11.5 22.9998 11.5ZM22.9998 19.1666C24.0165 19.1666 24.9915 19.5705 25.7104 20.2894C26.4293 21.0083 26.8332 21.9833 26.8332 23C26.8332 24.0166 26.4293 24.9916 25.7104 25.7105C24.9915 26.4294 24.0165 26.8333 22.9998 26.8333C21.9832 26.8333 21.0082 26.4294 20.2893 25.7105C19.5704 24.9916 19.1665 24.0166 19.1665 23C19.1665 21.9833 19.5704 21.0083 20.2893 20.2894C21.0082 19.5705 21.9832 19.1666 22.9998 19.1666Z" fill="#ED5485"/>
</g>
<defs>
<clipPath id="clip0_1_1297">
<rect width="46" height="46" fill="white"/>
</clipPath>
</defs>
</svg>
