<svg width="43" height="38" viewBox="0 0 43 38" fill="none" xmlns="http://www.w3.org/2000/svg">
<rect x="37.6289" y="7.64844" width="5.01694" height="18.1864" fill="white"/>
<rect y="5.76953" width="38.8813" height="31.3559" fill="#C3E8F1"/>
<path d="M40.9056 0.125C41.3713 0.125 41.818 0.308531 42.1473 0.635218C42.4766 0.961905 42.6616 1.40499 42.6616 1.86699V29.7389C42.6616 30.2009 42.4766 30.644 42.1473 30.9707C41.818 31.2973 41.3713 31.4809 40.9056 31.4809H9.2989C8.8332 31.4809 8.38657 31.2973 8.05727 30.9707C7.72797 30.644 7.54297 30.2009 7.54297 29.7389V1.86699C7.54297 1.40499 7.72797 0.961905 8.05727 0.635218C8.38657 0.308531 8.8332 0.125 9.2989 0.125H40.9056ZM20.5351 8.83497H17.0232L11.4043 22.7709H15.1865L15.8889 21.0289H21.6659L22.3683 22.7709H26.1523L20.5351 8.83497ZM37.3938 8.83497H33.8819V12.319H32.126C30.7548 12.3176 29.4371 12.8468 28.4529 13.794C27.4687 14.7412 26.8956 16.0318 26.8554 17.3916C26.8151 18.7513 27.3109 20.073 28.2374 21.0759C29.1639 22.0788 30.448 22.6837 31.8169 22.7622L32.126 22.7709H37.3938V8.83497ZM33.8819 15.8029V19.2869H32.126L31.9205 19.2747C31.4938 19.2244 31.1004 19.0205 30.815 18.7017C30.5296 18.3829 30.372 17.9713 30.372 17.5449C30.372 17.1186 30.5296 16.707 30.815 16.3882C31.1004 16.0694 31.4938 15.8655 31.9205 15.8151L32.126 15.8029H33.8819ZM18.7792 13.8606L20.2629 17.5449H17.2919L18.7792 13.8606Z" fill="#328090"/>
</svg>
