<svg width="39" height="38" viewBox="0 0 39 38" fill="none" xmlns="http://www.w3.org/2000/svg">
<g clip-path="url(#clip0_14610_63294)">
<path d="M9.88938 37.8656C7.57004 37.7628 6.3101 37.3867 5.47208 37.0683C4.36167 36.647 3.57001 36.1456 2.73662 35.3347C1.90323 34.5238 1.38743 33.7524 0.957411 32.6705C0.630547 31.854 0.244569 30.6263 0.139091 28.3665C0.0231819 25.9236 0 25.1907 0 19.0017C0 12.8127 0.0255 12.0809 0.137932 9.63581C0.24341 7.37593 0.631706 6.15056 0.956252 5.33177C1.38859 4.24983 1.90439 3.47847 2.73546 2.66532C3.56769 1.85443 4.35935 1.35073 5.47092 0.931732C6.30894 0.613249 7.56888 0.237168 9.88822 0.134395C12.3965 0.0225875 13.1499 0 19.4994 0C25.8513 0 26.6023 0.0248462 29.1118 0.134395C31.4311 0.237168 32.6887 0.615508 33.5291 0.931732C34.6395 1.35073 35.4312 1.85443 36.2645 2.66532C37.0979 3.47621 37.6114 4.2487 38.0438 5.33064C38.3706 6.14718 38.7566 7.3748 38.8621 9.63468C38.9768 12.0798 39 12.8116 39 19.0006C39 25.1873 38.9768 25.9214 38.8621 28.3665C38.7566 30.6263 38.3683 31.854 38.0438 32.6705C37.6114 33.7524 37.0968 34.5238 36.2645 35.3347C35.4323 36.1456 34.6395 36.647 33.5291 37.0683C32.6911 37.3867 31.4311 37.7628 29.1118 37.8656C26.6047 37.9774 25.8513 38 19.4994 38C13.1499 38 12.3965 37.9785 9.88938 37.8656Z" fill="url(#paint0_radial_14610_63294)"/>
<path d="M9.88938 37.8656C7.57004 37.7628 6.3101 37.3867 5.47208 37.0683C4.36167 36.647 3.57001 36.1456 2.73662 35.3347C1.90323 34.5238 1.38743 33.7524 0.957411 32.6705C0.630547 31.854 0.244569 30.6263 0.139091 28.3665C0.0231819 25.9236 0 25.1907 0 19.0017C0 12.8127 0.0255 12.0809 0.137932 9.63581C0.24341 7.37593 0.631706 6.15056 0.956252 5.33177C1.38859 4.24983 1.90439 3.47847 2.73546 2.66532C3.56769 1.85443 4.35935 1.35073 5.47092 0.931732C6.30894 0.613249 7.56888 0.237168 9.88822 0.134395C12.3965 0.0225875 13.1499 0 19.4994 0C25.8513 0 26.6023 0.0248462 29.1118 0.134395C31.4311 0.237168 32.6887 0.615508 33.5291 0.931732C34.6395 1.35073 35.4312 1.85443 36.2645 2.66532C37.0979 3.47621 37.6114 4.2487 38.0438 5.33064C38.3706 6.14718 38.7566 7.3748 38.8621 9.63468C38.9768 12.0798 39 12.8116 39 19.0006C39 25.1873 38.9768 25.9214 38.8621 28.3665C38.7566 30.6263 38.3683 31.854 38.0438 32.6705C37.6114 33.7524 37.0968 34.5238 36.2645 35.3347C35.4323 36.1456 34.6395 36.647 33.5291 37.0683C32.6911 37.3867 31.4311 37.7628 29.1118 37.8656C26.6047 37.9774 25.8513 38 19.4994 38C13.1499 38 12.3965 37.9785 9.88938 37.8656Z" fill="url(#paint1_radial_14610_63294)"/>
<path d="M14.7107 19.0781C14.7107 16.4793 16.8723 14.372 19.5394 14.372C22.2066 14.372 24.3694 16.4793 24.3694 19.0781C24.3694 21.6769 22.2066 23.7842 19.5394 23.7842C16.8723 23.7842 14.7107 21.6769 14.7107 19.0781ZM12.0997 19.0781C12.0997 23.0817 15.4305 26.3271 19.5394 26.3271C23.6484 26.3271 26.9792 23.0817 26.9792 19.0781C26.9792 15.0745 23.6484 11.8291 19.5394 11.8291C15.4305 11.8291 12.0998 15.0742 12.0998 19.0781H12.0997ZM25.5352 11.5417C25.5351 11.8767 25.6369 12.2043 25.8278 12.483C26.0188 12.7616 26.2902 12.9789 26.6079 13.1072C26.9255 13.2355 27.2751 13.2692 27.6124 13.204C27.9496 13.1388 28.2595 12.9775 28.5028 12.7407C28.746 12.5039 28.9117 12.2021 28.9789 11.8735C29.0462 11.5449 29.0119 11.2043 28.8804 10.8947C28.7489 10.5851 28.5262 10.3204 28.2404 10.1342C27.9545 9.94792 27.6184 9.84843 27.2745 9.8483H27.2738C26.8129 9.84851 26.3709 10.027 26.0449 10.3445C25.7189 10.662 25.5356 11.0926 25.5352 11.5417ZM13.686 30.5692C12.2734 30.5066 11.5057 30.2773 10.9954 30.0836C10.319 29.827 9.83633 29.5214 9.32888 29.0276C8.82143 28.5339 8.50731 28.0641 8.24513 27.405C8.04623 26.908 7.81093 26.1597 7.74672 24.7833C7.67648 23.2953 7.66245 22.8483 7.66245 19.0783C7.66245 15.3084 7.67763 14.8626 7.74672 13.3733C7.81105 11.9969 8.04808 11.2501 8.24513 10.7517C8.50847 10.0926 8.82212 9.62231 9.32888 9.12787C9.83563 8.63343 10.3178 8.32737 10.9954 8.07191C11.5054 7.87811 12.2734 7.64884 13.686 7.58628C15.2132 7.51784 15.672 7.50417 19.5394 7.50417C23.4069 7.50417 23.8661 7.51874 25.3946 7.5865C26.8072 7.64918 27.5737 7.88014 28.0852 8.07213C28.7617 8.3276 29.2443 8.63434 29.7517 9.1281C30.2592 9.62186 30.5722 10.0928 30.8355 10.7519C31.0344 11.2488 31.2697 11.9972 31.3339 13.3735C31.4042 14.8628 31.4182 15.3086 31.4182 19.0785C31.4182 22.8485 31.4042 23.2943 31.3339 24.7836C31.2696 26.1599 31.0331 26.908 30.8355 27.4052C30.5722 28.0643 30.2585 28.5346 29.7517 29.0279C29.245 29.5212 28.7617 29.8272 28.0852 30.0838C27.5752 30.2776 26.8072 30.5069 25.3946 30.5695C23.8674 30.6379 23.4086 30.6516 19.5394 30.6516C15.6703 30.6516 15.2128 30.6379 13.686 30.5695V30.5692ZM13.5661 5.04643C12.0237 5.11487 10.9697 5.35317 10.0493 5.70214C9.0966 6.06253 8.28906 6.54601 7.48267 7.33047C6.67629 8.11494 6.18136 8.90188 5.81149 9.83124C5.45333 10.7286 5.20877 11.755 5.13852 13.2579C5.06712 14.7631 5.05078 15.2443 5.05078 19.0781C5.05078 22.9119 5.06712 23.3931 5.13852 24.8983C5.20877 26.4013 5.45333 27.4275 5.81149 28.3249C6.18136 29.2532 6.67641 30.0416 7.48267 30.8257C8.28894 31.6098 9.09544 32.0926 10.0493 32.454C10.9714 32.803 12.0237 33.0413 13.5661 33.1098C15.1117 33.1782 15.6048 33.1953 19.5394 33.1953C23.4741 33.1953 23.968 33.1793 25.5128 33.1098C27.0554 33.0413 28.1086 32.803 29.0296 32.454C29.9823 32.0926 30.7898 31.6102 31.5962 30.8257C32.4026 30.0413 32.8965 29.2532 33.2674 28.3249C33.6256 27.4275 33.8713 26.4012 33.9404 24.8983C34.0106 23.392 34.027 22.9119 34.027 19.0781C34.027 15.2443 34.0106 14.7631 33.9404 13.2579C33.8701 11.7549 33.6256 10.7281 33.2674 9.83124C32.8965 8.90301 32.4013 8.11618 31.5962 7.33047C30.7911 6.54477 29.9823 6.06253 29.0308 5.70214C28.1086 5.35317 27.0552 5.11374 25.514 5.04643C23.9689 4.97765 23.4753 4.96094 19.5412 4.96094C15.6071 4.96094 15.1123 4.97686 13.5666 5.04643" fill="white"/>
</g>
<defs>
<radialGradient id="paint0_radial_14610_63294" cx="0" cy="0" r="1" gradientUnits="userSpaceOnUse" gradientTransform="translate(2.52404 37.1675) scale(49.5155 48.2459)">
<stop offset="0.09" stop-color="#FA8F21"/>
<stop offset="0.78" stop-color="#D82D7E"/>
</radialGradient>
<radialGradient id="paint1_radial_14610_63294" cx="0" cy="0" r="1" gradientUnits="userSpaceOnUse" gradientTransform="translate(27.0139 35.9474) scale(43.5741 42.4568)">
<stop offset="0.64" stop-color="#8C3AAA" stop-opacity="0"/>
<stop offset="1" stop-color="#8C3AAA"/>
</radialGradient>
<clipPath id="clip0_14610_63294">
<rect width="39" height="38" fill="white"/>
</clipPath>
</defs>
</svg>
