<svg width="42" height="38" viewBox="0 0 42 38" fill="none" xmlns="http://www.w3.org/2000/svg">
<path d="M0.914062 2.71385C0.914062 1.21589 2.24527 0 3.88626 0H38.1577C39.7993 0 41.1299 1.21589 41.1299 2.71385V35.1722C41.1299 36.6706 39.7993 37.8856 38.1577 37.8856H3.88626C2.24543 37.8856 0.914062 36.6707 0.914062 35.1726V2.71341V2.71385Z" fill="#006699"/>
<path d="M13.1344 31.7041V14.6478H7.11643V31.7041H13.135H13.1344ZM10.1267 12.3195C12.2248 12.3195 13.531 11.0098 13.531 9.37301C13.4917 7.69894 12.2248 6.42578 10.1666 6.42578C8.10691 6.42578 6.76172 7.69894 6.76172 9.37287C6.76172 11.0096 8.06748 12.3194 10.0872 12.3194H10.1262L10.1267 12.3195ZM16.4654 31.7041H22.4828V22.1801C22.4828 21.671 22.5221 21.1606 22.681 20.797C23.1159 19.7781 24.106 18.7234 25.7689 18.7234C27.9459 18.7234 28.8173 20.2873 28.8173 22.5804V31.7041H34.8345V21.9245C34.8345 16.6858 31.8661 14.248 27.9069 14.248C24.6609 14.248 23.2353 15.9571 22.4432 17.1212H22.4833V14.6484H16.4657C16.5442 16.2485 16.4652 31.7047 16.4652 31.7047L16.4654 31.7041Z" fill="white"/>
</svg>
