<svg width="46" height="46" viewBox="0 0 46 46" fill="none" xmlns="http://www.w3.org/2000/svg">
<g clip-path="url(#clip0_1_1294)">
<path d="M23 1.91663L38.7492 5.41646C39.6252 5.61196 40.25 6.38821 40.25 7.28713V26.4289C40.25 30.2737 38.3276 33.8655 35.1287 35.9969L23 44.0833L10.8713 35.9969C7.6705 33.8636 5.75 30.2737 5.75 26.4308V7.28713C5.75 6.38821 6.37483 5.61196 7.25075 5.41646L23 1.91663ZM23 5.84388L9.58333 8.82429V26.4289C9.58333 28.9915 10.8637 31.3854 12.9969 32.8075L23 39.4775L33.0031 32.8075C35.1363 31.3854 36.4167 28.9934 36.4167 26.4308V8.82429L23 5.84579V5.84388ZM31.533 15.7588L34.2451 18.469L22.0474 30.6666L13.915 22.5342L16.6252 19.824L22.0455 25.2444L31.533 15.7569V15.7588Z" fill="#ED5485"/>
</g>
<defs>
<clipPath id="clip0_1_1294">
<rect width="46" height="46" fill="white"/>
</clipPath>
</defs>
</svg>
