<svg width="40" height="38" viewBox="0 0 40 38" fill="none" xmlns="http://www.w3.org/2000/svg">
<g clip-path="url(#clip0_14610_63301)">
<path d="M35.2381 0H4.7619C2.13619 0 0 2.02938 0 4.52381V33.4762C0 35.9706 2.13619 38 4.7619 38H35.2381C37.8638 38 40 35.9706 40 33.4762V4.52381C40 2.02938 37.8638 0 35.2381 0ZM31.4343 16.5779C31.2158 16.5981 30.9966 16.6087 30.7771 16.6096C29.5923 16.6098 28.426 16.3296 27.3837 15.7945C26.3413 15.2593 25.4557 14.486 24.8066 13.5443V23.9825C24.8066 25.5084 24.3304 27 23.438 28.2687C22.5457 29.5374 21.2774 30.5262 19.7934 31.1101C18.3095 31.6941 16.6767 31.8468 15.1014 31.5492C13.5261 31.2515 12.0791 30.5167 10.9433 29.4378C9.80759 28.3588 9.03414 26.9842 8.7208 25.4876C8.40745 23.9911 8.56827 22.4399 9.18292 21.0301C9.79758 19.6204 10.8385 18.4155 12.1739 17.5678C13.5094 16.7201 15.0795 16.2676 16.6857 16.2676C16.8552 16.2676 17.0209 16.2821 17.1876 16.292V20.0938C17.0209 20.0748 16.8571 20.0459 16.6857 20.0459C15.5864 20.0459 14.5322 20.4607 13.7549 21.1992C12.9776 21.9376 12.5409 22.9391 12.5409 23.9834C12.5409 25.0277 12.9776 26.0292 13.7549 26.7677C14.5322 27.5061 15.5864 27.9209 16.6857 27.9209C18.9752 27.9209 20.9971 26.2073 20.9971 24.0323L21.0371 6.30438H24.8657C25.0406 7.88471 25.7947 9.35635 26.9961 10.462C28.1976 11.5676 29.7698 12.2368 31.4381 12.3527V16.5779" fill="black"/>
</g>
<defs>
<clipPath id="clip0_14610_63301">
<rect width="40" height="38" fill="white"/>
</clipPath>
</defs>
</svg>
