<svg width="46" height="46" viewBox="0 0 46 46" fill="none" xmlns="http://www.w3.org/2000/svg">
<g clip-path="url(#clip0_1_1300)">
<path d="M10.2158 6.26945C11.4943 5.81326 12.8811 5.75565 14.193 6.10425C15.5049 6.45284 16.6802 7.19124 17.5636 8.22188C18.447 9.25253 18.997 10.5269 19.1408 11.8767C19.2847 13.2265 19.0157 14.5882 18.3693 15.7819L38.8949 36.3094L36.1847 39.0195L15.6572 18.492C14.4633 19.1359 13.1023 19.4028 11.7536 19.2577C10.4049 19.1127 9.13184 18.5624 8.10213 17.6794C7.07241 16.7964 6.33439 15.6221 5.98533 14.3114C5.63626 13.0006 5.69253 11.6148 6.14672 10.3366L10.4343 14.6242C10.6995 14.8988 11.0168 15.1178 11.3675 15.2685C11.7183 15.4192 12.0955 15.4985 12.4773 15.5018C12.859 15.5051 13.2376 15.4324 13.5909 15.2878C13.9442 15.1433 14.2652 14.9298 14.5352 14.6598C14.8051 14.3899 15.0186 14.0689 15.1632 13.7156C15.3077 13.3622 15.3805 12.9837 15.3771 12.6019C15.3738 12.2202 15.2945 11.8429 15.1438 11.4922C14.9932 11.1414 14.7741 10.8242 14.4996 10.559L10.2139 6.26754L10.2158 6.26945ZM30.0859 9.88045L36.1847 6.49179L38.8949 9.20195L35.5062 15.3008L32.1176 15.9793L28.0542 20.0445L25.3421 17.3344L29.4074 13.2691L30.0859 9.88045ZM17.2097 25.4668L19.9199 28.177L9.7558 38.341C9.41023 38.6876 8.94517 38.8888 8.45598 38.9035C7.96679 38.9181 7.49052 38.7451 7.12483 38.4198C6.75913 38.0946 6.53171 37.6417 6.48919 37.1542C6.44667 36.6666 6.59227 36.1813 6.89614 35.7976L7.04564 35.6309L17.2097 25.4668Z" fill="#ED5485"/>
</g>
<defs>
<clipPath id="clip0_1_1300">
<rect width="46" height="46" fill="white"/>
</clipPath>
</defs>
</svg>
