<svg width="57" height="50" viewBox="0 0 57 50" fill="none" xmlns="http://www.w3.org/2000/svg">
<path d="M28.4019 1.64062C22.243 1.64063 16.3363 3.95848 11.9813 8.08428C7.62631 12.2101 5.17969 17.8059 5.17969 23.6406C5.17969 29.4754 7.62631 35.0712 11.9813 39.197C16.3363 43.3228 22.243 45.6406 28.4019 45.6406C34.5608 45.6406 40.4675 43.3228 44.8225 39.197C49.1775 35.0712 51.6241 29.4754 51.6241 23.6406C51.6241 17.8059 49.1775 12.2101 44.8225 8.08428C40.4675 3.95848 34.5608 1.64063 28.4019 1.64062Z" fill="#03A9F4"/>
<path d="M43.1797 16.4705C42.1323 16.9125 40.8059 17.3273 39.6172 17.4652C40.8261 16.7825 42.7439 15.3605 43.1797 14.0742C42.0504 14.7061 40.0079 15.3809 38.6755 15.625C37.6115 14.5512 36.0939 14.0742 34.4124 14.0742C31.1824 14.0742 28.9297 16.6796 28.9297 19.7258V21.9865C24.1797 21.9865 19.5484 18.5424 16.6664 15.2045C16.1593 16.0195 15.8743 16.9735 15.8743 17.9817C15.8743 20.0378 17.8586 22.1244 19.4297 23.1168C18.4714 23.0885 16.6569 22.3922 15.8672 21.9865C15.8672 22.0045 15.8672 22.0271 15.8672 22.0509C15.8672 24.7263 17.8396 26.5428 20.5127 27.0492C20.0246 27.1769 19.4297 27.6381 17.1402 27.6381C17.8836 29.8252 21.6206 30.9815 24.1797 31.029C22.1776 32.5063 18.6079 33.2896 15.8672 33.2896C15.3934 33.2896 15.1369 33.3145 14.6797 33.2636C17.2661 34.8235 20.8784 35.5503 24.1797 35.5503C34.9349 35.5503 40.8047 27.7307 40.8047 20.4379C40.8047 20.1983 40.7964 19.3958 40.7833 19.1607C41.9328 18.3898 42.3983 17.5827 43.1797 16.4705Z" fill="white"/>
</svg>
