<svg width="37" height="38" viewBox="0 0 37 38" fill="none" xmlns="http://www.w3.org/2000/svg">
<path d="M9.2513 25.5612C8.18411 25.5612 7.14088 25.2447 6.25354 24.6518C5.3662 24.0589 4.6746 23.2162 4.2662 22.2303C3.85781 21.2443 3.75095 20.1594 3.95915 19.1127C4.16735 18.066 4.68125 17.1046 5.43587 16.3499C6.1905 15.5953 7.15194 15.0814 8.19863 14.8732C9.24532 14.665 10.3302 14.7719 11.3162 15.1803C12.3022 15.5887 13.1449 16.2803 13.7378 17.1676C14.3307 18.0549 14.6471 19.0982 14.6471 20.1654C14.6454 21.5959 14.0764 22.9673 13.0648 23.9789C12.0533 24.9904 10.6818 25.5595 9.2513 25.5612Z" fill="#0388A9"/>
<path d="M13.3217 23.6677C12.8222 24.2608 12.199 24.7376 11.4959 25.0646C10.7928 25.3917 10.0267 25.5612 9.2513 25.5612C8.47585 25.5612 7.70977 25.3917 7.00668 25.0646C6.30358 24.7376 5.68045 24.2608 5.1809 23.6677C4.07089 24.3559 3.15443 25.3155 2.51795 26.4559C1.88147 27.5964 1.54593 28.8802 1.54297 30.1862C1.54297 30.5951 1.70539 30.9872 1.99451 31.2763C2.28363 31.5654 2.67576 31.7279 3.08464 31.7279H15.418C15.8268 31.7279 16.219 31.5654 16.5081 31.2763C16.7972 30.9872 16.9596 30.5951 16.9596 30.1862C16.9567 28.8802 16.6211 27.5964 15.9847 26.4559C15.3482 25.3155 14.4317 24.3559 13.3217 23.6677ZM27.7513 25.5612C26.6841 25.5612 25.6409 25.2447 24.7535 24.6518C23.8662 24.0589 23.1746 23.2162 22.7662 22.2303C22.3578 21.2443 22.2509 20.1594 22.4591 19.1127C22.6673 18.066 23.1813 17.1046 23.9359 16.3499C24.6905 15.5953 25.6519 15.0814 26.6986 14.8732C27.7453 14.665 28.8302 14.7719 29.8162 15.1803C30.8022 15.5887 31.6449 16.2803 32.2378 17.1676C32.8307 18.0549 33.1471 19.0982 33.1471 20.1654C33.1454 21.5959 32.5764 22.9673 31.5648 23.9789C30.5533 24.9904 29.1818 25.5595 27.7513 25.5612Z" fill="#C3E8F1"/>
<path d="M31.8217 23.668C31.3222 24.2611 30.699 24.7378 29.9959 25.0649C29.2928 25.392 28.5267 25.5614 27.7513 25.5614C26.9759 25.5614 26.2098 25.392 25.5067 25.0649C24.8036 24.7378 24.1805 24.2611 23.6809 23.668C22.5709 24.3562 21.6544 25.3157 21.0179 26.4562C20.3815 27.5966 20.0459 28.8804 20.043 30.1865C20.043 30.5953 20.2054 30.9875 20.4945 31.2766C20.7836 31.5657 21.1758 31.7281 21.5846 31.7281H33.918C34.3268 31.7281 34.719 31.5657 35.0081 31.2766C35.2972 30.9875 35.4596 30.5953 35.4596 30.1865C35.4567 28.8804 35.1211 27.5966 34.4847 26.4562C33.8482 25.3157 32.9317 24.3562 31.8217 23.668Z" fill="#027794"/>
<path d="M26.5261 9.05536L23.4428 5.97202C23.1528 5.68726 22.7621 5.52853 22.3557 5.53037C21.9493 5.53221 21.5601 5.69447 21.2727 5.98185C20.9853 6.26923 20.8231 6.65846 20.8212 7.06487C20.8194 7.47128 20.9781 7.86197 21.2629 8.15194L21.7146 8.60365H15.2828L15.7345 8.15194C16.0206 7.86223 16.1805 7.47111 16.1792 7.06396C16.1779 6.65681 16.0156 6.26671 15.7277 5.97881C15.4398 5.69092 15.0496 5.52862 14.6425 5.52735C14.2353 5.52608 13.8442 5.68594 13.5545 5.97202L10.4712 9.05536C10.328 9.19847 10.2144 9.3684 10.1369 9.55542C10.0594 9.74245 10.0195 9.94291 10.0195 10.1454C10.0195 10.3478 10.0594 10.5483 10.1369 10.7353C10.2144 10.9223 10.328 11.0923 10.4712 11.2354L13.5545 14.3187C13.8442 14.6048 14.2354 14.7646 14.6425 14.7633C15.0497 14.762 15.4398 14.5997 15.7277 14.3118C16.0156 14.0239 16.1778 13.6338 16.1791 13.2267C16.1804 12.8195 16.0205 12.4284 15.7344 12.1387L15.2827 11.687H21.7144L21.2627 12.1387C20.9736 12.4278 20.8112 12.8199 20.8112 13.2287C20.8112 13.6375 20.9737 14.0296 21.2628 14.3187C21.5519 14.6078 21.944 14.7702 22.3528 14.7701C22.7616 14.7701 23.1537 14.6077 23.4428 14.3186L26.5261 11.2353C26.6693 11.0922 26.7829 10.9222 26.8604 10.7352C26.9379 10.5482 26.9777 10.3478 26.9777 10.1453C26.9777 9.94288 26.9379 9.74242 26.8604 9.55541C26.7829 9.36839 26.6693 9.19847 26.5261 9.05536Z" fill="#027794"/>
</svg>
