<svg width="432" height="333" viewBox="0 0 432 333" fill="none" xmlns="http://www.w3.org/2000/svg">
<g clip-path="url(#clip0_1047_58259)">
<path fill-rule="evenodd" clip-rule="evenodd" d="M210.693 410.918C168.239 375.87 135.897 325.615 140.079 270.705C143.994 219.3 189.794 186.557 230.219 154.552C270.517 122.648 312.802 85.8315 363.567 93.7669C417.667 102.224 460.46 144.275 483.182 194.095C505.379 242.762 500.965 297.853 478.876 346.59C455.964 397.141 418.454 443.024 364.492 455.968C309.826 469.08 254.032 446.696 210.693 410.918Z" fill="#32567D"/>
<path fill-rule="evenodd" clip-rule="evenodd" d="M230.292 390.559C209.288 339.671 204.356 280.113 233.852 233.609C261.466 190.073 317.28 182.694 368.003 173.441C418.567 164.216 473.194 151.589 514.275 182.45C558.055 215.339 576.067 272.568 572.712 327.221C569.434 380.611 539.649 427.166 497.248 459.805C453.267 493.66 398.596 516.533 344.88 502.6C290.465 488.485 251.734 442.507 230.292 390.559Z" fill="#31B997"/>
<path fill-rule="evenodd" clip-rule="evenodd" d="M194.521 400.657C188.472 345.939 200.271 287.353 241.519 250.867C280.134 216.71 335.803 225.119 387.101 230.312C438.238 235.49 494.223 238.527 525.12 279.58C558.047 323.332 559.461 383.311 541.063 434.885C523.09 485.265 481.55 521.719 431.754 541.302C380.103 561.615 321.229 568.409 273.494 540.109C225.138 511.44 200.696 456.516 194.521 400.657Z" fill="#EE628F"/>
</g>
<defs>
<clipPath id="clip0_1047_58259">
<rect x="56.4609" width="438.648" height="337.77" rx="8" transform="rotate(9.62253 56.4609 0)" fill="white"/>
</clipPath>
</defs>
</svg>
