<svg width="158" height="160" viewBox="0 0 158 160" fill="none" xmlns="http://www.w3.org/2000/svg">
<g clip-path="url(#clip0_32_50)">
<path d="M10.3516 70.5662C13.6439 52.111 23.3367 35.4071 37.7259 23.3911C52.1151 11.3751 70.2797 4.81622 89.0262 4.86749L88.9147 45.6395C79.7589 45.6144 70.8873 48.8178 63.8596 54.6864C56.8319 60.555 52.098 68.7132 50.49 77.7267L10.3516 70.5662Z" fill="#F3F3F4"/>
<g filter="url(#filter0_d_32_50)">
<circle cx="88.8969" cy="82.1743" r="47.9165" fill="white"/>
</g>
<mask id="path-3-inside-1_32_50" fill="white">
<path d="M122.203 29.1699C123.995 27.0792 127.156 26.8251 129.121 28.7536C138.784 38.2378 145.676 50.2247 148.994 63.4183C152.718 78.2275 151.755 93.8273 146.238 108.066C140.722 122.305 130.923 134.481 118.193 142.916C105.464 151.351 90.431 155.628 75.168 155.157C59.905 154.687 45.1639 149.493 32.9779 140.291C20.7918 131.088 11.7612 118.332 7.13149 103.78C2.5018 89.2289 2.50116 73.5994 7.12965 59.0476C11.2532 46.0833 18.8699 34.5434 29.0992 25.672C31.1792 23.8681 34.3182 24.3163 35.9776 26.5134L52.202 47.9951C53.8614 50.1921 53.3966 53.2968 51.4432 55.237C47.2449 59.4068 44.0931 64.5442 42.2849 70.2293C39.9706 77.5053 39.9709 85.32 42.2858 92.5958C44.6006 99.8715 49.1159 106.25 55.209 110.851C61.302 115.452 68.6725 118.049 76.304 118.284C83.9355 118.519 91.452 116.381 97.8167 112.164C104.181 107.946 109.081 101.858 111.839 94.7387C114.597 87.6192 115.079 79.8193 113.217 72.4147C111.762 66.629 108.933 61.3074 104.999 56.887C103.169 54.8302 102.896 51.7028 104.687 49.6121L122.203 29.1699Z"/>
</mask>
<path d="M122.203 29.1699C123.995 27.0792 127.156 26.8251 129.121 28.7536C138.784 38.2378 145.676 50.2247 148.994 63.4183C152.718 78.2275 151.755 93.8273 146.238 108.066C140.722 122.305 130.923 134.481 118.193 142.916C105.464 151.351 90.431 155.628 75.168 155.157C59.905 154.687 45.1639 149.493 32.9779 140.291C20.7918 131.088 11.7612 118.332 7.13149 103.78C2.5018 89.2289 2.50116 73.5994 7.12965 59.0476C11.2532 46.0833 18.8699 34.5434 29.0992 25.672C31.1792 23.8681 34.3182 24.3163 35.9776 26.5134L52.202 47.9951C53.8614 50.1921 53.3966 53.2968 51.4432 55.237C47.2449 59.4068 44.0931 64.5442 42.2849 70.2293C39.9706 77.5053 39.9709 85.32 42.2858 92.5958C44.6006 99.8715 49.1159 106.25 55.209 110.851C61.302 115.452 68.6725 118.049 76.304 118.284C83.9355 118.519 91.452 116.381 97.8167 112.164C104.181 107.946 109.081 101.858 111.839 94.7387C114.597 87.6192 115.079 79.8193 113.217 72.4147C111.762 66.629 108.933 61.3074 104.999 56.887C103.169 54.8302 102.896 51.7028 104.687 49.6121L122.203 29.1699Z" fill="#FDA92A" stroke="white" stroke-width="3.98819" mask="url(#path-3-inside-1_32_50)"/>
<path d="M67.2626 7.78607C66.993 5.04604 68.9964 2.58848 71.7484 2.50441C83.4281 2.14761 95.0513 4.56999 105.65 9.6027C116.248 14.6354 125.471 22.1121 132.576 31.389C134.25 33.5748 133.612 36.6806 131.318 38.2033L108.89 53.0917C106.596 54.6144 103.525 53.9617 101.707 51.8939C98.4084 48.1416 94.3697 45.085 89.8253 42.927C85.2809 40.7691 80.3596 39.571 75.3668 39.386C72.6155 39.284 70.169 37.3168 69.8994 34.5768L67.2626 7.78607Z" fill="#0095FF"/>
</g>
<defs>
<filter id="filter0_d_32_50" x="6.04837" y="4.22846" width="165.697" height="165.697" filterUnits="userSpaceOnUse" color-interpolation-filters="sRGB">
<feFlood flood-opacity="0" result="BackgroundImageFix"/>
<feColorMatrix in="SourceAlpha" type="matrix" values="0 0 0 0 0 0 0 0 0 0 0 0 0 0 0 0 0 0 127 0" result="hardAlpha"/>
<feOffset dy="4.90275"/>
<feGaussianBlur stdDeviation="17.4661"/>
<feColorMatrix type="matrix" values="0 0 0 0 0 0 0 0 0 0 0 0 0 0 0 0 0 0 0.14 0"/>
<feBlend mode="normal" in2="BackgroundImageFix" result="effect1_dropShadow_32_50"/>
<feBlend mode="normal" in="SourceGraphic" in2="effect1_dropShadow_32_50" result="shape"/>
</filter>
<clipPath id="clip0_32_50">
<rect width="158" height="160" fill="white"/>
</clipPath>
</defs>
</svg>
