<svg width="158" height="160" viewBox="0 0 158 160" fill="none" xmlns="http://www.w3.org/2000/svg">
<g clip-path="url(#clip0_32_50)">
<path d="M10.3516 66.5662C13.6439 48.111 23.3367 31.4071 37.7259 19.3911C52.1151 7.37512 70.2797 0.81622 89.0262 0.867486L88.9147 41.6395C79.7589 41.6144 70.8873 44.8178 63.8596 50.6864C56.8319 56.555 52.098 64.7132 50.49 73.7267L10.3516 66.5662Z" fill="#F3F3F4"/>
<g filter="url(#filter0_d_32_50)">
<circle cx="88.8969" cy="78.1743" r="47.9165" fill="white"/>
</g>
<mask id="path-3-inside-1_32_50" fill="white">
<path d="M92.2479 10.2276C92.8406 7.53885 95.507 5.82305 98.1496 6.5958C113.1 10.9675 126.329 19.9755 135.887 32.3818C146.462 46.1083 151.869 63.1189 151.159 80.4322C150.45 97.7454 143.67 114.257 132.007 127.072C120.344 139.887 104.542 148.188 87.3722 150.521C70.2021 152.853 52.7589 149.068 38.0998 139.829C23.4407 130.59 12.501 116.486 7.1984 99.9897C1.89575 83.4932 2.5684 65.6566 9.09843 49.6064C15.0004 35.0998 25.347 22.8889 38.5888 14.6873C40.9295 13.2376 43.9571 14.1798 45.2455 16.613L57.8434 40.4035C59.1318 42.8367 58.1787 45.8278 55.9413 47.4323C50.3126 51.4688 45.9047 57.031 43.2693 63.5087C40.0042 71.5339 39.6679 80.4521 42.3192 88.7004C44.9706 96.9486 50.4404 104.001 57.7699 108.62C65.0995 113.24 73.8211 115.132 82.4061 113.966C90.9912 112.8 98.8918 108.649 104.723 102.241C110.555 95.8339 113.945 87.5783 114.3 78.9216C114.655 70.265 111.951 61.7597 106.664 54.8965C102.395 49.3566 96.6634 45.1719 90.1619 42.7834C87.5775 41.8339 85.8609 39.2055 86.4536 36.5168L92.2479 10.2276Z"/>
</mask>
<path d="M92.2479 10.2276C92.8406 7.53885 95.507 5.82305 98.1496 6.5958C113.1 10.9675 126.329 19.9755 135.887 32.3818C146.462 46.1083 151.869 63.1189 151.159 80.4322C150.45 97.7454 143.67 114.257 132.007 127.072C120.344 139.887 104.542 148.188 87.3722 150.521C70.2021 152.853 52.7589 149.068 38.0998 139.829C23.4407 130.59 12.501 116.486 7.1984 99.9897C1.89575 83.4932 2.5684 65.6566 9.09843 49.6064C15.0004 35.0998 25.347 22.8889 38.5888 14.6873C40.9295 13.2376 43.9571 14.1798 45.2455 16.613L57.8434 40.4035C59.1318 42.8367 58.1787 45.8278 55.9413 47.4323C50.3126 51.4688 45.9047 57.031 43.2693 63.5087C40.0042 71.5339 39.6679 80.4521 42.3192 88.7004C44.9706 96.9486 50.4404 104.001 57.7699 108.62C65.0995 113.24 73.8211 115.132 82.4061 113.966C90.9912 112.8 98.8918 108.649 104.723 102.241C110.555 95.8339 113.945 87.5783 114.3 78.9216C114.655 70.265 111.951 61.7597 106.664 54.8965C102.395 49.3566 96.6634 45.1719 90.1619 42.7834C87.5775 41.8339 85.8609 39.2055 86.4536 36.5168L92.2479 10.2276Z" fill="#1D80FF" stroke="white" stroke-width="3.98819" mask="url(#path-3-inside-1_32_50)"/>
<path d="M67.2626 3.78607C66.993 1.04604 68.9965 -1.41152 71.7484 -1.49559C81.3275 -1.78821 90.8728 -0.211565 99.849 3.14589C102.428 4.11046 103.535 7.08176 102.398 9.58953L91.2861 34.1093C90.1497 36.6171 87.2006 37.6931 84.5626 36.9049C81.5739 36.0119 78.4839 35.5015 75.3669 35.386C72.6155 35.284 70.169 33.3168 69.8994 30.5768L67.2626 3.78607Z" fill="#183555"/>
</g>
<defs>
<filter id="filter0_d_32_50" x="6.04837" y="0.228461" width="165.697" height="165.697" filterUnits="userSpaceOnUse" color-interpolation-filters="sRGB">
<feFlood flood-opacity="0" result="BackgroundImageFix"/>
<feColorMatrix in="SourceAlpha" type="matrix" values="0 0 0 0 0 0 0 0 0 0 0 0 0 0 0 0 0 0 127 0" result="hardAlpha"/>
<feOffset dy="4.90275"/>
<feGaussianBlur stdDeviation="17.4661"/>
<feColorMatrix type="matrix" values="0 0 0 0 0 0 0 0 0 0 0 0 0 0 0 0 0 0 0.14 0"/>
<feBlend mode="normal" in2="BackgroundImageFix" result="effect1_dropShadow_32_50"/>
<feBlend mode="normal" in="SourceGraphic" in2="effect1_dropShadow_32_50" result="shape"/>
</filter>
<clipPath id="clip0_32_50">
<rect width="158" height="160" fill="white"/>
</clipPath>
</defs>
</svg>
