<svg width="56" height="56" viewBox="0 0 56 56" fill="none" xmlns="http://www.w3.org/2000/svg">
<path d="M49 18.6641V48.9811C49.0022 49.2875 48.9439 49.5913 48.8287 49.8752C48.7134 50.1592 48.5433 50.4176 48.3281 50.6358C48.113 50.854 47.857 51.0276 47.5747 51.1469C47.2924 51.2661 46.9894 51.3286 46.683 51.3307H9.317C8.7029 51.3307 8.11391 51.0869 7.67946 50.6529C7.245 50.2189 7.00062 49.6302 7 49.0161V6.97873C7 5.72573 8.04767 4.66406 9.338 4.66406H34.993L49 18.6641ZM44.3333 20.9974H32.6667V9.33073H11.6667V46.6641H44.3333V20.9974ZM18.6667 16.3307H25.6667V20.9974H18.6667V16.3307ZM18.6667 25.6641H37.3333V30.3307H18.6667V25.6641ZM18.6667 34.9974H37.3333V39.6641H18.6667V34.9974Z" fill="#D8DEE6"/>
</svg>
