<svg width="13" height="12" viewBox="0 0 13 12" fill="none" xmlns="http://www.w3.org/2000/svg">
<mask id="mask0_336_12331" style="mask-type:alpha" maskUnits="userSpaceOnUse" x="0" y="0" width="13" height="12">
<path d="M11.6535 1.45451C11.8 1.60095 11.8 1.83839 11.6535 1.98484L10.8714 2.767L9.37138 1.267L10.1535 0.484835C10.3 0.338388 10.5374 0.338388 10.6839 0.484835L11.6535 1.45451Z" fill="black"/>
<path d="M10.341 3.29733L8.84105 1.79733L3.7313 6.90707C3.69014 6.94824 3.65912 6.99842 3.64071 7.05365L3.03729 8.86391C2.98843 9.01049 3.12788 9.14994 3.27446 9.10108L5.08472 8.49766C5.13995 8.47925 5.19014 8.44824 5.2313 8.40707L10.341 3.29733Z" fill="black"/>
<path fill-rule="evenodd" clip-rule="evenodd" d="M0.777344 10.125C0.777344 10.7463 1.28102 11.25 1.90234 11.25H10.1523C10.7737 11.25 11.2773 10.7463 11.2773 10.125V5.625C11.2773 5.41789 11.1095 5.25 10.9023 5.25C10.6952 5.25 10.5273 5.41789 10.5273 5.625V10.125C10.5273 10.3321 10.3595 10.5 10.1523 10.5H1.90234C1.69524 10.5 1.52734 10.3321 1.52734 10.125V1.875C1.52734 1.66789 1.69524 1.5 1.90234 1.5H6.77734C6.98445 1.5 7.15234 1.33211 7.15234 1.125C7.15234 0.917893 6.98445 0.75 6.77734 0.75H1.90234C1.28102 0.75 0.777344 1.25368 0.777344 1.875V10.125Z" fill="black"/>
</mask>
<g mask="url(#mask0_336_12331)">
<rect x="0.0273438" width="12" height="12" fill="#16192C"/>
</g>
</svg>
