<svg width="13" height="14" viewBox="0 0 13 14" fill="none" xmlns="http://www.w3.org/2000/svg">
<path d="M12.2596 4.40645L5.15552 13.2439C4.82949 13.6452 4.34902 13.871 3.83423 13.8794L1.0029 13.9128C0.848462 13.9128 0.719765 13.8125 0.685446 13.6703L0.0419615 10.9865C-0.0695758 10.4932 0.0419615 9.98317 0.367994 9.59021L5.40433 3.31954C5.49013 3.2192 5.64457 3.20332 5.74753 3.27773L7.86674 4.89975C8.00401 5.00844 8.19277 5.06696 8.3901 5.04188C8.81051 4.99172 9.09365 4.62384 9.05075 4.23087C9.02501 4.03021 8.92205 3.86299 8.78477 3.73758C8.74187 3.70414 6.72562 2.14901 6.72562 2.14901C6.59693 2.04868 6.57119 1.86474 6.67414 1.74016L7.47206 0.744378C8.20993 -0.16696 9.4969 -0.250569 10.5351 0.543716L11.7276 1.45505C12.2167 1.82293 12.5427 2.30787 12.6543 2.81788C12.783 3.3789 12.6457 3.92988 12.2596 4.40645Z" fill="#328090"/>
</svg>
