<svg width="44" height="68" viewBox="0 0 44 68" fill="none" xmlns="http://www.w3.org/2000/svg">
<path d="M22 56.0057C34.1503 56.0057 44 46.1538 44 34.0009C44 21.848 34.1503 11.9961 22 11.9961C9.84974 11.9961 0 21.848 0 34.0009C0 46.1538 9.84974 56.0057 22 56.0057Z" fill="white"/>
<path fill-rule="evenodd" clip-rule="evenodd" d="M22.0041 16.3008C31.7771 16.3008 39.6996 24.2251 39.6996 34.0002C39.6996 43.7752 31.7771 51.6995 22.0041 51.6995C12.2312 51.6995 4.30859 43.7752 4.30859 34.0002C4.30859 24.2251 12.2312 16.3008 22.0041 16.3008Z" fill="url(#paint0_linear_2139_75560)"/>
<path d="M24.2986 51.5529V37.8816H28.152L28.6628 33.0699H24.2986L24.3051 30.6615C24.3051 29.4065 24.4243 28.7344 26.2265 28.7344H28.6358V23.9219H24.7815C20.1519 23.9219 18.5227 26.2559 18.5227 30.1817V33.0703H15.6367V37.8824H18.5227V51.3591C19.647 51.5831 20.8093 51.7015 21.9994 51.7015C22.7682 51.7015 23.5362 51.6519 24.2986 51.5529Z" fill="white"/>
<defs>
<linearGradient id="paint0_linear_2139_75560" x1="22.0041" y1="15.9783" x2="22.0041" y2="53.209" gradientUnits="userSpaceOnUse">
<stop stop-color="#00B2FF"/>
<stop offset="1" stop-color="#006AFF"/>
</linearGradient>
</defs>
</svg>
