<svg width="24" height="24" viewBox="0 0 24 24" fill="none" xmlns="http://www.w3.org/2000/svg">
<path d="M2 18H9V20H2V18ZM2 11H11V13H2V11ZM2 4H22V6H2V4ZM20.674 13.025L21.83 12.634L22.83 14.366L21.914 15.171C22.0293 15.7177 22.0293 16.2823 21.914 16.829L22.83 17.634L21.83 19.366L20.674 18.975C20.264 19.345 19.776 19.63 19.239 19.805L19 21H17L16.76 19.804C16.2293 19.6306 15.7408 19.3478 15.326 18.974L14.17 19.366L13.17 17.634L14.086 16.829C13.9707 16.2823 13.9707 15.7177 14.086 15.171L13.17 14.366L14.17 12.634L15.326 13.025C15.736 12.655 16.224 12.37 16.761 12.195L17 11H19L19.24 12.196C19.776 12.37 20.264 12.656 20.674 13.026V13.025ZM18 17C18.2652 17 18.5196 16.8946 18.7071 16.7071C18.8946 16.5196 19 16.2652 19 16C19 15.7348 18.8946 15.4804 18.7071 15.2929C18.5196 15.1054 18.2652 15 18 15C17.7348 15 17.4804 15.1054 17.2929 15.2929C17.1054 15.4804 17 15.7348 17 16C17 16.2652 17.1054 16.5196 17.2929 16.7071C17.4804 16.8946 17.7348 17 18 17Z" fill="white"/>
<path d="M20.504 13.025L21.66 12.634L22.66 14.366L21.744 15.171C21.8593 15.7177 21.8593 16.2823 21.744 16.829L22.66 17.634L21.66 19.366L20.504 18.975C20.094 19.345 19.606 19.63 19.069 19.805L18.83 21H16.83L16.59 19.804C16.0593 19.6306 15.5708 19.3478 15.156 18.974L14 19.366L13 17.634L13.916 16.829C13.8007 16.2823 13.8007 15.7177 13.916 15.171L13 14.366L14 12.634L15.156 13.025C15.566 12.655 16.054 12.37 16.591 12.195L16.83 11H18.83L19.07 12.196C19.606 12.37 20.094 12.656 20.504 13.026V13.025ZM17.83 17C18.0952 17 18.3496 16.8946 18.5371 16.7071C18.7246 16.5196 18.83 16.2652 18.83 16C18.83 15.7348 18.7246 15.4804 18.5371 15.2929C18.3496 15.1054 18.0952 15 17.83 15C17.5648 15 17.3104 15.1054 17.1229 15.2929C16.9354 15.4804 16.83 15.7348 16.83 16C16.83 16.2652 16.9354 16.5196 17.1229 16.7071C17.3104 16.8946 17.5648 17 17.83 17Z" fill="#51CBFF"/>
</svg>
