<svg width="84" height="84" viewBox="0 0 84 84" fill="none" xmlns="http://www.w3.org/2000/svg">
<g filter="url(#filter0_d_31_16)">
<circle cx="42.0023" cy="33.9906" r="25.4476" fill="white"/>
</g>
<g clip-path="url(#clip0_31_16)">
<path d="M52.9357 28.0156H30.3768C29.8408 28.0156 29.4062 28.4418 29.4062 28.9674V45.03C29.4062 45.5556 29.8408 45.9818 30.3768 45.9818H52.9357C53.4717 45.9818 53.9062 45.5556 53.9062 45.03V28.9674C53.9062 28.4418 53.4717 28.0156 52.9357 28.0156Z" fill="#868686"/>
<path d="M52.6545 27.8828H30.6348C29.9527 27.8828 29.4219 33.0599 29.4219 33.7289L41.4806 45.9839H52.6545C53.3387 45.9821 53.8929 45.4386 53.8948 44.7676V29.0989C53.8927 28.428 53.3386 27.8846 52.6545 27.8828V27.8828Z" fill="url(#paint0_linear_31_16)"/>
<path d="M35 31.0258H42V22.0156H36.0482L35 31.0258Z" fill="#4F4F55"/>
<path d="M49 31.0258H42V22.0156H47.9518L49 31.0258ZM53.9058 23.7236L53.9145 23.7543C53.9124 23.7435 53.9082 23.7334 53.9058 23.7236Z" fill="#E8ECF1"/>
<path d="M53.9158 23.7543L53.9071 23.7236C53.6852 22.727 52.7857 22.0163 51.7455 22.0156H47.9531L49.0005 31.0261H56.0005L53.9158 23.7543Z" fill="#B5B5BD"/>
<path d="M30.0946 23.7227L30.0859 23.7534C30.088 23.7425 30.0923 23.7325 30.0946 23.7227Z" fill="#E8ECF1"/>
<path d="M30.0861 23.7543L30.0947 23.7236C30.3167 22.727 31.2161 22.0163 32.2563 22.0156H36.0489L35 31.0261H28L30.0861 23.7543Z" fill="#E8ECF1"/>
<path fill-rule="evenodd" clip-rule="evenodd" d="M35.0117 31.0234C35.0117 32.9181 33.4455 34.454 31.5137 34.454C29.5818 34.454 28.0156 32.9181 28.0156 31.0234H35.0117Z" fill="#E8E8E8"/>
<path fill-rule="evenodd" clip-rule="evenodd" d="M42.0078 31.0234C42.0078 32.9181 40.4416 34.454 38.5097 34.454C36.5779 34.454 35.0117 32.9181 35.0117 31.0234H42.0078Z" fill="#4F4F55"/>
<path fill-rule="evenodd" clip-rule="evenodd" d="M49.0039 31.0234C49.0039 32.9181 47.4377 34.454 45.5058 34.454C43.5739 34.454 42.0078 32.9181 42.0078 31.0234H49.0039Z" fill="#E8E8E8"/>
<path fill-rule="evenodd" clip-rule="evenodd" d="M56 31.0234C56 32.9181 54.4338 34.454 52.5019 34.454C50.57 34.454 49.0039 32.9181 49.0039 31.0234H56Z" fill="#4F4F55"/>
<path d="M52.5021 40.3183C52.4897 40.1549 52.4692 40.0058 52.44 39.8153H48.6242C48.6242 40.3387 48.6242 40.9098 48.6221 41.4335H50.8326C50.7856 41.6775 50.69 41.9101 50.5511 42.1177C50.4122 42.3254 50.2329 42.5041 50.0234 42.6436C50.0234 42.6436 50.0234 42.6346 50.0218 42.6343C49.7513 42.8086 49.4465 42.9252 49.1271 42.9768C48.8069 43.0343 48.4786 43.0329 48.1589 42.9727C47.8343 42.9068 47.527 42.7762 47.256 42.5889C46.8561 42.3108 46.5476 41.9242 46.3684 41.4766C46.3547 41.4417 46.3421 41.4066 46.3292 41.371V41.3671L46.3326 41.3646C46.1587 40.864 46.1582 40.3211 46.3313 39.8202C46.4532 39.4688 46.6538 39.1487 46.9184 38.8834C47.5391 38.2537 48.4665 38.0168 49.3216 38.2696C49.6494 38.3683 49.949 38.5412 50.196 38.7745L50.9418 38.043C51.0734 37.9127 51.21 37.7865 51.3366 37.6518C50.9584 37.3059 50.5145 37.0363 50.0302 36.8584C49.1489 36.545 48.1847 36.5367 47.2979 36.835C47.267 36.8453 47.2363 36.8561 47.2058 36.8672C46.249 37.22 45.4619 37.9117 45 38.8059C44.8368 39.1224 44.7181 39.4591 44.6468 39.8068C44.2244 41.8656 45.5053 43.8921 47.5734 44.4368C48.2494 44.6143 48.9681 44.61 49.6494 44.4582C50.2685 44.3211 50.8409 44.0294 51.311 43.6114C51.8016 43.1688 52.1531 42.5791 52.3373 41.9527C52.4914 41.4219 52.5472 40.8684 52.5021 40.3183Z" fill="white"/>
</g>
<defs>
<filter id="filter0_d_31_16" x="0.554688" y="0.542969" width="82.8953" height="82.8953" filterUnits="userSpaceOnUse" color-interpolation-filters="sRGB">
<feFlood flood-opacity="0" result="BackgroundImageFix"/>
<feColorMatrix in="SourceAlpha" type="matrix" values="0 0 0 0 0 0 0 0 0 0 0 0 0 0 0 0 0 0 127 0" result="hardAlpha"/>
<feOffset dy="8"/>
<feGaussianBlur stdDeviation="8"/>
<feComposite in2="hardAlpha" operator="out"/>
<feColorMatrix type="matrix" values="0 0 0 0 0.560784 0 0 0 0 0.584314 0 0 0 0 0.698039 0 0 0 0.15 0"/>
<feBlend mode="normal" in2="BackgroundImageFix" result="effect1_dropShadow_31_16"/>
<feBlend mode="normal" in="SourceGraphic" in2="effect1_dropShadow_31_16" result="shape"/>
</filter>
<linearGradient id="paint0_linear_31_16" x1="29.4219" y1="36.9332" x2="53.8945" y2="36.9332" gradientUnits="userSpaceOnUse">
<stop offset="0.03" stop-color="#979393"/>
<stop offset="1" stop-color="#D5D4D4"/>
</linearGradient>
<clipPath id="clip0_31_16">
<rect width="28" height="24" fill="white" transform="translate(28 22)"/>
</clipPath>
</defs>
</svg>
