<svg width="20" height="20" viewBox="0 0 20 20" fill="none" xmlns="http://www.w3.org/2000/svg">
<path fill-rule="evenodd" clip-rule="evenodd" d="M15.8346 1.66797C17.2153 1.66797 18.3346 2.78726 18.3346 4.16797V15.8346C18.3346 17.2153 17.2153 18.3346 15.8346 18.3346H4.16797C2.78726 18.3346 1.66797 17.2153 1.66797 15.8346V4.16797C1.66797 2.78726 2.78726 1.66797 4.16797 1.66797H15.8346ZM15.8346 3.33464H4.16797C3.70773 3.33464 3.33464 3.70773 3.33464 4.16797V15.8346C3.33464 16.2949 3.70773 16.668 4.16797 16.668H15.8346C16.2949 16.668 16.668 16.2949 16.668 15.8346V4.16797C16.668 3.70773 16.2949 3.33464 15.8346 3.33464ZM6.66797 11.668C7.12821 11.668 7.5013 12.0411 7.5013 12.5013V14.168C7.5013 14.6282 7.12821 15.0013 6.66797 15.0013C6.20773 15.0013 5.83464 14.6282 5.83464 14.168V12.5013C5.83464 12.0411 6.20773 11.668 6.66797 11.668ZM10.0013 5.0013C10.4615 5.0013 10.8346 5.3744 10.8346 5.83464V14.168C10.8346 14.6282 10.4615 15.0013 10.0013 15.0013C9.54107 15.0013 9.16797 14.6282 9.16797 14.168V5.83464C9.16797 5.3744 9.54107 5.0013 10.0013 5.0013ZM13.3346 8.33464C13.7949 8.33464 14.168 8.70773 14.168 9.16797V14.168C14.168 14.6282 13.7949 15.0013 13.3346 15.0013C12.8744 15.0013 12.5013 14.6282 12.5013 14.168V9.16797C12.5013 8.70773 12.8744 8.33464 13.3346 8.33464Z" fill="#22C55E"/>
</svg>
