<svg width="84" height="84" viewBox="0 0 84 84" fill="none" xmlns="http://www.w3.org/2000/svg">
<g filter="url(#filter0_d_31_37)">
<circle cx="41.7132" cy="33.9906" r="25.4476" fill="white"/>
</g>
<g clip-path="url(#clip0_31_37)">
<path d="M37.4303 34C37.4303 31.7909 39.2206 29.9997 41.4297 29.9997C43.6387 29.9997 45.43 31.7909 45.43 34C45.43 36.2091 43.6387 38.0003 41.4297 38.0003C39.2206 38.0003 37.4303 36.2091 37.4303 34ZM35.2678 34C35.2678 37.4032 38.0265 40.1619 41.4297 40.1619C44.8329 40.1619 47.5915 37.4032 47.5915 34C47.5915 30.5968 44.8329 27.8381 41.4297 27.8381C38.0265 27.8381 35.2678 30.5968 35.2678 34ZM46.3955 27.5938C46.3954 27.8786 46.4797 28.1571 46.6378 28.3939C46.796 28.6308 47.0208 28.8155 47.2839 28.9246C47.547 29.0337 47.8365 29.0623 48.1158 29.0068C48.3952 28.9514 48.6518 28.8143 48.8533 28.613C49.0548 28.4117 49.192 28.1552 49.2477 27.8759C49.3034 27.5966 49.275 27.307 49.1661 27.0439C49.0572 26.7807 48.8727 26.5557 48.636 26.3974C48.3992 26.2391 48.1209 26.1545 47.8361 26.1544H47.8355C47.4537 26.1546 47.0876 26.3063 46.8176 26.5762C46.5476 26.846 46.3958 27.2121 46.3955 27.5938M36.5817 43.7677C35.4117 43.7144 34.7758 43.5196 34.3532 43.3549C33.793 43.1368 33.3932 42.877 32.973 42.4573C32.5527 42.0376 32.2925 41.6382 32.0754 41.078C31.9106 40.6556 31.7157 40.0195 31.6626 38.8495C31.6044 37.5846 31.5928 37.2047 31.5928 34.0001C31.5928 30.7955 31.6053 30.4166 31.6626 29.1507C31.7158 27.9807 31.9122 27.3459 32.0754 26.9222C32.2935 26.362 32.5532 25.9622 32.973 25.5419C33.3927 25.1216 33.792 24.8615 34.3532 24.6443C34.7756 24.4796 35.4117 24.2847 36.5817 24.2315C37.8466 24.1733 38.2266 24.1617 41.4297 24.1617C44.6328 24.1617 45.0132 24.1743 46.2791 24.2315C47.4491 24.2848 48.0839 24.4811 48.5076 24.6443C49.0678 24.8615 49.4676 25.1222 49.8879 25.5419C50.3082 25.9616 50.5674 26.362 50.7855 26.9222C50.9502 27.3446 51.1451 27.9807 51.1983 29.1507C51.2564 30.4166 51.2681 30.7955 51.2681 34.0001C51.2681 37.2047 51.2564 37.5836 51.1983 38.8495C51.145 40.0195 50.9491 40.6554 50.7855 41.078C50.5674 41.6382 50.3076 42.038 49.8879 42.4573C49.4682 42.8766 49.0678 43.1368 48.5076 43.3549C48.0852 43.5196 47.4491 43.7145 46.2791 43.7677C45.0142 43.8259 44.6343 43.8375 41.4297 43.8375C38.2251 43.8375 37.8462 43.8259 36.5817 43.7677M36.4823 22.0727C35.2049 22.1308 34.3319 22.3334 33.5696 22.63C32.7801 22.9364 32.1117 23.3474 31.4439 24.0142C30.776 24.681 30.3661 25.3504 30.0597 26.1399C29.7631 26.9027 29.5605 27.7752 29.5024 29.0526C29.4432 30.3321 29.4297 30.7412 29.4297 34C29.4297 37.2588 29.4432 37.6679 29.5024 38.9474C29.5605 40.2249 29.7631 41.0973 30.0597 41.8601C30.3661 42.6491 30.7761 43.3193 31.4439 43.9858C32.1116 44.6524 32.7801 45.0628 33.5696 45.37C34.3334 45.6666 35.2049 45.8692 36.4823 45.9273C37.7625 45.9855 38.1709 46 41.4297 46C44.6885 46 45.0976 45.9865 46.377 45.9273C47.6546 45.8692 48.527 45.6666 49.2898 45.37C50.0788 45.0628 50.7476 44.6526 51.4155 43.9858C52.0834 43.319 52.4924 42.6491 52.7996 41.8601C53.0963 41.0973 53.2998 40.2248 53.357 38.9474C53.4152 37.6669 53.4287 37.2588 53.4287 34C53.4287 30.7412 53.4152 30.3321 53.357 29.0526C53.2988 27.7751 53.0963 26.9022 52.7996 26.1399C52.4924 25.3509 52.0823 24.682 51.4155 24.0142C50.7487 23.3463 50.0788 22.9364 49.2907 22.63C48.527 22.3334 47.6545 22.1299 46.378 22.0727C45.0985 22.0145 44.6895 22 41.4306 22C38.1718 22 37.7625 22.0135 36.4823 22.0727Z" fill="url(#paint0_radial_31_37)"/>
<path d="M37.4303 34C37.4303 31.7909 39.2206 29.9997 41.4297 29.9997C43.6387 29.9997 45.43 31.7909 45.43 34C45.43 36.2091 43.6387 38.0003 41.4297 38.0003C39.2206 38.0003 37.4303 36.2091 37.4303 34ZM35.2678 34C35.2678 37.4032 38.0265 40.1619 41.4297 40.1619C44.8329 40.1619 47.5915 37.4032 47.5915 34C47.5915 30.5968 44.8329 27.8381 41.4297 27.8381C38.0265 27.8381 35.2678 30.5968 35.2678 34ZM46.3955 27.5938C46.3954 27.8786 46.4797 28.1571 46.6378 28.3939C46.796 28.6308 47.0208 28.8155 47.2839 28.9246C47.547 29.0337 47.8365 29.0623 48.1158 29.0068C48.3952 28.9514 48.6518 28.8143 48.8533 28.613C49.0548 28.4117 49.192 28.1552 49.2477 27.8759C49.3034 27.5966 49.275 27.307 49.1661 27.0439C49.0572 26.7807 48.8727 26.5557 48.636 26.3974C48.3992 26.2391 48.1209 26.1545 47.8361 26.1544H47.8355C47.4537 26.1546 47.0876 26.3063 46.8176 26.5762C46.5476 26.846 46.3958 27.2121 46.3955 27.5938M36.5817 43.7677C35.4117 43.7144 34.7758 43.5196 34.3532 43.3549C33.793 43.1368 33.3932 42.877 32.973 42.4573C32.5527 42.0376 32.2925 41.6382 32.0754 41.078C31.9106 40.6556 31.7157 40.0195 31.6626 38.8495C31.6044 37.5846 31.5928 37.2047 31.5928 34.0001C31.5928 30.7955 31.6053 30.4166 31.6626 29.1507C31.7158 27.9807 31.9122 27.3459 32.0754 26.9222C32.2935 26.362 32.5532 25.9622 32.973 25.5419C33.3927 25.1216 33.792 24.8615 34.3532 24.6443C34.7756 24.4796 35.4117 24.2847 36.5817 24.2315C37.8466 24.1733 38.2266 24.1617 41.4297 24.1617C44.6328 24.1617 45.0132 24.1743 46.2791 24.2315C47.4491 24.2848 48.0839 24.4811 48.5076 24.6443C49.0678 24.8615 49.4676 25.1222 49.8879 25.5419C50.3082 25.9616 50.5674 26.362 50.7855 26.9222C50.9502 27.3446 51.1451 27.9807 51.1983 29.1507C51.2564 30.4166 51.2681 30.7955 51.2681 34.0001C51.2681 37.2047 51.2564 37.5836 51.1983 38.8495C51.145 40.0195 50.9491 40.6554 50.7855 41.078C50.5674 41.6382 50.3076 42.038 49.8879 42.4573C49.4682 42.8766 49.0678 43.1368 48.5076 43.3549C48.0852 43.5196 47.4491 43.7145 46.2791 43.7677C45.0142 43.8259 44.6343 43.8375 41.4297 43.8375C38.2251 43.8375 37.8462 43.8259 36.5817 43.7677M36.4823 22.0727C35.2049 22.1308 34.3319 22.3334 33.5696 22.63C32.7801 22.9364 32.1117 23.3474 31.4439 24.0142C30.776 24.681 30.3661 25.3504 30.0597 26.1399C29.7631 26.9027 29.5605 27.7752 29.5024 29.0526C29.4432 30.3321 29.4297 30.7412 29.4297 34C29.4297 37.2588 29.4432 37.6679 29.5024 38.9474C29.5605 40.2249 29.7631 41.0973 30.0597 41.8601C30.3661 42.6491 30.7761 43.3193 31.4439 43.9858C32.1116 44.6524 32.7801 45.0628 33.5696 45.37C34.3334 45.6666 35.2049 45.8692 36.4823 45.9273C37.7625 45.9855 38.1709 46 41.4297 46C44.6885 46 45.0976 45.9865 46.377 45.9273C47.6546 45.8692 48.527 45.6666 49.2898 45.37C50.0788 45.0628 50.7476 44.6526 51.4155 43.9858C52.0834 43.319 52.4924 42.6491 52.7996 41.8601C53.0963 41.0973 53.2998 40.2248 53.357 38.9474C53.4152 37.6669 53.4287 37.2588 53.4287 34C53.4287 30.7412 53.4152 30.3321 53.357 29.0526C53.2988 27.7751 53.0963 26.9022 52.7996 26.1399C52.4924 25.3509 52.0823 24.682 51.4155 24.0142C50.7487 23.3463 50.0788 22.9364 49.2907 22.63C48.527 22.3334 47.6545 22.1299 46.378 22.0727C45.0985 22.0145 44.6895 22 41.4306 22C38.1718 22 37.7625 22.0135 36.4823 22.0727Z" fill="url(#paint1_radial_31_37)"/>
</g>
<defs>
<filter id="filter0_d_31_37" x="0.265625" y="0.542969" width="82.8953" height="82.8953" filterUnits="userSpaceOnUse" color-interpolation-filters="sRGB">
<feFlood flood-opacity="0" result="BackgroundImageFix"/>
<feColorMatrix in="SourceAlpha" type="matrix" values="0 0 0 0 0 0 0 0 0 0 0 0 0 0 0 0 0 0 127 0" result="hardAlpha"/>
<feOffset dy="8"/>
<feGaussianBlur stdDeviation="8"/>
<feComposite in2="hardAlpha" operator="out"/>
<feColorMatrix type="matrix" values="0 0 0 0 0.560784 0 0 0 0 0.584314 0 0 0 0 0.698039 0 0 0 0.15 0"/>
<feBlend mode="normal" in2="BackgroundImageFix" result="effect1_dropShadow_31_37"/>
<feBlend mode="normal" in="SourceGraphic" in2="effect1_dropShadow_31_37" result="shape"/>
</filter>
<radialGradient id="paint0_radial_31_37" cx="0" cy="0" r="1" gradientUnits="userSpaceOnUse" gradientTransform="translate(32.6182 46.1134) scale(31.33 31.33)">
<stop offset="0.09" stop-color="white"/>
<stop offset="0.78" stop-color="#E8ECF1"/>
</radialGradient>
<radialGradient id="paint1_radial_31_37" cx="0" cy="0" r="1" gradientUnits="userSpaceOnUse" gradientTransform="translate(43.9846 47.1886) scale(24.6924)">
<stop offset="0.64" stop-color="#8E8E92"/>
<stop offset="1" stop-color="#1D1C1E"/>
</radialGradient>
<clipPath id="clip0_31_37">
<rect width="24" height="24" fill="white" transform="translate(29.4297 22)"/>
</clipPath>
</defs>
</svg>
