<svg width="75" height="75" viewBox="0 0 75 75" fill="none" xmlns="http://www.w3.org/2000/svg">
<g filter="url(#filter0_d_46_428)">
<circle cx="37.5477" cy="31.3523" r="25.45" fill="white"/>
</g>
<g clip-path="url(#clip0_46_428)">
<path d="M34.3595 32.0384C34.3595 30.0063 36.0063 28.3586 38.0383 28.3586C40.0704 28.3586 41.7181 30.0063 41.7181 32.0384C41.7181 34.0704 40.0704 35.7181 38.0383 35.7181C36.0063 35.7181 34.3595 34.0704 34.3595 32.0384ZM32.3703 32.0384C32.3703 35.1688 34.9079 37.7064 38.0383 37.7064C41.1688 37.7064 43.7064 35.1688 43.7064 32.0384C43.7064 28.9079 41.1688 26.3703 38.0383 26.3703C34.9079 26.3703 32.3703 28.9079 32.3703 32.0384ZM42.6062 26.1455C42.6061 26.4075 42.6837 26.6637 42.8291 26.8815C42.9746 27.0994 43.1814 27.2693 43.4234 27.3696C43.6654 27.47 43.9317 27.4963 44.1887 27.4453C44.4457 27.3943 44.6817 27.2683 44.8671 27.0831C45.0524 26.8979 45.1786 26.6619 45.2298 26.405C45.2811 26.1481 45.2549 25.8817 45.1548 25.6397C45.0546 25.3976 44.8849 25.1906 44.6671 25.045C44.4494 24.8994 44.1933 24.8216 43.9313 24.8215H43.9308C43.5796 24.8216 43.2429 24.9612 42.9945 25.2094C42.7462 25.4577 42.6065 25.7944 42.6062 26.1455M33.5789 41.0233C32.5027 40.9743 31.9177 40.795 31.529 40.6436C31.0136 40.443 30.6459 40.204 30.2593 39.8179C29.8727 39.4318 29.6334 39.0645 29.4336 38.5491C29.2821 38.1606 29.1028 37.5755 29.0539 36.4993C29.0004 35.3357 28.9897 34.9862 28.9897 32.0384C28.9897 29.0907 29.0013 28.7421 29.0539 27.5776C29.1029 26.5014 29.2835 25.9175 29.4336 25.5278C29.6343 25.0124 29.8732 24.6447 30.2593 24.2581C30.6454 23.8715 31.0127 23.6322 31.529 23.4324C31.9175 23.2809 32.5027 23.1016 33.5789 23.0527C34.7424 22.9992 35.0919 22.9885 38.0383 22.9885C40.9848 22.9885 41.3347 23.0001 42.4992 23.0527C43.5754 23.1017 44.1593 23.2823 44.549 23.4324C45.0644 23.6322 45.4321 23.872 45.8187 24.2581C46.2053 24.6442 46.4437 25.0124 46.6444 25.5278C46.7959 25.9163 46.9752 26.5014 47.0241 27.5776C47.0776 28.7421 47.0883 29.0907 47.0883 32.0384C47.0883 34.9862 47.0776 35.3348 47.0241 36.4993C46.9751 37.5755 46.7949 38.1604 46.6444 38.5491C46.4437 39.0645 46.2048 39.4322 45.8187 39.8179C45.4326 40.2036 45.0644 40.443 44.549 40.6436C44.1605 40.7951 43.5754 40.9744 42.4992 41.0233C41.3356 41.0768 40.9861 41.0875 38.0383 41.0875C35.0906 41.0875 34.742 41.0768 33.5789 41.0233M33.4875 21.0668C32.3124 21.1204 31.5094 21.3067 30.8081 21.5796C30.0819 21.8613 29.4671 22.2394 28.8528 22.8528C28.2384 23.4661 27.8613 24.0819 27.5796 24.8081C27.3067 25.5098 27.1204 26.3124 27.0668 27.4875C27.0125 28.6644 27 29.0407 27 32.0384C27 35.036 27.0125 35.4123 27.0668 36.5892C27.1204 37.7644 27.3067 38.5669 27.5796 39.2686C27.8613 39.9944 28.2385 40.6108 28.8528 41.2239C29.467 41.837 30.0819 42.2146 30.8081 42.4971C31.5107 42.77 32.3124 42.9563 33.4875 43.0099C34.665 43.0634 35.0407 43.0767 38.0383 43.0767C41.036 43.0767 41.4123 43.0642 42.5892 43.0099C43.7644 42.9563 44.5669 42.77 45.2686 42.4971C45.9944 42.2146 46.6096 41.8373 47.2239 41.2239C47.8383 40.6106 48.2146 39.9944 48.4971 39.2686C48.77 38.5669 48.9572 37.7643 49.0099 36.5892C49.0634 35.4114 49.0758 35.036 49.0758 32.0384C49.0758 29.0407 49.0634 28.6644 49.0099 27.4875C48.9563 26.3123 48.77 25.5094 48.4971 24.8081C48.2146 24.0823 47.8373 23.4671 47.2239 22.8528C46.6106 22.2384 45.9944 21.8613 45.2694 21.5796C44.5669 21.3067 43.7643 21.1195 42.5901 21.0668C41.4132 21.0133 41.0369 21 38.0392 21C35.0416 21 34.665 21.0125 33.4875 21.0668Z" fill="url(#paint0_radial_46_428)"/>
<path d="M34.3595 32.0384C34.3595 30.0063 36.0063 28.3586 38.0383 28.3586C40.0704 28.3586 41.7181 30.0063 41.7181 32.0384C41.7181 34.0704 40.0704 35.7181 38.0383 35.7181C36.0063 35.7181 34.3595 34.0704 34.3595 32.0384ZM32.3703 32.0384C32.3703 35.1688 34.9079 37.7064 38.0383 37.7064C41.1688 37.7064 43.7064 35.1688 43.7064 32.0384C43.7064 28.9079 41.1688 26.3703 38.0383 26.3703C34.9079 26.3703 32.3703 28.9079 32.3703 32.0384ZM42.6062 26.1455C42.6061 26.4075 42.6837 26.6637 42.8291 26.8815C42.9746 27.0994 43.1814 27.2693 43.4234 27.3696C43.6654 27.47 43.9317 27.4963 44.1887 27.4453C44.4457 27.3943 44.6817 27.2683 44.8671 27.0831C45.0524 26.8979 45.1786 26.6619 45.2298 26.405C45.2811 26.1481 45.2549 25.8817 45.1548 25.6397C45.0546 25.3976 44.8849 25.1906 44.6671 25.045C44.4494 24.8994 44.1933 24.8216 43.9313 24.8215H43.9308C43.5796 24.8216 43.2429 24.9612 42.9945 25.2094C42.7462 25.4577 42.6065 25.7944 42.6062 26.1455M33.5789 41.0233C32.5027 40.9743 31.9177 40.795 31.529 40.6436C31.0136 40.443 30.6459 40.204 30.2593 39.8179C29.8727 39.4318 29.6334 39.0645 29.4336 38.5491C29.2821 38.1606 29.1028 37.5755 29.0539 36.4993C29.0004 35.3357 28.9897 34.9862 28.9897 32.0384C28.9897 29.0907 29.0013 28.7421 29.0539 27.5776C29.1029 26.5014 29.2835 25.9175 29.4336 25.5278C29.6343 25.0124 29.8732 24.6447 30.2593 24.2581C30.6454 23.8715 31.0127 23.6322 31.529 23.4324C31.9175 23.2809 32.5027 23.1016 33.5789 23.0527C34.7424 22.9992 35.0919 22.9885 38.0383 22.9885C40.9848 22.9885 41.3347 23.0001 42.4992 23.0527C43.5754 23.1017 44.1593 23.2823 44.549 23.4324C45.0644 23.6322 45.4321 23.872 45.8187 24.2581C46.2053 24.6442 46.4437 25.0124 46.6444 25.5278C46.7959 25.9163 46.9752 26.5014 47.0241 27.5776C47.0776 28.7421 47.0883 29.0907 47.0883 32.0384C47.0883 34.9862 47.0776 35.3348 47.0241 36.4993C46.9751 37.5755 46.7949 38.1604 46.6444 38.5491C46.4437 39.0645 46.2048 39.4322 45.8187 39.8179C45.4326 40.2036 45.0644 40.443 44.549 40.6436C44.1605 40.7951 43.5754 40.9744 42.4992 41.0233C41.3356 41.0768 40.9861 41.0875 38.0383 41.0875C35.0906 41.0875 34.742 41.0768 33.5789 41.0233M33.4875 21.0668C32.3124 21.1204 31.5094 21.3067 30.8081 21.5796C30.0819 21.8613 29.4671 22.2394 28.8528 22.8528C28.2384 23.4661 27.8613 24.0819 27.5796 24.8081C27.3067 25.5098 27.1204 26.3124 27.0668 27.4875C27.0125 28.6644 27 29.0407 27 32.0384C27 35.036 27.0125 35.4123 27.0668 36.5892C27.1204 37.7644 27.3067 38.5669 27.5796 39.2686C27.8613 39.9944 28.2385 40.6108 28.8528 41.2239C29.467 41.837 30.0819 42.2146 30.8081 42.4971C31.5107 42.77 32.3124 42.9563 33.4875 43.0099C34.665 43.0634 35.0407 43.0767 38.0383 43.0767C41.036 43.0767 41.4123 43.0642 42.5892 43.0099C43.7644 42.9563 44.5669 42.77 45.2686 42.4971C45.9944 42.2146 46.6096 41.8373 47.2239 41.2239C47.8383 40.6106 48.2146 39.9944 48.4971 39.2686C48.77 38.5669 48.9572 37.7643 49.0099 36.5892C49.0634 35.4114 49.0758 35.036 49.0758 32.0384C49.0758 29.0407 49.0634 28.6644 49.0099 27.4875C48.9563 26.3123 48.77 25.5094 48.4971 24.8081C48.2146 24.0823 47.8373 23.4671 47.2239 22.8528C46.6106 22.2384 45.9944 21.8613 45.2694 21.5796C44.5669 21.3067 43.7643 21.1195 42.5901 21.0668C41.4132 21.0133 41.0369 21 38.0392 21C35.0416 21 34.665 21.0125 33.4875 21.0668Z" fill="url(#paint1_radial_46_428)"/>
</g>
<defs>
<filter id="filter0_d_46_428" x="0.323417" y="0.015224" width="74.4485" height="74.4484" filterUnits="userSpaceOnUse" color-interpolation-filters="sRGB">
<feFlood flood-opacity="0" result="BackgroundImageFix"/>
<feColorMatrix in="SourceAlpha" type="matrix" values="0 0 0 0 0 0 0 0 0 0 0 0 0 0 0 0 0 0 127 0" result="hardAlpha"/>
<feOffset dy="5.88712"/>
<feGaussianBlur stdDeviation="5.88712"/>
<feComposite in2="hardAlpha" operator="out"/>
<feColorMatrix type="matrix" values="0 0 0 0 0.560784 0 0 0 0 0.584314 0 0 0 0 0.698039 0 0 0 0.15 0"/>
<feBlend mode="normal" in2="BackgroundImageFix" result="effect1_dropShadow_46_428"/>
<feBlend mode="normal" in="SourceGraphic" in2="effect1_dropShadow_46_428" result="shape"/>
</filter>
<radialGradient id="paint0_radial_46_428" cx="0" cy="0" r="1" gradientUnits="userSpaceOnUse" gradientTransform="translate(29.933 43.181) scale(28.8193 28.8193)">
<stop offset="0.09" stop-color="#FA8F21"/>
<stop offset="0.78" stop-color="#D82D7E"/>
</radialGradient>
<radialGradient id="paint1_radial_46_428" cx="0" cy="0" r="1" gradientUnits="userSpaceOnUse" gradientTransform="translate(40.3885 44.17) scale(22.7136)">
<stop offset="0.64" stop-color="#8C3AAA" stop-opacity="0"/>
<stop offset="1" stop-color="#8C3AAA"/>
</radialGradient>
<clipPath id="clip0_46_428">
<rect width="22.0767" height="22.0767" fill="white" transform="translate(27 21)"/>
</clipPath>
</defs>
</svg>
