<svg width="330" height="242" viewBox="0 0 330 242" fill="none" xmlns="http://www.w3.org/2000/svg">
<path d="M29.961 236.321L34.5046 231.854C36.2992 230.098 36.7001 228.952 36.7001 227.673C36.7001 225.439 34.9819 224.065 32.271 224.065C30.2283 224.065 28.5674 224.752 27.5365 225.974L28.5101 226.814C29.3883 225.802 30.591 225.325 32.1565 225.325C34.1992 225.325 35.2874 226.279 35.2874 227.826C35.2874 228.742 35.001 229.639 33.4928 231.128L27.9374 236.569V237.543H37.311V236.321H29.961ZM42.5488 229.658H40.8306L41.2888 225.401H47.3979V224.179H40.0861L39.3988 230.88H42.2433C45.6415 230.88 46.7106 231.949 46.7106 233.668C46.7106 235.29 45.5079 236.398 43.2361 236.398C41.5179 236.398 39.9906 235.748 39.1315 234.851L38.4633 235.939C39.4942 236.989 41.327 237.658 43.2551 237.658C46.5197 237.658 48.1042 235.882 48.1042 233.61C48.1042 231.243 46.577 229.658 42.5488 229.658ZM50.002 232.961H55.0038V231.778H50.002V232.961ZM61.3096 229.907L65.0896 225.153V224.179H56.4987V225.401H63.3333L59.6296 230.04V231.052H60.5842C63.066 231.052 64.1924 232.102 64.1924 233.706C64.1924 235.367 62.9705 236.398 60.756 236.398C59.0187 236.398 57.4724 235.748 56.6133 234.851L55.9451 235.939C56.976 236.989 58.8278 237.658 60.756 237.658C63.9824 237.658 65.6051 235.939 65.6051 233.706C65.6051 231.568 64.1733 230.059 61.3096 229.907ZM78.901 232.808H76.2283V229.716H74.8919V232.808H69.0883L75.9228 224.179H74.3956L67.3128 233.038V234.03H74.8537V237.543H76.2283V234.03H78.901V232.808Z" fill="#7B91B0"/>
<path d="M148.949 229.907L152.729 225.153V224.179H144.138V225.401H150.973L147.269 230.04V231.052H148.224C150.706 231.052 151.832 232.102 151.832 233.706C151.832 235.367 150.61 236.398 148.396 236.398C146.658 236.398 145.112 235.748 144.253 234.851L143.585 235.939C144.616 236.989 146.467 237.658 148.396 237.658C151.622 237.658 153.245 235.939 153.245 233.706C153.245 231.568 151.813 230.059 148.949 229.907ZM158.508 229.658H156.79L157.248 225.401H163.357V224.179H156.045L155.358 230.88H158.202C161.601 230.88 162.67 231.949 162.67 233.668C162.67 235.29 161.467 236.398 159.195 236.398C157.477 236.398 155.95 235.748 155.091 234.851L154.422 235.939C155.453 236.989 157.286 237.658 159.214 237.658C162.479 237.658 164.063 235.882 164.063 233.61C164.063 231.243 162.536 229.658 158.508 229.658ZM165.961 232.961H170.963V231.778H165.961V232.961ZM184.606 232.808H181.933V229.716H180.597V232.808H174.793L181.628 224.179H180.101L173.018 233.038V234.03H180.559V237.543H181.933V234.03H184.606V232.808ZM197.228 232.808H194.555V229.716H193.219V232.808H187.415L194.25 224.179H192.722L185.64 233.038V234.03H193.181V237.543H194.555V234.03H197.228V232.808Z" fill="#7B91B0"/>
<path d="M262.128 232.808H259.455V229.716H258.119V232.808H252.315L259.15 224.179H257.623L250.54 233.038V234.03H258.081V237.543H259.455V234.03H262.128V232.808ZM266.829 229.658H265.111L265.569 225.401H271.678V224.179H264.366L263.679 230.88H266.523C269.921 230.88 270.991 231.949 270.991 233.668C270.991 235.29 269.788 236.398 267.516 236.398C265.798 236.398 264.271 235.748 263.411 234.851L262.743 235.939C263.774 236.989 265.607 237.658 267.535 237.658C270.8 237.658 272.384 235.882 272.384 233.61C272.384 231.243 270.857 229.658 266.829 229.658ZM274.282 232.961H279.284V231.778H274.282V232.961ZM284.932 229.658H283.213L283.672 225.401H289.781V224.179H282.469L281.782 230.88H284.626C288.024 230.88 289.093 231.949 289.093 233.668C289.093 235.29 287.891 236.398 285.619 236.398C283.901 236.398 282.373 235.748 281.514 234.851L280.846 235.939C281.877 236.989 283.71 237.658 285.638 237.658C288.902 237.658 290.487 235.882 290.487 233.61C290.487 231.243 288.96 229.658 284.932 229.658ZM303.591 232.808H300.918V229.716H299.582V232.808H293.778L300.613 224.179H299.086L292.003 233.038V234.03H299.544V237.543H300.918V234.03H303.591V232.808Z" fill="#7B91B0"/>
<rect x="36.8203" y="49.0898" width="16.3636" height="147.273" rx="2.72727" fill="#0095FF"/>
<rect x="58.6367" width="16.3636" height="196.364" rx="2.72727" fill="#00E096"/>
<rect x="148.637" y="49.0859" width="16.3636" height="147.273" rx="2.72727" fill="#0095FF"/>
<rect x="170.453" y="94.0859" width="16.3636" height="102.273" rx="2.72727" fill="#00E096"/>
<rect x="255" y="76.3594" width="16.3636" height="120" rx="2.72727" fill="#0095FF"/>
<rect x="276.816" y="49.0859" width="16.3636" height="147.273" rx="2.72727" fill="#00E096"/>
</svg>
