<svg width="146" height="157" viewBox="0 0 146 157" fill="none" xmlns="http://www.w3.org/2000/svg">
<path d="M13.1094 72.5547C15.5535 58.854 22.7492 46.4534 33.4315 37.533C44.1137 28.6126 57.5986 23.7434 71.5156 23.7815L71.4328 54.0497C64.6358 54.0311 58.0497 56.4092 52.8325 60.7659C47.6153 65.1226 44.101 71.1791 42.9072 77.8705L13.1094 72.5547Z" fill="#F3F3F4"/>
<path d="M68.332 3.92706C68.332 1.89628 69.9794 0.241144 72.008 0.334809C88.7216 1.1065 104.804 7.12486 117.944 17.5825C131.084 28.0402 140.558 42.3614 145.061 58.4754C145.608 60.4312 144.365 62.4081 142.386 62.8639L103.616 71.7931C101.638 72.2489 99.6835 71.0041 99.0074 69.0892C96.9837 63.3572 93.3844 58.2817 88.5898 54.4659C83.7953 50.65 78.0413 48.2817 72.0014 47.5961C69.9836 47.3671 68.332 45.7423 68.332 43.7115V3.92706Z" fill="#F85186"/>
<path d="M135.591 64.1484C139.025 78.7938 137.585 94.1598 131.49 107.912C125.395 121.665 114.978 133.052 101.821 140.345C88.6647 147.637 73.4874 150.437 58.5949 148.317C36.044 148.317 -2.12496 119.539 7.94792 72.2647C8.37641 70.2536 10.4385 69.0634 12.4186 69.6174L21.7102 72.2172L35.468 75.9178C40.6449 81.1307 56.3012 112.29 63.5747 113.325C70.8482 114.36 78.2608 112.993 84.6865 109.432C91.1122 105.87 96.1999 100.308 99.1767 93.5915C101.655 87.9999 102.557 81.8621 101.822 75.8359C101.577 73.8201 102.782 71.8414 104.759 71.3778L135.591 64.1484Z" fill="#31B997"/>
<g filter="url(#filter0_d_2136_70779)">
<circle cx="71.4197" cy="81.1736" r="35.5721" fill="white"/>
</g>
<defs>
<filter id="filter0_d_2136_70779" x="0.915554" y="15.5722" width="141.009" height="141.009" filterUnits="userSpaceOnUse" color-interpolation-filters="sRGB">
<feFlood flood-opacity="0" result="BackgroundImageFix"/>
<feColorMatrix in="SourceAlpha" type="matrix" values="0 0 0 0 0 0 0 0 0 0 0 0 0 0 0 0 0 0 127 0" result="hardAlpha"/>
<feOffset dy="4.90275"/>
<feGaussianBlur stdDeviation="17.4661"/>
<feColorMatrix type="matrix" values="0 0 0 0 0 0 0 0 0 0 0 0 0 0 0 0 0 0 0.14 0"/>
<feBlend mode="normal" in2="BackgroundImageFix" result="effect1_dropShadow_2136_70779"/>
<feBlend mode="normal" in="SourceGraphic" in2="effect1_dropShadow_2136_70779" result="shape"/>
</filter>
</defs>
</svg>
