<svg width="146" height="157" viewBox="0 0 146 157" fill="none" xmlns="http://www.w3.org/2000/svg">
<path d="M12.7617 72.5547C15.2059 58.854 22.4016 46.4534 33.0838 37.533C43.766 28.6126 57.251 23.7434 71.168 23.7815L71.0852 54.0497C64.2881 54.0311 57.7021 56.4092 52.4849 60.7659C47.2677 65.1226 43.7533 71.1791 42.5596 77.8705L12.7617 72.5547Z" fill="#F54237"/>
<path d="M67.9844 3.92706C67.9844 1.89628 69.6318 0.241144 71.6604 0.334809C88.374 1.1065 104.456 7.12486 117.596 17.5825C130.736 28.0402 140.211 42.3614 144.714 58.4754C145.26 60.4312 144.017 62.4081 142.038 62.8639L103.269 71.7931C101.29 72.2489 99.3358 71.0041 98.6598 69.0892C96.636 63.3572 93.0367 58.2817 88.2422 54.4659C83.4476 50.65 77.6937 48.2817 71.6538 47.5961C69.6359 47.3671 67.9844 45.7423 67.9844 43.7115V3.92706Z" fill="#3CD856"/>
<path d="M135.243 64.1484C138.677 78.7938 137.237 94.1598 131.142 107.912C125.047 121.665 114.63 133.052 101.474 140.345C88.3171 147.637 73.1397 150.437 58.2472 148.317C35.6963 148.317 -2.47262 119.539 7.60026 72.2647C8.02876 70.2536 10.0908 69.0634 12.071 69.6174L21.3625 72.2172L35.1203 75.9178C40.2973 81.1307 55.9535 112.29 63.227 113.325C70.5006 114.36 77.9131 112.993 84.3389 109.432C90.7646 105.87 95.8522 100.308 98.829 93.5915C101.307 87.9999 102.21 81.8621 101.475 75.8359C101.229 73.8201 102.435 71.8414 104.412 71.3778L135.243 64.1484Z" fill="#7F12B8"/>
<g filter="url(#filter0_d_2136_70902)">
<circle cx="71.0721" cy="81.1736" r="35.5721" fill="white"/>
</g>
<defs>
<filter id="filter0_d_2136_70902" x="0.567898" y="15.5722" width="141.009" height="141.009" filterUnits="userSpaceOnUse" color-interpolation-filters="sRGB">
<feFlood flood-opacity="0" result="BackgroundImageFix"/>
<feColorMatrix in="SourceAlpha" type="matrix" values="0 0 0 0 0 0 0 0 0 0 0 0 0 0 0 0 0 0 127 0" result="hardAlpha"/>
<feOffset dy="4.90275"/>
<feGaussianBlur stdDeviation="17.4661"/>
<feColorMatrix type="matrix" values="0 0 0 0 0 0 0 0 0 0 0 0 0 0 0 0 0 0 0.14 0"/>
<feBlend mode="normal" in2="BackgroundImageFix" result="effect1_dropShadow_2136_70902"/>
<feBlend mode="normal" in="SourceGraphic" in2="effect1_dropShadow_2136_70902" result="shape"/>
</filter>
</defs>
</svg>
