<svg width="36" height="36" viewBox="0 0 36 36" fill="none" xmlns="http://www.w3.org/2000/svg">
<rect x="0.5" y="0.5" width="35" height="35" rx="3.5" fill="#EE628F" fill-opacity="0.05" stroke="#EE628F"/>
<g clip-path="url(#clip0_2_12869)">
<path d="M21.7493 13.5H25.4993V15H23.9993V24.75C23.9993 24.9489 23.9203 25.1397 23.7796 25.2803C23.6389 25.421 23.4482 25.5 23.2493 25.5H12.7493C12.5504 25.5 12.3596 25.421 12.2189 25.2803C12.0783 25.1397 11.9993 24.9489 11.9993 24.75V15H10.4993V13.5H14.2493V11.25C14.2493 11.0511 14.3283 10.8603 14.4689 10.7197C14.6096 10.579 14.8004 10.5 14.9993 10.5H20.9993C21.1982 10.5 21.3889 10.579 21.5296 10.7197C21.6703 10.8603 21.7493 11.0511 21.7493 11.25V13.5ZM22.4993 15H13.4993V24H22.4993V15ZM15.7493 17.25H17.2493V21.75H15.7493V17.25ZM18.7493 17.25H20.2493V21.75H18.7493V17.25ZM15.7493 12V13.5H20.2493V12H15.7493Z" fill="#EE628F"/>
</g>
<defs>
<clipPath id="clip0_2_12869">
<rect width="18.7826" height="18.7826" fill="white" transform="translate(8.60864 8.6087)"/>
</clipPath>
</defs>
</svg>
